<?xml version="1.0" standalone="no"?>
<!DOCTYPE svg PUBLIC "-//W3C//DTD SVG 1.1//EN" "http://www.w3.org/Graphics/SVG/1.1/DTD/svg11.dtd" >
<svg xmlns="http://www.w3.org/2000/svg" xmlns:xlink="http://www.w3.org/1999/xlink" version="1.1">
<metadata>
Created by FontForge 20190801 at Wed Aug 29 06:04:26 2018
 By Jimmy Wärting
Copyright \(c\) 2018 by Petr Bushuev. All rights reserved.
</metadata>
<defs>
<font id="Kontora-SemiBold" horiz-adv-x="1640" >
  <font-face 
    font-family="Kontora"
    font-weight="600"
    font-stretch="normal"
    units-per-em="2048"
    panose-1="2 1 6 3 2 0 0 0 0 0"
    ascent="1638"
    descent="-410"
    x-height="1024"
    cap-height="1434"
    bbox="-172 -581 2351 2056"
    underline-thickness="150"
    underline-position="-442"
    stemh="192"
    stemv="196"
    unicode-range="U+000D-FB06"
  />
<missing-glyph horiz-adv-x="30" 
 />
    <glyph glyph-name="ff" unicode="ff" horiz-adv-x="1124" 
d="M7 840v184h186v174c0 155 114 257 266 257c53 0 114 -25 148 -67v-220c-31 57 -80 106 -149 106c-46 0 -76 -30 -76 -76v-174h321v174c0 155 114 257 266 257c53 0 114 -25 148 -67v-220c-31 57 -80 106 -149 106c-46 0 -76 -30 -76 -76v-174h224v-184h-224v-840h-189
v840h-321v-840h-189v840h-186z" />
    <glyph glyph-name="fi" unicode="fi" horiz-adv-x="1011" 
d="M719 0v840h-356v-840h-187v840h-157v184h157v107c0 213 177 320 373 320c200 0 357 -107 357 -320h-187c1 204 -356 192 -356 0v-107h543v-1024h-187z" />
    <glyph glyph-name="fl" unicode="fl" horiz-adv-x="1027" 
d="M735 0v1084c0 259 -372 245 -372 0v-60h231v-184h-231v-840h-187v840h-157v184h157v60c0 226 161 367 381 367c221 0 365 -147 365 -367v-1084h-187z" />
    <glyph glyph-name="ffi" unicode="ffi" horiz-adv-x="1579" 
d="M1272 0v840h-356v-840h-187v840h-353v-840h-189v840h-186v184h186v174c0 155 114 257 266 257c54 0 114 -25 148 -67v-220c-31 57 -80 106 -149 106c-46 0 -76 -30 -76 -76v-174h353v107c0 213 177 320 373 320c200 0 357 -107 357 -320h-187c1 204 -356 192 -356 0v-107
h543v-1024h-187z" />
    <glyph glyph-name="ffl" unicode="ffl" horiz-adv-x="1586" 
d="M1281 0v1084c0 259 -372 245 -372 0v-60h231v-184h-231v-840h-187v840h-346v-840h-189v840h-186v184h186v174c0 155 114 257 266 257c54 0 114 -25 148 -67v-220c-31 57 -80 106 -149 106c-46 0 -76 -30 -76 -76v-174h346v60c0 226 161 367 381 367
c221 0 365 -147 365 -367v-1084h-187z" />
    <glyph glyph-name="s_t" unicode="st" horiz-adv-x="1430" 
d="M1009 841h-535c-75 0 -203 -16 -203 -116c0 -197 534 -102 534 -456c0 -211 -213 -291 -392 -291c-113 0 -224 32 -325 81l73 167c76 -37 165 -69 251 -69c69 0 205 25 205 117c0 193 -534 117 -534 456c0 211 210 293 390 293c179 0 357 1 536 1v299h188v-299h218v-183
h-218v-841h-188v841z" />
    <glyph glyph-name=".notdef" horiz-adv-x="30" 
 />
    <glyph glyph-name="NULL" horiz-adv-x="0" 
 />
    <glyph glyph-name="NULL" horiz-adv-x="0" 
 />
    <glyph glyph-name="CR" unicode="&#xd;" horiz-adv-x="600" 
 />
    <glyph glyph-name="space" unicode=" " horiz-adv-x="600" 
 />
    <glyph glyph-name="exclam" unicode="!" horiz-adv-x="416" 
d="M110 356v1078h197v-1078h-197zM328 103c0 -64 -55 -120 -119 -120c-66 0 -120 54 -120 120c0 158 239 158 239 0z" />
    <glyph glyph-name="quotedbl" unicode="&#x22;" horiz-adv-x="714" 
d="M407 1047v553h197v-553h-197zM110 1047v553h197v-553h-197z" />
    <glyph glyph-name="numbersign" unicode="#" horiz-adv-x="1317" 
d="M530 1434v-401h258v401h198v-401h299v-192h-299v-247h299v-191h-299v-403h-198v403h-258v-403h-198v403h-300v191h300v247h-300v192h300v401h198zM793 591v254h-268v-254h268z" />
    <glyph glyph-name="dollar" unicode="$" horiz-adv-x="1119" 
d="M123 256c112 -46 243 -93 365 -93c126 0 340 52 340 211c0 338 -786 169 -786 685c0 229 181 347 386 385v200h189v-187c123 -7 256 -41 367 -93l-69 -177c-104 43 -222 80 -336 80c-136 0 -341 -33 -341 -209c0 -338 787 -164 787 -685c0 -235 -199 -355 -408 -389v-191
h-189v183c-131 10 -258 53 -379 105z" />
    <glyph glyph-name="percent" unicode="%" horiz-adv-x="1401" 
d="M346 0h-231l935 1435h229zM1026 578c166 0 308 -133 308 -301c0 -169 -144 -301 -310 -301c-168 0 -306 131 -306 301c0 169 141 301 308 301zM1025 407c-171 0 -172 -260 0 -260c173 0 174 260 0 260zM374 1470c166 0 308 -133 308 -301c0 -169 -144 -301 -310 -301
c-168 0 -306 131 -306 301c0 169 141 301 308 301zM373 1299c-171 0 -172 -260 0 -260c173 0 174 260 0 260z" />
    <glyph glyph-name="ampersand" unicode="&#x26;" horiz-adv-x="1263" 
d="M795 676h-259c-133 0 -264 -122 -264 -257c0 -134 116 -251 250 -251c145 0 273 114 273 262v246zM992 676v-313c0 -142 111 -192 237 -192v-190c-138 0 -282 32 -357 160c-78 -111 -219 -162 -351 -162c-239 0 -447 200 -447 441c0 144 77 279 199 355
c-93 64 -149 175 -149 288c0 219 198 387 410 387c99 0 211 -36 282 -108l-116 -149c-47 41 -105 65 -167 65c-106 0 -211 -87 -211 -197c0 -108 110 -194 213 -194h260v259h197v-259h237v-191h-237z" />
    <glyph glyph-name="quotesingle" unicode="'" horiz-adv-x="417" 
d="M110 1047v553h197v-553h-197z" />
    <glyph glyph-name="parenleft" unicode="(" horiz-adv-x="518" 
d="M299 1583h219c-359 -619 -361 -1116 0 -1735h-219c-326 585 -324 1150 0 1735z" />
    <glyph glyph-name="parenright" unicode=")" horiz-adv-x="518" 
d="M0 1583h220c323 -583 325 -1152 0 -1735h-220c361 616 359 1119 0 1735z" />
    <glyph glyph-name="asterisk" unicode="*" horiz-adv-x="624" 
d="M382 1531l-8 -181l168 63l44 -131l-177 -49l114 -142l-111 -81l-101 153l-100 -153l-112 82l115 143l-176 49l43 131l168 -63l-7 179h140z" />
    <glyph glyph-name="plus" unicode="+" horiz-adv-x="914" 
d="M804 621h-247v-271h-198v271h-249v190h249v271h198v-271h247v-190z" />
    <glyph glyph-name="comma" unicode="," horiz-adv-x="425" 
d="M110 -200v421h205l-61 -421h-144z" />
    <glyph glyph-name="hyphen" unicode="-" horiz-adv-x="766" 
d="M110 712h544v-191h-544v191z" />
    <glyph glyph-name="period" unicode="." horiz-adv-x="459" 
d="M349 103c0 -64 -55 -120 -119 -120c-66 0 -120 54 -120 120c0 158 239 158 239 0z" />
    <glyph glyph-name="slash" unicode="/" horiz-adv-x="752" 
d="M-57 -153l599 1587h210l-599 -1587h-210z" />
    <glyph glyph-name="zero" unicode="0" horiz-adv-x="1278" 
d="M646 161c291 0 344 327 344 554s-52 556 -344 556c-286 0 -360 -329 -360 -556c0 -232 68 -554 360 -554zM1187 715c0 -343 -134 -743 -541 -743s-557 395 -557 743c0 346 151 746 557 746c408 0 541 -403 541 -746z" />
    <glyph glyph-name="one" unicode="1" horiz-adv-x="565" 
d="M22 1434h410v-1434h-197v1243h-213v191z" />
    <glyph glyph-name="two" unicode="2" horiz-adv-x="1073" 
d="M97 909v84c0 247 197 460 448 460c255 0 447 -204 447 -456c0 -149 -77 -275 -185 -372l-492 -439h680v-186h-897v232l576 530c69 64 121 145 121 242c0 140 -108 258 -250 258c-152 0 -250 -115 -250 -263v-90h-198z" />
    <glyph glyph-name="three" unicode="3" horiz-adv-x="1087" 
d="M124 1094c39 216 194 359 417 359c213 0 411 -171 411 -390c0 -114 -56 -221 -148 -288v-4c136 -64 198 -204 198 -348c0 -508 -818 -657 -938 -42l192 43c27 -156 113 -256 278 -256c139 0 270 110 270 254c0 165 -137 249 -289 249h-70v190h70c115 0 238 72 238 199
c0 115 -104 203 -215 203c-129 0 -203 -94 -224 -213z" />
    <glyph glyph-name="four" unicode="4" horiz-adv-x="1116" 
d="M671 1434h173v-871h221v-191h-221v-372h-197v372h-626v148zM652 1118l-401 -562h401v562z" />
    <glyph glyph-name="five" unicode="5" horiz-adv-x="1039" 
d="M308 1243v-368c315 164 663 -62 663 -411c0 -266 -218 -486 -485 -486c-163 0 -309 76 -410 202l151 116c67 -81 150 -128 256 -128c160 0 291 137 291 295c0 156 -120 282 -278 282c-96 0 -157 -29 -224 -97l-156 76v710h769v-191h-577z" />
    <glyph glyph-name="six" unicode="6" horiz-adv-x="1050" 
d="M597 1434h239l-259 -365c-50 -69 -97 -142 -150 -209c286 86 559 -121 559 -418c0 -259 -207 -464 -466 -464c-256 0 -468 207 -468 464c0 155 45 272 135 398h-1zM520 168c147 0 268 129 268 274c0 148 -119 271 -268 271c-150 0 -269 -122 -269 -271
c0 -150 118 -274 269 -274z" />
    <glyph glyph-name="seven" unicode="7" horiz-adv-x="1058" 
d="M53 1434h976v-163l-641 -1271h-219l639 1243h-755v191z" />
    <glyph glyph-name="eight" unicode="8" horiz-adv-x="1064" 
d="M532 172c139 0 251 112 251 251c0 140 -109 257 -251 257c-140 0 -251 -119 -251 -257c0 -141 110 -251 251 -251zM532 1269c-108 0 -199 -86 -199 -195c0 -111 86 -205 199 -205c109 0 198 98 198 205c0 112 -87 195 -198 195zM273 785c-83 72 -131 178 -131 288
c0 216 177 382 390 382c211 0 390 -168 390 -382c0 -112 -45 -214 -129 -288c116 -80 187 -222 187 -362c0 -252 -198 -442 -448 -442c-244 0 -448 196 -448 442c0 148 69 276 189 362z" />
    <glyph glyph-name="nine" unicode="9" horiz-adv-x="1050" 
d="M442 0h-240c136 191 269 385 409 574c-286 -86 -559 121 -559 418c0 260 208 464 467 464c256 0 467 -207 467 -464c0 -158 -45 -269 -134 -398c-136 -198 -273 -396 -410 -594zM519 1266c-148 0 -269 -128 -269 -274c0 -148 120 -271 269 -271c150 0 268 122 268 271
s-117 274 -268 274z" />
    <glyph glyph-name="colon" unicode=":" horiz-adv-x="459" 
d="M349 954c0 -64 -55 -120 -119 -120c-66 0 -120 54 -120 120c0 158 239 158 239 0zM349 103c0 -64 -55 -120 -119 -120c-66 0 -120 54 -120 120c0 158 239 158 239 0z" />
    <glyph glyph-name="semicolon" unicode=";" horiz-adv-x="459" 
d="M349 947c0 -64 -55 -120 -119 -120c-66 0 -120 54 -120 120c0 158 239 158 239 0zM130 -200v421h205l-61 -421h-144z" />
    <glyph glyph-name="less" unicode="&#x3c;" horiz-adv-x="629" 
d="M580 1148v-246l-263 -183l263 -176v-245l-580 419z" />
    <glyph glyph-name="equal" unicode="=" horiz-adv-x="914" 
d="M804 793h-694v190h694v-190zM804 449h-694v190h694v-190z" />
    <glyph glyph-name="greater" unicode="&#x3e;" horiz-adv-x="629" 
d="M49 902v246l580 -431l-580 -419v245l263 176z" />
    <glyph glyph-name="question" unicode="?" horiz-adv-x="952" 
d="M575 379h-188c-55 363 334 379 334 644c0 157 -92 247 -249 247c-187 0 -273 -135 -253 -311h-190c-52 647 881 646 881 65c0 -355 -394 -353 -335 -645zM602 103c0 -64 -55 -120 -119 -120c-66 0 -120 54 -120 120c0 158 239 158 239 0z" />
    <glyph glyph-name="at" unicode="@" horiz-adv-x="1593" 
d="M785 339c96 0 171 77 171 173c0 95 -75 174 -171 174c-225 0 -227 -347 0 -347zM937 -216c-46 -9 -94 -15 -141 -15c-412 0 -746 329 -746 742c0 414 333 742 746 742s745 -328 745 -742c0 -202 -84 -517 -335 -517c-161 0 -231 152 -231 293
c-146 -271 -538 -76 -538 225c0 193 154 353 348 353c140 0 253 -89 317 -209c3 -7 28 -56 28 -65c4 -77 0 -157 0 -234c0 -53 -2 -186 78 -186c125 0 146 252 146 340c0 311 -245 563 -558 563c-312 0 -560 -252 -560 -563c0 -312 247 -562 560 -562c41 0 83 4 123 14z" />
    <glyph glyph-name="A" unicode="A" horiz-adv-x="1421" 
d="M623 1434h174l604 -1434h-213l-170 399h-616l-171 -399h-212zM711 1154l-239 -575h476z" />
    <glyph glyph-name="B" unicode="B" horiz-adv-x="1155" 
d="M306 663v-471c118 0 236 0 354 1c128 1 232 107 232 235c0 134 -111 235 -243 235h-343zM306 856h323c103 0 190 92 190 194c0 105 -87 192 -192 192h-321v-386zM858 776c147 -68 233 -183 233 -348c0 -239 -191 -428 -429 -428h-552v1434h530c203 0 377 -183 377 -384
c0 -119 -58 -212 -159 -274z" />
    <glyph glyph-name="C" unicode="C" horiz-adv-x="1462" 
d="M1409 266c-142 -179 -365 -300 -596 -300c-424 0 -752 328 -752 752c0 422 330 750 752 750c231 0 418 -95 569 -267l-145 -130c-107 124 -258 206 -424 206c-306 0 -556 -253 -556 -559c0 -321 234 -561 556 -561c173 0 339 98 444 232z" />
    <glyph glyph-name="D" unicode="D" horiz-adv-x="1409" 
d="M306 191h287c306 0 562 208 562 526c0 316 -257 526 -562 526h-287v-1052zM110 1434h483c413 0 758 -291 758 -717c0 -427 -344 -716 -758 -716c-161 0 -322 -1 -483 -1v1434z" />
    <glyph glyph-name="E" unicode="E" horiz-adv-x="1133" 
d="M110 1434h972v-192l-775 1v-401h600v-191h-600v-458h775v-193h-972v1434z" />
    <glyph glyph-name="F" unicode="F" horiz-adv-x="1016" 
d="M110 1434h906v-189h-712v-395h528v-192h-528v-658h-194v1434z" />
    <glyph glyph-name="G" unicode="G" horiz-adv-x="1456" 
d="M1178 308v285h-395v188h588v-555c-142 -150 -350 -260 -559 -260c-424 0 -752 328 -752 752c0 422 330 750 752 750c228 0 422 -99 567 -274l-146 -126c-105 125 -255 209 -421 209c-306 0 -556 -253 -556 -559c0 -321 234 -561 556 -561c132 0 268 64 366 151z" />
    <glyph glyph-name="H" unicode="H" horiz-adv-x="1365" 
d="M110 1434h197v-611h749v611h198v-1434h-198v631h-749v-631h-197v1434z" />
    <glyph glyph-name="I" unicode="I" horiz-adv-x="424" 
d="M110 0v1434h197v-1434h-197z" />
    <glyph glyph-name="J" unicode="J" horiz-adv-x="762" 
d="M659 1434v-1092c0 -207 -120 -364 -337 -364c-164 0 -287 98 -322 257l185 75c8 -79 53 -140 138 -140c102 0 139 82 139 172v1092h197z" />
    <glyph glyph-name="K" unicode="K" horiz-adv-x="1308" 
d="M110 1434h193v-574h114l546 574h267l-640 -668l716 -766h-262l-628 668h-113v-668h-193v1434z" />
    <glyph glyph-name="L" unicode="L" horiz-adv-x="940" 
d="M110 1434h196v-1242h634v-192h-830v1434z" />
    <glyph glyph-name="M" unicode="M" horiz-adv-x="1651" 
d="M1366 1434h174v-1434h-195v1079l-520 -724l-521 724v-1079h-194v1434h174l541 -753z" />
    <glyph glyph-name="N" unicode="N" horiz-adv-x="1419" 
d="M110 1434h172l831 -1081v1081h196v-1434h-172l-831 1081v-1081h-196v1434z" />
    <glyph glyph-name="O" unicode="O" 
d="M820 156c310 0 558 249 558 559s-247 561 -558 561s-559 -250 -559 -561c0 -310 249 -559 559 -559zM1575 715c0 -418 -339 -749 -755 -749s-755 331 -755 749c0 417 339 753 755 753s755 -336 755 -753z" />
    <glyph glyph-name="P" unicode="P" horiz-adv-x="1161" 
d="M307 1242v-581h330c163 0 287 128 287 290c0 159 -127 291 -287 291h-330zM307 470v-470h-197v1434h527c267 0 484 -216 484 -483c0 -268 -217 -481 -484 -481h-330z" />
    <glyph glyph-name="Q" unicode="Q" 
d="M719 -357v330c-375 49 -654 364 -654 742c0 417 339 753 755 753s755 -336 755 -753c0 -381 -284 -697 -661 -743v-329h-195zM820 156c310 0 558 249 558 559s-247 561 -558 561s-559 -250 -559 -561c0 -310 249 -559 559 -559z" />
    <glyph glyph-name="R" unicode="R" horiz-adv-x="1229" 
d="M305 1240v-527h337c153 0 279 103 279 262c0 158 -125 265 -279 265h-337zM971 0l-350 524h-314v-524h-197v1434h532c255 0 476 -196 476 -457c0 -180 -112 -356 -289 -408l383 -569h-241z" />
    <glyph glyph-name="S" unicode="S" horiz-adv-x="1146" 
d="M164 256c112 -46 243 -93 365 -93c126 0 340 52 340 211c0 338 -786 169 -786 685c0 289 290 399 536 399c133 0 286 -38 406 -94l-69 -177c-104 43 -222 80 -336 80c-136 0 -341 -33 -341 -209c0 -338 787 -164 787 -685c0 -285 -294 -400 -537 -400
c-151 0 -301 50 -439 108z" />
    <glyph glyph-name="T" unicode="T" horiz-adv-x="1144" 
d="M14 1434h1116v-192h-459v-1242h-197v1242h-460v192z" />
    <glyph glyph-name="U" unicode="U" horiz-adv-x="1385" 
d="M1293 1434v-870c0 -330 -272 -598 -601 -598c-331 0 -601 266 -601 598v870h198v-870c0 -225 177 -405 403 -405c223 0 401 183 401 405v870h200z" />
    <glyph glyph-name="V" unicode="V" horiz-adv-x="1351" 
d="M1122 1434h205l-559 -1434h-185l-559 1434h204l448 -1158z" />
    <glyph glyph-name="W" unicode="W" horiz-adv-x="2115" 
d="M969 1438h177l388 -1138l352 1134h199l-460 -1434h-179l-388 1172l-390 -1172h-178l-460 1434h199l352 -1134z" />
    <glyph glyph-name="X" unicode="X" horiz-adv-x="1474" 
d="M1214 1434h252l-602 -717l602 -717h-254l-474 565l-476 -565h-254l603 717l-601 717h253l475 -565z" />
    <glyph glyph-name="Y" unicode="Y" horiz-adv-x="1412" 
d="M1170 1434h230l-594 -854v-580h-197v580l-596 854h232l463 -669z" />
    <glyph glyph-name="Z" unicode="Z" horiz-adv-x="1283" 
d="M64 1434h1156v-170l-891 -1072h891v-192h-1156v170l892 1072h-892v192z" />
    <glyph glyph-name="bracketleft" unicode="[" horiz-adv-x="566" 
d="M110 -176v1785h433v-185h-241v-1416h241v-184h-433z" />
    <glyph glyph-name="backslash" unicode="\" horiz-adv-x="751" 
d="M210 1434l598 -1587h-209l-599 1587h210z" />
    <glyph glyph-name="bracketright" unicode="]" horiz-adv-x="566" 
d="M433 1609v-1785h-433v184h241v1416h-241v185h433z" />
    <glyph glyph-name="asciicircum" unicode="^" horiz-adv-x="727" 
d="M708 1060h-211l-131 180l-136 -182h-211l347 461z" />
    <glyph glyph-name="underscore" unicode="_" horiz-adv-x="1190" 
d="M110 -292v192h969v-192h-969z" />
    <glyph glyph-name="grave" unicode="`" horiz-adv-x="475" 
d="M344 1085l-337 330l123 127l337 -330z" />
    <glyph glyph-name="a" unicode="a" horiz-adv-x="1217" 
d="M923 169c-81 -125 -204 -190 -353 -190c-296 0 -520 238 -520 531c0 486 619 736 873 343v171h188v-1024h-188v169zM238 511c0 -196 152 -350 349 -350c196 0 349 154 349 350c0 194 -154 352 -349 352c-196 0 -349 -157 -349 -352z" />
    <glyph glyph-name="b" unicode="b" horiz-adv-x="1221" 
d="M298 855c81 124 204 190 353 190c296 0 520 -238 520 -531c0 -488 -623 -735 -873 -343v-171h-188v1434h188v-579zM983 513c0 196 -152 350 -349 350c-196 0 -349 -154 -349 -350c0 -194 154 -352 349 -352c196 0 349 157 349 352z" />
    <glyph glyph-name="c" unicode="c" horiz-adv-x="1090" 
d="M1036 799l-153 -100c-184 298 -646 164 -646 -188c0 -355 464 -482 648 -184l150 -106c-285 -441 -985 -245 -985 289c0 296 241 536 537 536c181 0 352 -93 449 -247z" />
    <glyph glyph-name="d" unicode="d" horiz-adv-x="1218" 
d="M923 169c-81 -125 -204 -190 -353 -190c-296 0 -520 238 -520 531c0 486 619 736 873 343v581h188v-1434h-188v169zM238 511c0 -196 152 -350 349 -350c196 0 349 154 349 350c0 194 -154 352 -349 352c-196 0 -349 -157 -349 -352z" />
    <glyph glyph-name="e" unicode="e" horiz-adv-x="1149" 
d="M249 597h650c-76 355 -588 348 -650 0zM1035 181c-336 -381 -985 -197 -985 330c0 293 228 534 524 534c342 0 561 -298 519 -625h-845c35 -160 177 -262 338 -262c123 0 232 52 313 144z" />
    <glyph glyph-name="f" unicode="f" horiz-adv-x="600" 
d="M0 840v184h186v174c0 155 114 257 266 257c53 0 114 -25 148 -67v-220c-31 57 -80 106 -149 106c-46 0 -76 -30 -76 -76v-174h224v-184h-224v-840h-189v840h-186z" />
    <glyph glyph-name="g" unicode="g" horiz-adv-x="1204" 
d="M923 169c-81 -125 -204 -190 -353 -190c-296 0 -520 238 -520 531c0 486 619 736 873 343v171h188v-907c0 -337 -173 -558 -523 -558c-225 0 -411 116 -510 318l169 82c62 -139 190 -218 341 -218c240 0 332 153 335 376v52zM238 511c0 -196 152 -350 349 -350
c196 0 349 154 349 350c0 194 -154 352 -349 352c-196 0 -349 -157 -349 -352z" />
    <glyph glyph-name="h" unicode="h" horiz-adv-x="1091" 
d="M297 1434v-592c56 137 170 203 316 203c273 0 381 -224 381 -468v-577h-189v575c0 164 -77 288 -254 288c-172 0 -254 -127 -254 -288v-575h-188v1434h188z" />
    <glyph glyph-name="i" unicode="i" horiz-adv-x="398" 
d="M104 0v1024h189v-1024h-189zM104 1207v227h189v-227h-189z" />
    <glyph glyph-name="j" unicode="j" horiz-adv-x="397" 
d="M98 -419v1443h189v-1443h-189zM98 1207v227h189v-227h-189z" />
    <glyph glyph-name="k" unicode="k" horiz-adv-x="1039" 
d="M110 1434h190v-815h95l349 405h245l-425 -499l479 -525h-252l-396 429h-95v-429h-190v1434z" />
    <glyph glyph-name="l" unicode="l" horiz-adv-x="409" 
d="M110 0v1434h188v-1434h-188z" />
    <glyph glyph-name="m" unicode="m" horiz-adv-x="1702" 
d="M298 1024v-182c51 131 149 202 291 202c132 0 238 -69 294 -188c77 131 203 188 351 188c270 0 366 -230 366 -467v-577h-188v575c0 153 -60 286 -231 286c-165 0 -232 -139 -232 -287v-574h-188v575c0 152 -62 286 -231 286c-165 0 -232 -139 -232 -287v-574h-188v1024
h188z" />
    <glyph glyph-name="n" unicode="n" horiz-adv-x="1089" 
d="M297 1024v-182c56 137 170 203 316 203c273 0 381 -224 381 -468v-577h-189v575c0 164 -77 288 -254 288c-172 0 -254 -127 -254 -288v-575h-188v1024h188z" />
    <glyph glyph-name="o" unicode="o" horiz-adv-x="1174" 
d="M587 -22c-300 0 -537 231 -537 532c0 296 241 536 537 536c297 0 537 -239 537 -536c0 -300 -239 -532 -537 -532zM237 511c0 -197 153 -350 350 -350c196 0 349 154 349 350c0 194 -154 352 -349 352c-196 0 -350 -156 -350 -352z" />
    <glyph glyph-name="p" unicode="p" horiz-adv-x="1221" 
d="M298 855c81 124 204 190 353 190c296 0 520 -238 520 -531c0 -488 -623 -735 -873 -343v-590h-188v1443h188v-169zM983 513c0 196 -152 350 -349 350c-196 0 -349 -154 -349 -350c0 -194 154 -352 349 -352c196 0 349 157 349 352z" />
    <glyph glyph-name="q" unicode="q" horiz-adv-x="1218" 
d="M923 171c-254 -393 -873 -143 -873 343c0 293 224 531 520 531c149 0 272 -66 353 -190v169h188v-1443h-188v590zM238 513c0 -195 153 -352 349 -352c195 0 349 158 349 352c0 196 -153 350 -349 350c-197 0 -349 -154 -349 -350z" />
    <glyph glyph-name="r" unicode="r" horiz-adv-x="665" 
d="M298 1024v-218c45 209 180 218 365 218v-179h-119c-178 0 -246 -132 -246 -293v-552h-188v1024h188z" />
    <glyph glyph-name="s" unicode="s" horiz-adv-x="859" 
d="M699 801c-71 34 -158 62 -237 62c-78 0 -205 -19 -205 -121c0 -201 537 -106 537 -466c0 -213 -210 -298 -393 -298c-113 0 -227 33 -328 83l74 170c77 -38 166 -71 253 -71c71 0 206 28 206 121c0 197 -538 119 -538 465c0 215 207 300 393 300c105 0 209 -30 304 -73z
" />
    <glyph glyph-name="t" unicode="t" horiz-adv-x="630" 
d="M5 841v183h214v299h188v-299h218v-183h-218v-841h-188v841h-214z" />
    <glyph glyph-name="u" unicode="u" horiz-adv-x="1035" 
d="M280 1024v-622c0 -131 105 -240 237 -240c133 0 238 108 238 240v622h188v-622c0 -236 -190 -424 -426 -424s-426 187 -426 424v622h189z" />
    <glyph glyph-name="v" unicode="v" horiz-adv-x="985" 
d="M783 1024h202l-401 -1024h-183l-401 1024h203l290 -769z" />
    <glyph glyph-name="w" unicode="w" horiz-adv-x="1502" 
d="M668 1024h166l248 -718l220 718h200l-329 -1024h-173l-249 727l-249 -727h-173l-329 1024h200l220 -719z" />
    <glyph glyph-name="x" unicode="x" horiz-adv-x="1102" 
d="M862 1024h243l-432 -512l429 -512h-243l-309 367l-307 -367h-243l430 510l-431 514h244l309 -369z" />
    <glyph glyph-name="y" unicode="y" horiz-adv-x="1018" 
d="M814 1024h204l-599 -1443h-203l201 490l-417 953h206l311 -729z" />
    <glyph glyph-name="z" unicode="z" horiz-adv-x="952" 
d="M34 1024h884v-162l-622 -678h622v-184h-884v162l622 677h-622v185z" />
    <glyph glyph-name="braceleft" unicode="{" horiz-adv-x="569" 
d="M570 -151h-83c-156 0 -260 90 -260 250v350c0 78 -57 176 -144 176h-83v177h84c85 0 143 101 143 177v353c0 161 102 252 260 252h82v-185c-58 0 -150 19 -150 -67v-353c0 -105 -46 -217 -144 -265c98 -50 145 -158 145 -264c0 -117 -1 -234 -1 -351
c0 -85 93 -65 151 -65v-185z" />
    <glyph glyph-name="bar" unicode="|" horiz-adv-x="409" 
d="M110 -200v1834h189v-1834h-189z" />
    <glyph glyph-name="braceright" unicode="}" horiz-adv-x="570" 
d="M0 -151v185c58 0 151 -20 151 65c0 117 -1 234 -1 351c0 106 47 214 145 264c-98 48 -144 160 -144 265v353c0 86 -92 67 -150 67v185h82c158 0 260 -91 260 -252v-353c0 -76 58 -177 143 -177h84v-177h-83c-87 0 -144 -98 -144 -176v-350c0 -160 -104 -250 -260 -250
h-83z" />
    <glyph glyph-name="asciitilde" unicode="~" horiz-adv-x="1108" 
d="M110 690c77 61 141 76 238 76c145 0 268 -98 413 -98c109 0 170 32 237 115v-229c-88 -57 -130 -74 -237 -74c-146 0 -269 95 -413 95c-106 0 -173 -33 -238 -115v230z" />
    <glyph glyph-name="exclamdown" unicode="&#xa1;" horiz-adv-x="416" 
d="M110 672h197v-1078h-197v1078zM328 925c0 -158 -239 -158 -239 0c0 66 54 120 120 120c64 0 119 -56 119 -120z" />
    <glyph glyph-name="cent" unicode="&#xa2;" horiz-adv-x="1054" 
d="M478 -200v189c-253 49 -428 264 -428 521c0 254 179 474 428 525v194h189v-189c151 -23 287 -112 369 -241l-153 -100c-184 297 -646 165 -646 -188c0 -355 464 -481 648 -184l150 -106c-83 -128 -217 -214 -368 -237v-184h-189z" />
    <glyph glyph-name="sterling" unicode="&#xa3;" horiz-adv-x="920" 
d="M475 835v-648h371v-187h-569v835h-271v189h273c6 270 170 410 434 410h148v-191c-184 0 -383 32 -382 -219h284v-189h-288z" />
    <glyph glyph-name="currency" unicode="&#xa4;" horiz-adv-x="1010" 
d="M195 879l-113 114l144 150l119 -118c106 49 216 55 321 0l119 118l144 -150l-112 -112c58 -111 61 -217 0 -328l112 -112l-144 -150l-120 119c-99 -54 -221 -53 -320 0c-38 -41 -79 -79 -119 -119l-145 151l115 114c-57 100 -64 223 -1 323zM331 717
c0 -96 78 -176 175 -176s173 80 173 176s-76 175 -173 175c-96 0 -175 -79 -175 -175z" />
    <glyph glyph-name="yen" unicode="&#xa5;" horiz-adv-x="1275" 
d="M1170 270h-439v-270h-188v270h-440v192h440v138h-440v191h315l-385 643h220l384 -649l385 649h220l-385 -643h313v-191h-439v-138h439v-192z" />
    <glyph glyph-name="brokenbar" unicode="&#xa6;" horiz-adv-x="409" 
d="M110 850v784h189v-784h-189zM110 -200v784h189v-784h-189z" />
    <glyph glyph-name="section" unicode="&#xa7;" horiz-adv-x="1156" 
d="M591 891c-134 0 -309 -89 -309 -241c0 -158 171 -241 309 -241c137 0 309 84 309 241c0 156 -172 241 -309 241zM906 1336c-72 115 -176 187 -315 187c-136 0 -306 -59 -306 -221c0 -180 215 -215 353 -226c225 -17 456 -182 456 -426c0 -151 -107 -287 -244 -342
c114 -55 203 -177 203 -306c0 -279 -253 -412 -503 -412c-210 0 -370 98 -480 275l166 101c72 -115 176 -187 314 -187c141 0 306 53 306 222c0 156 -184 211 -309 223c-45 4 -87 11 -130 24c-179 57 -328 205 -328 402c0 142 100 270 223 332c-127 54 -223 179 -223 320
c0 279 252 410 502 410c209 0 368 -98 479 -273z" />
    <glyph glyph-name="dieresis" unicode="&#xa8;" horiz-adv-x="748" 
d="M110 1323h220v-211h-220v211zM416 1323h220v-211h-220v211z" />
    <glyph glyph-name="copyright" unicode="&#xa9;" horiz-adv-x="1630" 
d="M963 600l146 -116c-72 -89 -167 -143 -283 -143c-206 0 -380 160 -380 369c0 204 150 393 363 393c115 0 210 -39 285 -127l-134 -123c-33 40 -87 70 -139 70c-217 0 -245 -408 7 -408c52 0 108 42 135 85zM806 155c312 0 558 249 558 560s-246 562 -558 562
s-559 -251 -559 -562s248 -560 559 -560zM1561 715c0 -418 -339 -749 -755 -749c-417 0 -756 330 -756 749c0 417 340 753 756 753c417 0 755 -335 755 -753z" />
    <glyph glyph-name="ordfeminine" unicode="&#xaa;" horiz-adv-x="985" 
d="M482 926c92 0 183 65 183 163c0 99 -89 165 -183 165c-93 0 -183 -67 -183 -165s91 -163 183 -163zM875 745h-193v141c-119 -275 -572 -114 -572 202c0 311 438 475 572 208v132h193v-683zM153 443v185h722v-185h-722z" />
    <glyph glyph-name="guillemotleft" unicode="&#xab;" horiz-adv-x="1100" 
d="M582 1049v-246l-267 -184l267 -179v-241l-580 418zM1060 1049v-246l-267 -184l267 -179v-241l-580 418z" />
    <glyph glyph-name="logicalnot" unicode="&#xac;" horiz-adv-x="1211" 
d="M110 666v201h991v-657h-199v456h-792z" />
    <glyph glyph-name="uni00AD" unicode="&#xad;" horiz-adv-x="766" 
d="M110 712h544v-191h-544v191z" />
    <glyph glyph-name="registered" unicode="&#xae;" horiz-adv-x="1626" 
d="M806 155c312 0 558 249 558 560s-246 562 -558 562s-559 -251 -559 -562s248 -560 559 -560zM1561 715c0 -418 -339 -749 -755 -749c-417 0 -756 330 -756 749c0 417 340 753 756 753c417 0 755 -335 755 -753zM696 927v-137h113c93 0 99 137 0 137h-113zM979 344
l-218 291h-63v-291h-189v764h334c131 0 246 -98 246 -233c0 -91 -43 -158 -126 -195l253 -336h-237z" />
    <glyph glyph-name="macron" unicode="&#xaf;" horiz-adv-x="766" 
d="M110 1430h544v-191h-544v191z" />
    <glyph glyph-name="degree" unicode="&#xb0;" horiz-adv-x="747" 
d="M374 1445c166 0 308 -133 308 -301c0 -169 -144 -301 -310 -301c-168 0 -306 131 -306 301c0 169 141 301 308 301zM373 1274c-171 0 -172 -260 0 -260c173 0 174 260 0 260z" />
    <glyph glyph-name="plusminus" unicode="&#xb1;" horiz-adv-x="913" 
d="M804 763h-247v-271h-198v271h-249v190h249v271h198v-271h247v-190zM806 201h-694v190h694v-190z" />
    <glyph glyph-name="twosuperior" unicode="&#xb2;" horiz-adv-x="647" 
d="M309 1035h295v-170h-561v141l329 334c28 28 56 64 56 106c0 60 -46 108 -106 109c-64 1 -104 -51 -104 -112v-68h-176v67c0 154 126 284 281 284c157 0 280 -125 280 -282c0 -92 -48 -162 -110 -224z" />
    <glyph glyph-name="threesuperior" unicode="&#xb3;" horiz-adv-x="651" 
d="M66 1492c92 365 523 255 523 -12c0 -58 -24 -123 -75 -156c70 -43 104 -117 104 -198c0 -293 -477 -424 -585 -18l168 57c18 -225 244 -154 244 -38c0 73 -61 111 -128 111h-54v159c59 0 157 -4 157 82c0 106 -188 130 -196 -47z" />
    <glyph glyph-name="acute" unicode="&#xb4;" horiz-adv-x="475" 
d="M467 1414l-338 -330l-122 128l337 329z" />
    <glyph glyph-name="mu" unicode="&#xb5;" horiz-adv-x="1029" 
d="M302 169v-588h-192v1443h192v-536c0 -172 59 -326 255 -326c180 0 256 123 256 291v571h192v-573c0 -253 -119 -473 -397 -473c-139 0 -252 59 -306 191z" />
    <glyph glyph-name="paragraph" unicode="&#xb6;" horiz-adv-x="1110" 
d="M398 723c-208 16 -365 134 -368 354c-3 236 186 358 404 358h603v-197h-136v-1238h-173v1238h-153v-1238h-177v723z" />
    <glyph glyph-name="periodcentered" unicode="&#xb7;" horiz-adv-x="450" 
d="M110 771h224v-219h-224v219z" />
    <glyph glyph-name="cedilla" unicode="&#xb8;" horiz-adv-x="566" 
d="M132 13h160l-25 -97h48c285 0 287 -450 -25 -450c-110 0 -200 89 -220 194l171 29c8 -28 32 -53 63 -53c72 0 70 123 -4 123c-79 0 -159 -16 -236 -29z" />
    <glyph glyph-name="onesuperior" unicode="&#xb9;" horiz-adv-x="369" 
d="M38 1716h293v-852h-177v681h-116v171z" />
    <glyph glyph-name="ordmasculine" unicode="&#xba;" horiz-adv-x="997" 
d="M498 921c94 0 186 68 186 167c0 101 -91 168 -186 168c-94 0 -186 -69 -186 -168s92 -167 186 -167zM498 745c-193 0 -388 137 -388 343s194 345 388 345c196 0 389 -136 389 -345c0 -206 -196 -343 -389 -343zM145 443v185h722v-185h-722z" />
    <glyph glyph-name="guillemotright" unicode="&#xbb;" horiz-adv-x="1100" 
d="M40 1049l580 -432l-580 -418v241l267 179l-267 184v246zM518 1049l580 -432l-580 -418v241l267 179l-267 184v246z" />
    <glyph glyph-name="onequarter" unicode="&#xbc;" horiz-adv-x="1477" 
d="M8 1434h293v-852h-177v681h-116v171zM768 327l372 525h148v-478h121v-171h-121v-203h-177v203h-343v124zM1121 558l-139 -195h139v195zM189 -152h-225l1131 1736h224z" />
    <glyph glyph-name="onehalf" unicode="&#xbd;" horiz-adv-x="1534" 
d="M8 1434h293v-852h-177v681h-116v171zM189 -152h-225l1131 1736h224zM1078 171h295v-171h-561v141l329 335c28 29 56 63 56 105c0 60 -46 109 -106 110c-65 2 -104 -52 -104 -113v-68h-176v67c0 154 126 284 281 284c158 0 280 -125 280 -282c0 -91 -48 -162 -110 -224z
" />
    <glyph glyph-name="threequarters" unicode="&#xbe;" horiz-adv-x="1724" 
d="M99 1210c92 365 523 255 523 -12c0 -58 -24 -123 -75 -156c70 -43 104 -117 104 -198c0 -293 -477 -424 -585 -18l168 57c18 -225 244 -154 244 -38c0 73 -61 111 -128 111h-54v159c59 0 157 -4 157 82c0 106 -188 130 -196 -47zM1000 327l372 525h148v-478h121v-171
h-121v-203h-177v203h-343v124zM1353 558l-139 -195h139v195zM421 -152h-225l1131 1736h224z" />
    <glyph glyph-name="questiondown" unicode="&#xbf;" horiz-adv-x="952" 
d="M388 638h188c55 -363 -334 -375 -334 -645c0 -158 92 -247 250 -247c187 0 272 135 253 311h189c52 -646 -881 -644 -881 -64c0 354 394 352 335 645zM608 927c0 -64 -55 -120 -119 -120c-66 0 -120 54 -120 120c0 158 239 158 239 0z" />
    <glyph glyph-name="Agrave" unicode="&#xc0;" horiz-adv-x="1432" 
d="M629 1434h174l604 -1434h-213l-170 399h-616l-171 -399h-212zM717 1154l-239 -575h476zM712 1499l-337 330l123 127l337 -330z" />
    <glyph glyph-name="Aacute" unicode="&#xc1;" horiz-adv-x="1432" 
d="M629 1434h174l604 -1434h-213l-170 399h-616l-171 -399h-212zM717 1154l-239 -575h476zM1054 1829l-338 -330l-122 128l337 329z" />
    <glyph glyph-name="Acircumflex" unicode="&#xc2;" horiz-adv-x="1432" 
d="M629 1434h174l604 -1434h-213l-170 399h-616l-171 -399h-212zM717 1154l-239 -575h476zM1057 1499h-209l-135 183l-136 -183h-209l346 462z" />
    <glyph glyph-name="Atilde" unicode="&#xc3;" horiz-adv-x="1432" 
d="M629 1434h174l604 -1434h-213l-170 399h-616l-171 -399h-212zM717 1154l-239 -575h476zM435 1739c40 40 90 48 144 48c110 0 180 -99 271 -99c75 0 107 36 142 98v-237c-38 -36 -91 -49 -142 -49c-115 0 -175 97 -271 97c-75 0 -109 -35 -144 -97v239z" />
    <glyph glyph-name="Adieresis" unicode="&#xc4;" horiz-adv-x="1432" 
d="M629 1434h174l604 -1434h-213l-170 399h-616l-171 -399h-212zM717 1154l-239 -575h476zM450 1720h220v-211h-220v211zM756 1720h220v-211h-220v211z" />
    <glyph glyph-name="Aring" unicode="&#xc5;" horiz-adv-x="1432" 
d="M586 1332c-255 129 -163 511 127 511c291 0 391 -378 132 -510l562 -1333h-213l-170 399h-616l-171 -399h-212zM717 1154l-239 -575h476zM606 1572c0 -144 217 -145 217 0s-217 144 -217 0z" />
    <glyph glyph-name="AE" unicode="&#xc6;" horiz-adv-x="1969" 
d="M19 0l942 1433l944 -1v-191l-776 1v-401h601v-190h-601v-459l776 -1v-191h-974v335h-452l-221 -335h-239zM591 518h343v537z" />
    <glyph glyph-name="Ccedilla" unicode="&#xc7;" horiz-adv-x="1464" 
d="M1409 266c-134 -169 -340 -285 -557 -298l-17 -68h48c285 0 287 -450 -25 -450c-110 0 -200 89 -220 194l171 29c8 -28 32 -53 63 -53c72 0 71 123 -4 123c-79 0 -159 -16 -236 -29l62 261c-373 56 -633 368 -633 743c0 422 330 750 752 750c231 0 418 -95 569 -267
l-145 -130c-107 124 -258 206 -424 206c-306 0 -556 -253 -556 -559c0 -321 234 -561 556 -561c173 0 339 98 444 232z" />
    <glyph glyph-name="Egrave" unicode="&#xc8;" horiz-adv-x="1114" 
d="M110 1434h972v-192l-775 1v-401h600v-191h-600v-458h775v-193h-972v1434zM588 1500l-337 330l123 127l337 -330z" />
    <glyph glyph-name="Eacute" unicode="&#xc9;" horiz-adv-x="1114" 
d="M110 1434h972v-192l-775 1v-401h600v-191h-600v-458h775v-193h-972v1434zM932 1829l-338 -330l-122 128l337 329z" />
    <glyph glyph-name="Ecircumflex" unicode="&#xca;" horiz-adv-x="1114" 
d="M110 1434h972v-192l-775 1v-401h600v-191h-600v-458h775v-193h-972v1434zM932 1500h-209l-135 183l-136 -183h-209l346 462z" />
    <glyph glyph-name="Edieresis" unicode="&#xcb;" horiz-adv-x="1114" 
d="M110 1434h972v-192l-775 1v-401h600v-191h-600v-458h775v-193h-972v1434zM326 1721h220v-211h-220v211zM632 1721h220v-211h-220v211z" />
    <glyph glyph-name="Igrave" unicode="&#xcc;" horiz-adv-x="423" 
d="M110 0v1434h197v-1434h-197zM208 1500l-337 330l123 127l337 -330z" />
    <glyph glyph-name="Iacute" unicode="&#xcd;" horiz-adv-x="423" 
d="M110 0v1434h197v-1434h-197zM545 1829l-338 -330l-122 128l337 329z" />
    <glyph glyph-name="Icircumflex" unicode="&#xce;" horiz-adv-x="423" 
d="M110 0v1434h197v-1434h-197zM553 1500h-209l-135 183l-136 -183h-209l346 462z" />
    <glyph glyph-name="Idieresis" unicode="&#xcf;" horiz-adv-x="423" 
d="M110 0v1434h197v-1434h-197zM-55 1721h220v-211h-220v211zM251 1721h220v-211h-220v211z" />
    <glyph glyph-name="Eth" unicode="&#xd0;" horiz-adv-x="1458" 
d="M-16 813h173v621h483c413 0 760 -290 760 -717c0 -428 -346 -716 -760 -716c-161 0 -322 -1 -483 -1v621h-173v192zM354 190h286c307 0 563 208 563 527c0 317 -257 527 -563 527h-286v-431h183v-192h-183v-431z" />
    <glyph glyph-name="Ntilde" unicode="&#xd1;" horiz-adv-x="1370" 
d="M110 1434h172l831 -1081v1081h196v-1434h-172l-831 1081v-1081h-196v1434zM402 1739c40 40 90 48 144 48c110 0 180 -99 271 -99c75 0 107 36 142 98v-237c-38 -36 -91 -49 -142 -49c-115 0 -175 97 -271 97c-75 0 -109 -35 -144 -97v239z" />
    <glyph glyph-name="Ograve" unicode="&#xd2;" 
d="M820 156c310 0 558 249 558 559s-247 561 -558 561s-559 -250 -559 -561c0 -310 249 -559 559 -559zM1575 715c0 -418 -339 -749 -755 -749s-755 331 -755 749c0 417 339 753 755 753s755 -336 755 -753zM821 1550l-337 330l123 127l337 -330z" />
    <glyph glyph-name="Oacute" unicode="&#xd3;" 
d="M820 156c310 0 558 249 558 559s-247 561 -558 561s-559 -250 -559 -561c0 -310 249 -559 559 -559zM1575 715c0 -418 -339 -749 -755 -749s-755 331 -755 749c0 417 339 753 755 753s755 -336 755 -753zM1157 1878l-338 -330l-122 128l337 329z" />
    <glyph glyph-name="Ocircumflex" unicode="&#xd4;" 
d="M820 156c310 0 558 249 558 559s-247 561 -558 561s-559 -250 -559 -561c0 -310 249 -559 559 -559zM1575 715c0 -418 -339 -749 -755 -749s-755 331 -755 749c0 417 339 753 755 753s755 -336 755 -753zM1161 1549h-209l-135 183l-136 -183h-209l346 462z" />
    <glyph glyph-name="Otilde" unicode="&#xd5;" 
d="M820 156c310 0 558 249 558 559s-247 561 -558 561s-559 -250 -559 -561c0 -310 249 -559 559 -559zM1575 715c0 -418 -339 -749 -755 -749s-755 331 -755 749c0 417 339 753 755 753s755 -336 755 -753zM539 1790c40 40 90 48 144 48c110 0 180 -99 271 -99
c75 0 107 36 142 98v-237c-38 -36 -91 -49 -142 -49c-115 0 -175 97 -271 97c-75 0 -109 -35 -144 -97v239z" />
    <glyph glyph-name="Odieresis" unicode="&#xd6;" 
d="M820 156c310 0 558 249 558 559s-247 561 -558 561s-559 -250 -559 -561c0 -310 249 -559 559 -559zM1575 715c0 -418 -339 -749 -755 -749s-755 331 -755 749c0 417 339 753 755 753s755 -336 755 -753zM556 1771h220v-211h-220v211zM862 1771h220v-211h-220v211z" />
    <glyph glyph-name="multiply" unicode="&#xd7;" horiz-adv-x="873" 
d="M662 360l-225 225l-226 -225l-132 131l226 226l-226 227l132 130l226 -225l226 225l132 -131l-226 -226l226 -226z" />
    <glyph glyph-name="Oslash" unicode="&#xd8;" 
d="M1164 1385c252 -128 411 -387 411 -670c0 -495 -462 -841 -939 -727l-33 -88h-171l54 142c-258 126 -421 385 -421 673c0 417 339 753 755 753c66 0 132 -9 195 -26l34 91h171zM946 1261c-41 10 -84 15 -126 15c-311 0 -559 -250 -559 -561c0 -206 111 -395 293 -493z
M704 168c38 -8 77 -12 116 -12c310 0 558 249 558 559c0 202 -107 389 -283 489z" />
    <glyph glyph-name="Ugrave" unicode="&#xd9;" horiz-adv-x="1385" 
d="M1293 1434v-870c0 -330 -272 -598 -601 -598c-331 0 -601 266 -601 598v870h198v-870c0 -225 177 -405 403 -405c223 0 401 183 401 405v870h200zM692 1499l-337 330l123 127l337 -330z" />
    <glyph glyph-name="Uacute" unicode="&#xda;" horiz-adv-x="1385" 
d="M1293 1434v-870c0 -330 -272 -598 -601 -598c-331 0 -601 266 -601 598v870h198v-870c0 -225 177 -405 403 -405c223 0 401 183 401 405v870h200zM1034 1828l-338 -330l-122 128l337 329z" />
    <glyph glyph-name="Ucircumflex" unicode="&#xdb;" horiz-adv-x="1385" 
d="M1293 1434v-870c0 -330 -272 -598 -601 -598c-331 0 -601 266 -601 598v870h198v-870c0 -225 177 -405 403 -405c223 0 401 183 401 405v870h200zM1034 1500h-209l-135 183l-136 -183h-209l346 462z" />
    <glyph glyph-name="Udieresis" unicode="&#xdc;" horiz-adv-x="1385" 
d="M1293 1434v-870c0 -330 -272 -598 -601 -598c-331 0 -601 266 -601 598v870h198v-870c0 -225 177 -405 403 -405c223 0 401 183 401 405v870h200zM428 1720h220v-211h-220v211zM734 1720h220v-211h-220v211z" />
    <glyph glyph-name="Yacute" unicode="&#xdd;" horiz-adv-x="1423" 
d="M1175 1434h230l-594 -854v-580h-197v580l-596 854h232l463 -669zM1049 1829l-338 -330l-122 128l337 329z" />
    <glyph glyph-name="Thorn" unicode="&#xde;" horiz-adv-x="1041" 
d="M307 1056v-680h179c220 0 309 131 309 340s-89 340 -309 340h-179zM307 1434v-189h187c345 0 497 -190 497 -525c0 -334 -152 -526 -497 -526h-187v-194h-197v1434h197z" />
    <glyph glyph-name="germandbls" unicode="&#xdf;" horiz-adv-x="1045" 
d="M369 200c63 -25 138 -40 206 -40c121 0 230 78 230 207c0 266 -351 212 -351 465c0 162 160 184 160 305c0 202 -329 213 -329 -63v-1074h-184v1074c0 537 706 495 706 75c0 -183 -153 -222 -153 -312c0 -127 341 -105 341 -477c0 -237 -196 -382 -421 -382
c-67 0 -141 11 -205 31v191z" />
    <glyph glyph-name="agrave" unicode="&#xe0;" horiz-adv-x="1217" 
d="M923 169c-81 -125 -204 -190 -353 -190c-296 0 -520 238 -520 531c0 486 619 736 873 343v171h188v-1024h-188v169zM238 511c0 -196 152 -350 349 -350c196 0 349 154 349 350c0 194 -154 352 -349 352c-196 0 -349 -157 -349 -352zM586 1129l-337 330l123 127l337 -330z
" />
    <glyph glyph-name="aacute" unicode="&#xe1;" horiz-adv-x="1217" 
d="M923 169c-81 -125 -204 -190 -353 -190c-296 0 -520 238 -520 531c0 486 619 736 873 343v171h188v-1024h-188v169zM238 511c0 -196 152 -350 349 -350c196 0 349 154 349 350c0 194 -154 352 -349 352c-196 0 -349 -157 -349 -352zM926 1459l-338 -330l-122 128l337 329
z" />
    <glyph glyph-name="acircumflex" unicode="&#xe2;" horiz-adv-x="1216" 
d="M923 169c-81 -125 -204 -190 -353 -190c-296 0 -520 238 -520 531c0 486 619 736 873 343v171h188v-1024h-188v169zM238 511c0 -196 152 -350 349 -350c196 0 349 154 349 350c0 194 -154 352 -349 352c-196 0 -349 -157 -349 -352zM932 1130h-209l-135 183l-136 -183
h-209l346 462z" />
    <glyph glyph-name="atilde" unicode="&#xe3;" horiz-adv-x="1217" 
d="M923 169c-81 -125 -204 -190 -353 -190c-296 0 -520 238 -520 531c0 486 619 736 873 343v171h188v-1024h-188v169zM238 511c0 -196 152 -350 349 -350c196 0 349 154 349 350c0 194 -154 352 -349 352c-196 0 -349 -157 -349 -352zM306 1370c40 40 90 48 144 48
c110 0 180 -99 271 -99c75 0 107 36 142 98v-237c-38 -36 -91 -49 -142 -49c-115 0 -175 97 -271 97c-75 0 -109 -35 -144 -97v239z" />
    <glyph glyph-name="adieresis" unicode="&#xe4;" horiz-adv-x="1216" 
d="M923 169c-81 -125 -204 -190 -353 -190c-296 0 -520 238 -520 531c0 486 619 736 873 343v171h188v-1024h-188v169zM238 511c0 -196 152 -350 349 -350c196 0 349 154 349 350c0 194 -154 352 -349 352c-196 0 -349 -157 -349 -352zM323 1351h220v-211h-220v211z
M629 1351h220v-211h-220v211z" />
    <glyph glyph-name="aring" unicode="&#xe5;" horiz-adv-x="1217" 
d="M923 169c-81 -125 -204 -190 -353 -190c-296 0 -520 238 -520 531c0 486 619 736 873 343v171h188v-1024h-188v169zM238 511c0 -196 152 -350 349 -350c196 0 349 154 349 350c0 194 -154 352 -349 352c-196 0 -349 -157 -349 -352zM313 1402c0 154 124 269 276 269
s281 -114 281 -269c0 -156 -128 -272 -281 -272c-152 0 -276 119 -276 272zM482 1400c0 -144 217 -145 217 0s-217 144 -217 0z" />
    <glyph glyph-name="ae" unicode="&#xe6;" horiz-adv-x="1752" 
d="M767 856c100 121 245 189 402 189c341 0 561 -298 519 -625h-845c35 -160 177 -262 338 -262c123 0 232 52 313 144l136 -121c-234 -266 -670 -281 -886 16c-63 -131 -199 -218 -345 -218c-462 0 -493 628 -5 628h248v15c0 157 -56 244 -218 244
c-92 0 -170 -32 -218 -114l-141 101c75 135 218 193 367 193c145 0 271 -53 335 -190zM844 597h650c-76 355 -588 348 -650 0zM643 443c-80 0 -161 -1 -241 -1c-90 0 -170 -47 -170 -145c0 -214 411 -221 411 146z" />
    <glyph glyph-name="ccedilla" unicode="&#xe7;" horiz-adv-x="1090" 
d="M1036 799l-153 -100c-184 298 -646 164 -646 -188c0 -355 464 -482 648 -184l150 -106c-99 -153 -266 -243 -448 -243c-7 0 -15 0 -22 1l-15 -60h48c285 0 287 -450 -25 -450c-110 0 -200 89 -220 194l171 29c8 -28 32 -53 63 -53c72 0 70 123 -4 123
c-79 0 -159 -16 -236 -29l65 272c-220 72 -362 274 -362 505c0 296 241 536 537 536c181 0 352 -93 449 -247z" />
    <glyph glyph-name="egrave" unicode="&#xe8;" horiz-adv-x="1157" 
d="M249 597h650c-76 355 -588 348 -650 0zM1035 181c-336 -381 -985 -197 -985 330c0 293 228 534 524 534c342 0 561 -298 519 -625h-845c35 -160 177 -262 338 -262c123 0 232 52 313 144zM572 1129l-337 330l123 127l337 -330z" />
    <glyph glyph-name="eacute" unicode="&#xe9;" horiz-adv-x="1157" 
d="M249 597h650c-76 355 -588 348 -650 0zM1035 181c-336 -381 -985 -197 -985 330c0 293 228 534 524 534c342 0 561 -298 519 -625h-845c35 -160 177 -262 338 -262c123 0 232 52 313 144zM912 1458l-338 -330l-122 128l337 329z" />
    <glyph glyph-name="ecircumflex" unicode="&#xea;" horiz-adv-x="1160" 
d="M249 597h650c-76 355 -588 348 -650 0zM1035 181c-336 -381 -985 -197 -985 330c0 293 228 534 524 534c342 0 561 -298 519 -625h-845c35 -160 177 -262 338 -262c123 0 232 52 313 144zM918 1130h-209l-135 183l-136 -183h-209l346 462z" />
    <glyph glyph-name="edieresis" unicode="&#xeb;" horiz-adv-x="1160" 
d="M249 597h650c-76 355 -588 348 -650 0zM1035 181c-336 -381 -985 -197 -985 330c0 293 228 534 524 534c342 0 561 -298 519 -625h-845c35 -160 177 -262 338 -262c123 0 232 52 313 144zM312 1350h220v-211h-220v211zM618 1350h220v-211h-220v211z" />
    <glyph glyph-name="igrave" unicode="&#xec;" horiz-adv-x="392" 
d="M99 0v1024h189v-1024h-189zM198 1099l-337 330l123 127l337 -330z" />
    <glyph glyph-name="iacute" unicode="&#xed;" horiz-adv-x="392" 
d="M99 0v1024h189v-1024h-189zM540 1428l-338 -330l-122 128l337 329z" />
    <glyph glyph-name="icircumflex" unicode="&#xee;" horiz-adv-x="392" 
d="M98 0v1024h189v-1024h-189zM537 1100h-209l-135 183l-136 -183h-209l346 462z" />
    <glyph glyph-name="idieresis" unicode="&#xef;" horiz-adv-x="393" 
d="M99 0v1024h189v-1024h-189zM-68 1320h220v-211h-220v211zM238 1320h220v-211h-220v211z" />
    <glyph glyph-name="eth" unicode="&#xf0;" horiz-adv-x="1148" 
d="M290 985l-107 93l143 162c-69 11 -138 15 -208 15v186c118 1 236 -11 350 -39l158 180l107 -95l-117 -132c338 -138 485 -416 485 -774c0 -316 -180 -600 -521 -600c-286 0 -515 229 -515 515c0 290 228 505 515 505c114 0 228 -49 306 -132c-60 175 -235 283 -403 335z
M580 165c180 0 324 154 324 332c0 181 -141 330 -324 330c-182 0 -324 -149 -324 -330c0 -180 141 -332 324 -332z" />
    <glyph glyph-name="ntilde" unicode="&#xf1;" horiz-adv-x="1089" 
d="M297 1024v-182c56 137 170 203 316 203c273 0 381 -224 381 -468v-577h-189v575c0 164 -77 288 -254 288c-172 0 -254 -127 -254 -288v-575h-188v1024h188zM303 1370c40 40 90 48 144 48c110 0 180 -99 271 -99c75 0 107 36 142 98v-237c-38 -36 -91 -49 -142 -49
c-115 0 -175 97 -271 97c-75 0 -109 -35 -144 -97v239z" />
    <glyph glyph-name="ograve" unicode="&#xf2;" horiz-adv-x="1174" 
d="M587 -22c-300 0 -537 231 -537 532c0 296 241 536 537 536c297 0 537 -239 537 -536c0 -300 -239 -532 -537 -532zM237 511c0 -197 153 -350 350 -350c196 0 349 154 349 350c0 194 -154 352 -349 352c-196 0 -350 -156 -350 -352zM586 1130l-337 330l123 127l337 -330z
" />
    <glyph glyph-name="oacute" unicode="&#xf3;" horiz-adv-x="1174" 
d="M587 -22c-300 0 -537 231 -537 532c0 296 241 536 537 536c297 0 537 -239 537 -536c0 -300 -239 -532 -537 -532zM237 511c0 -197 153 -350 350 -350c196 0 349 154 349 350c0 194 -154 352 -349 352c-196 0 -350 -156 -350 -352zM924 1459l-338 -330l-122 128l337 329z
" />
    <glyph glyph-name="ocircumflex" unicode="&#xf4;" horiz-adv-x="1174" 
d="M587 -22c-300 0 -537 231 -537 532c0 296 241 536 537 536c297 0 537 -239 537 -536c0 -300 -239 -532 -537 -532zM237 511c0 -197 153 -350 350 -350c196 0 349 154 349 350c0 194 -154 352 -349 352c-196 0 -350 -156 -350 -352zM931 1130h-209l-135 183l-136 -183
h-209l346 462z" />
    <glyph glyph-name="otilde" unicode="&#xf5;" horiz-adv-x="1174" 
d="M587 -22c-300 0 -537 231 -537 532c0 296 241 536 537 536c297 0 537 -239 537 -536c0 -300 -239 -532 -537 -532zM237 511c0 -197 153 -350 350 -350c196 0 349 154 349 350c0 194 -154 352 -349 352c-196 0 -350 -156 -350 -352zM307 1370c40 40 90 48 144 48
c110 0 180 -99 271 -99c75 0 107 36 142 98v-237c-38 -36 -91 -49 -142 -49c-115 0 -175 97 -271 97c-75 0 -109 -35 -144 -97v239z" />
    <glyph glyph-name="odieresis" unicode="&#xf6;" horiz-adv-x="1174" 
d="M587 -22c-300 0 -537 231 -537 532c0 296 241 536 537 536c297 0 537 -239 537 -536c0 -300 -239 -532 -537 -532zM237 511c0 -197 153 -350 350 -350c196 0 349 154 349 350c0 194 -154 352 -349 352c-196 0 -350 -156 -350 -352zM324 1351h220v-211h-220v211zM630 1351
h220v-211h-220v211z" />
    <glyph glyph-name="divide" unicode="&#xf7;" horiz-adv-x="888" 
d="M569 1020c0 -64 -55 -120 -119 -120c-66 0 -120 54 -120 120c0 158 239 158 239 0zM569 410c0 -64 -55 -120 -119 -120c-66 0 -120 54 -120 120c0 158 239 158 239 0zM796 621h-694v190h694v-190z" />
    <glyph glyph-name="oslash" unicode="&#xf8;" horiz-adv-x="1174" 
d="M847 979c171 -94 277 -274 277 -469c0 -300 -239 -532 -537 -532c-38 0 -77 4 -114 12l-33 -90h-166l53 142c-174 93 -277 271 -277 468c0 296 241 536 537 536c39 0 77 -5 115 -13l36 96h166zM636 859c-378 50 -547 -444 -243 -642zM539 164c375 -47 544 437 242 640z
" />
    <glyph glyph-name="ugrave" unicode="&#xf9;" horiz-adv-x="1035" 
d="M280 1024v-622c0 -131 105 -240 237 -240c133 0 238 108 238 240v622h188v-622c0 -236 -190 -424 -426 -424s-426 187 -426 424v622h189zM516 1099l-337 330l123 127l337 -330z" />
    <glyph glyph-name="uacute" unicode="&#xfa;" horiz-adv-x="1035" 
d="M280 1024v-622c0 -131 105 -240 237 -240c133 0 238 108 238 240v622h188v-622c0 -236 -190 -424 -426 -424s-426 187 -426 424v622h189zM854 1429l-338 -330l-122 128l337 329z" />
    <glyph glyph-name="ucircumflex" unicode="&#xfb;" horiz-adv-x="1035" 
d="M280 1024v-622c0 -131 105 -240 237 -240c133 0 238 108 238 240v622h188v-622c0 -236 -190 -424 -426 -424s-426 187 -426 424v622h189zM858 1102h-209l-135 183l-136 -183h-209l346 462z" />
    <glyph glyph-name="udieresis" unicode="&#xfc;" horiz-adv-x="1034" 
d="M280 1024v-622c0 -131 105 -240 237 -240c133 0 238 108 238 240v622h188v-622c0 -236 -190 -424 -426 -424s-426 187 -426 424v622h189zM251 1322h220v-211h-220v211zM557 1322h220v-211h-220v211z" />
    <glyph glyph-name="yacute" unicode="&#xfd;" horiz-adv-x="1069" 
d="M855 1024h204l-599 -1443h-203l201 490l-417 953h206l311 -729zM893 1428l-338 -330l-122 128l337 329z" />
    <glyph glyph-name="thorn" unicode="&#xfe;" horiz-adv-x="1229" 
d="M306 855c81 124 204 190 353 190c296 0 520 -238 520 -531c0 -488 -623 -735 -873 -343v-590h-188v1853h188v-579zM991 513c0 196 -152 350 -349 350c-196 0 -349 -154 -349 -350c0 -194 154 -352 349 -352c196 0 349 157 349 352z" />
    <glyph glyph-name="ydieresis" unicode="&#xff;" horiz-adv-x="1043" 
d="M829 1024h204l-599 -1443h-203l201 490l-417 953h206l311 -729zM266 1321h220v-211h-220v211zM572 1321h220v-211h-220v211z" />
    <glyph glyph-name="Amacron" unicode="&#x100;" horiz-adv-x="1432" 
d="M629 1434h174l604 -1434h-213l-170 399h-616l-171 -399h-212zM717 1154l-239 -575h476zM439 1709h544v-191h-544v191z" />
    <glyph glyph-name="amacron" unicode="&#x101;" horiz-adv-x="1217" 
d="M923 169c-81 -125 -204 -190 -353 -190c-296 0 -520 238 -520 531c0 486 619 736 873 343v171h188v-1024h-188v169zM238 511c0 -196 152 -350 349 -350c196 0 349 154 349 350c0 194 -154 352 -349 352c-196 0 -349 -157 -349 -352zM317 1341h544v-191h-544v191z" />
    <glyph glyph-name="Abreve" unicode="&#x102;" horiz-adv-x="1432" 
d="M629 1434h174l604 -1434h-213l-170 399h-616l-171 -399h-212zM717 1154l-239 -575h476zM366 1897h184c0 -109 37 -218 164 -218c124 0 163 112 163 218h186c0 -215 -118 -399 -349 -399s-348 185 -348 399z" />
    <glyph glyph-name="abreve" unicode="&#x103;" horiz-adv-x="1217" 
d="M923 169c-81 -125 -204 -190 -353 -190c-296 0 -520 238 -520 531c0 486 619 736 873 343v171h188v-1024h-188v169zM238 511c0 -196 152 -350 349 -350c196 0 349 154 349 350c0 194 -154 352 -349 352c-196 0 -349 -157 -349 -352zM244 1526h184
c0 -109 37 -218 164 -218c124 0 163 112 163 218h186c0 -215 -118 -399 -349 -399s-348 185 -348 399z" />
    <glyph glyph-name="Aogonek" unicode="&#x104;" horiz-adv-x="1432" 
d="M629 1434h174l604 -1434c-81 -43 -275 -169 -275 -270c0 -97 157 -109 146 40l175 18c18 -166 -86 -303 -258 -303c-130 0 -241 106 -241 237c0 141 112 252 216 333l-146 344h-616l-171 -399h-212zM717 1154l-239 -575h476z" />
    <glyph glyph-name="aogonek" unicode="&#x105;" horiz-adv-x="1209" 
d="M923 169c-81 -125 -204 -190 -353 -190c-296 0 -520 238 -520 531c0 485 618 737 873 343v171h188v-1024h-3c-81 -43 -275 -169 -275 -270c0 -98 158 -108 146 40l175 18c18 -166 -86 -303 -258 -303c-130 0 -241 106 -241 237c0 162 148 285 268 372v75zM238 511
c0 -196 152 -350 349 -350c196 0 349 154 349 350c0 194 -154 352 -349 352c-196 0 -349 -157 -349 -352z" />
    <glyph glyph-name="Cacute" unicode="&#x106;" horiz-adv-x="1464" 
d="M1409 266c-142 -179 -365 -300 -596 -300c-424 0 -752 328 -752 752c0 422 330 750 752 750c231 0 418 -95 569 -267l-145 -130c-107 124 -258 206 -424 206c-306 0 -556 -253 -556 -559c0 -321 234 -561 556 -561c173 0 339 98 444 232zM1139 1873l-338 -330l-122 128
l337 329z" />
    <glyph glyph-name="cacute" unicode="&#x107;" horiz-adv-x="1087" 
d="M1036 799l-153 -100c-184 298 -646 164 -646 -188c0 -355 464 -482 648 -184l150 -106c-285 -441 -985 -245 -985 289c0 296 241 536 537 536c181 0 352 -93 449 -247zM925 1458l-338 -330l-122 128l337 329z" />
    <glyph glyph-name="Ccircumflex" unicode="&#x108;" horiz-adv-x="1465" 
d="M1409 266c-142 -179 -365 -300 -596 -300c-424 0 -752 328 -752 752c0 422 330 750 752 750c231 0 418 -95 569 -267l-145 -130c-107 124 -258 206 -424 206c-306 0 -556 -253 -556 -559c0 -321 234 -561 556 -561c173 0 339 98 444 232zM1143 1545h-209l-135 183
l-136 -183h-209l346 462z" />
    <glyph glyph-name="ccircumflex" unicode="&#x109;" horiz-adv-x="1089" 
d="M1036 799l-153 -100c-184 298 -646 164 -646 -188c0 -355 464 -482 648 -184l150 -106c-285 -441 -985 -245 -985 289c0 296 241 536 537 536c181 0 352 -93 449 -247zM931 1130h-209l-135 183l-136 -183h-209l346 462z" />
    <glyph glyph-name="Cdotaccent" unicode="&#x10a;" horiz-adv-x="1464" 
d="M1409 266c-142 -179 -365 -300 -596 -300c-424 0 -752 328 -752 752c0 422 330 750 752 750c231 0 418 -95 569 -267l-145 -130c-107 124 -258 206 -424 206c-306 0 -556 -253 -556 -559c0 -321 234 -561 556 -561c173 0 339 98 444 232zM687 1812h231v-219h-231v219z
" />
    <glyph glyph-name="cdotaccent" unicode="&#x10b;" horiz-adv-x="1090" 
d="M1036 799l-153 -100c-184 298 -646 164 -646 -188c0 -355 464 -482 648 -184l150 -106c-285 -441 -985 -245 -985 289c0 296 241 536 537 536c181 0 352 -93 449 -247zM471 1397h231v-219h-231v219z" />
    <glyph glyph-name="Ccaron" unicode="&#x10c;" horiz-adv-x="1464" 
d="M1409 266c-142 -179 -365 -300 -596 -300c-424 0 -752 328 -752 752c0 422 330 750 752 750c231 0 418 -95 569 -267l-145 -130c-107 124 -258 206 -424 206c-306 0 -556 -253 -556 -559c0 -321 234 -561 556 -561c173 0 339 98 444 232zM932 2003h211l-342 -459
l-347 461l211 1l136 -183z" />
    <glyph glyph-name="ccaron" unicode="&#x10d;" horiz-adv-x="1088" 
d="M1036 799l-153 -100c-184 298 -646 164 -646 -188c0 -355 464 -482 648 -184l150 -106c-285 -441 -985 -245 -985 289c0 296 241 536 537 536c181 0 352 -93 449 -247zM719 1589h211l-342 -459l-347 461l211 1l136 -183z" />
    <glyph glyph-name="Dcaron" unicode="&#x10e;" horiz-adv-x="1409" 
d="M306 191h287c306 0 562 208 562 526c0 316 -257 526 -562 526h-287v-1052zM110 1434h483c413 0 758 -291 758 -717c0 -427 -344 -716 -758 -716c-161 0 -322 -1 -483 -1v1434zM709 1959h211l-342 -459l-347 461l211 1l136 -183z" />
    <glyph glyph-name="dcaron" unicode="&#x10f;" horiz-adv-x="1397" 
d="M1208 961v558h190v-558h-190zM923 169c-81 -125 -204 -190 -353 -190c-296 0 -520 238 -520 531c0 486 619 736 873 343v581h188v-1434h-188v169zM238 511c0 -196 152 -350 349 -350c196 0 349 154 349 350c0 194 -154 352 -349 352c-196 0 -349 -157 -349 -352z" />
    <glyph glyph-name="Dcroat" unicode="&#x110;" horiz-adv-x="1465" 
d="M0 837h165v597h483c413 0 758 -291 758 -717c0 -427 -344 -716 -758 -716c-161 0 -322 -1 -483 -1v646h-165v191zM361 191h287c306 0 562 208 562 526c0 316 -257 526 -562 526h-287v-406h183v-191h-183v-455z" />
    <glyph glyph-name="dcroat" unicode="&#x111;" horiz-adv-x="1239" 
d="M651 1311h272v123h188v-123h146v-180h-146v-1131h-188v169c-81 -125 -204 -190 -353 -190c-296 0 -520 238 -520 531c0 486 619 736 873 343v278h-272v180zM238 511c0 -196 152 -350 349 -350c196 0 349 154 349 350c0 194 -154 352 -349 352c-196 0 -349 -157 -349 -352
z" />
    <glyph glyph-name="Emacron" unicode="&#x112;" horiz-adv-x="1114" 
d="M110 1434h972v-192l-775 1v-401h600v-191h-600v-458h775v-193h-972v1434zM317 1713h544v-191h-544v191z" />
    <glyph glyph-name="emacron" unicode="&#x113;" horiz-adv-x="1164" 
d="M249 597h650c-76 355 -588 348 -650 0zM1035 181c-336 -381 -985 -197 -985 330c0 293 228 534 524 534c342 0 561 -298 519 -625h-845c35 -160 177 -262 338 -262c123 0 232 52 313 144zM299 1340h544v-191h-544v191z" />
    <glyph glyph-name="Ebreve" unicode="&#x114;" horiz-adv-x="1114" 
d="M110 1434h972v-192l-775 1v-401h600v-191h-600v-458h775v-193h-972v1434zM242 1898h184c0 -109 37 -218 164 -218c124 0 163 112 163 218h186c0 -215 -118 -399 -349 -399s-348 185 -348 399z" />
    <glyph glyph-name="ebreve" unicode="&#x115;" horiz-adv-x="1164" 
d="M249 597h650c-76 355 -588 348 -650 0zM1035 181c-336 -381 -985 -197 -985 330c0 293 228 534 524 534c342 0 561 -298 519 -625h-845c35 -160 177 -262 338 -262c123 0 232 52 313 144zM226 1527h184c0 -109 37 -218 164 -218c124 0 163 112 163 218h186
c0 -215 -118 -399 -349 -399s-348 185 -348 399z" />
    <glyph glyph-name="Edotaccent" unicode="&#x116;" horiz-adv-x="1114" 
d="M110 1434h972v-192l-775 1v-401h600v-191h-600v-458h775v-193h-972v1434zM475 1767h231v-219h-231v219z" />
    <glyph glyph-name="edotaccent" unicode="&#x117;" horiz-adv-x="1164" 
d="M249 597h650c-76 355 -588 348 -650 0zM1035 181c-336 -381 -985 -197 -985 330c0 293 228 534 524 534c342 0 561 -298 519 -625h-845c35 -160 177 -262 338 -262c123 0 232 52 313 144zM458 1398h231v-219h-231v219z" />
    <glyph glyph-name="Eogonek" unicode="&#x118;" horiz-adv-x="1114" 
d="M110 1434h972v-192l-775 1v-401h600v-191h-600v-458h775v-193h-362c-66 -42 -210 -145 -210 -232c0 -38 28 -72 67 -72c65 0 83 57 79 112l175 18c18 -166 -86 -303 -258 -303c-130 0 -241 106 -241 237c0 93 49 175 112 240h-334v1434z" />
    <glyph glyph-name="eogonek" unicode="&#x119;" horiz-adv-x="1162" 
d="M507 -16c-268 37 -457 256 -457 527c0 293 228 534 524 534c341 0 561 -298 519 -625h-845c35 -160 177 -262 338 -262c123 0 232 52 313 144l136 -121c-52 -59 -112 -103 -181 -141c-76 -43 -253 -160 -253 -257s157 -108 146 40l175 18c18 -166 -86 -303 -258 -303
c-130 0 -241 106 -241 237c0 79 35 149 84 209zM249 597h650c-76 355 -588 348 -650 0z" />
    <glyph glyph-name="Ecaron" unicode="&#x11a;" horiz-adv-x="1128" 
d="M110 1434h972v-192l-775 1v-401h600v-191h-600v-458h775v-193h-972v1434zM723 1961h211l-342 -459l-347 461l211 1l136 -183z" />
    <glyph glyph-name="ecaron" unicode="&#x11b;" horiz-adv-x="1161" 
d="M249 597h650c-76 355 -588 348 -650 0zM1035 181c-336 -381 -985 -197 -985 330c0 293 228 534 524 534c342 0 561 -298 519 -625h-845c35 -160 177 -262 338 -262c123 0 232 52 313 144zM705 1587h211l-342 -459l-347 461l211 1l136 -183z" />
    <glyph glyph-name="Gcircumflex" unicode="&#x11c;" horiz-adv-x="1456" 
d="M1178 308v285h-395v188h588v-555c-142 -150 -350 -260 -559 -260c-424 0 -752 328 -752 752c0 422 330 750 752 750c228 0 422 -99 567 -274l-146 -126c-105 125 -255 209 -421 209c-306 0 -556 -253 -556 -559c0 -321 234 -561 556 -561c132 0 268 64 366 151z
M1153 1551h-209l-135 183l-136 -183h-209l346 462z" />
    <glyph glyph-name="gcircumflex" unicode="&#x11d;" horiz-adv-x="1204" 
d="M923 169c-81 -125 -204 -190 -353 -190c-296 0 -520 238 -520 531c0 486 619 736 873 343v171h188v-907c0 -337 -173 -558 -523 -558c-225 0 -411 116 -510 318l169 82c62 -139 190 -218 341 -218c240 0 332 153 335 376v52zM238 511c0 -196 152 -350 349 -350
c196 0 349 154 349 350c0 194 -154 352 -349 352c-196 0 -349 -157 -349 -352zM932 1130h-209l-135 183l-136 -183h-209l346 462z" />
    <glyph glyph-name="Gbreve" unicode="&#x11e;" horiz-adv-x="1456" 
d="M1178 308v285h-395v188h588v-555c-142 -150 -350 -260 -559 -260c-424 0 -752 328 -752 752c0 422 330 750 752 750c228 0 422 -99 567 -274l-146 -126c-105 125 -255 209 -421 209c-306 0 -556 -253 -556 -559c0 -321 234 -561 556 -561c132 0 268 64 366 151zM463 1949
h184c0 -109 37 -218 164 -218c124 0 163 112 163 218h186c0 -215 -118 -399 -349 -399s-348 185 -348 399z" />
    <glyph glyph-name="gbreve" unicode="&#x11f;" horiz-adv-x="1204" 
d="M923 169c-81 -125 -204 -190 -353 -190c-296 0 -520 238 -520 531c0 486 619 736 873 343v171h188v-907c0 -337 -173 -558 -523 -558c-225 0 -411 116 -510 318l169 82c62 -139 190 -218 341 -218c240 0 332 153 335 376v52zM238 511c0 -196 152 -350 349 -350
c196 0 349 154 349 350c0 194 -154 352 -349 352c-196 0 -349 -157 -349 -352zM237 1528h184c0 -109 37 -218 164 -218c124 0 163 112 163 218h186c0 -215 -118 -399 -349 -399s-348 185 -348 399z" />
    <glyph glyph-name="Gdotaccent" unicode="&#x120;" horiz-adv-x="1456" 
d="M1178 308v285h-395v188h588v-555c-142 -150 -350 -260 -559 -260c-424 0 -752 328 -752 752c0 422 330 750 752 750c228 0 422 -99 567 -274l-146 -126c-105 125 -255 209 -421 209c-306 0 -556 -253 -556 -559c0 -321 234 -561 556 -561c132 0 268 64 366 151zM697 1817
h231v-219h-231v219z" />
    <glyph glyph-name="gdotaccent" unicode="&#x121;" horiz-adv-x="1204" 
d="M923 169c-81 -125 -204 -190 -353 -190c-296 0 -520 238 -520 531c0 486 619 736 873 343v171h188v-907c0 -337 -173 -558 -523 -558c-225 0 -411 116 -510 318l169 82c62 -139 190 -218 341 -218c240 0 332 153 335 376v52zM238 511c0 -196 152 -350 349 -350
c196 0 349 154 349 350c0 194 -154 352 -349 352c-196 0 -349 -157 -349 -352zM468 1396h231v-219h-231v219z" />
    <glyph glyph-name="Gcommaaccent" unicode="&#x122;" horiz-adv-x="1456" 
d="M1178 308v285h-395v188h588v-555c-142 -150 -350 -260 -559 -260c-424 0 -752 328 -752 752c0 422 330 750 752 750c228 0 422 -99 567 -274l-146 -126c-105 125 -255 209 -421 209c-306 0 -556 -253 -556 -559c0 -321 234 -561 556 -561c132 0 268 64 366 151zM714 -506
v410h210l-61 -410h-149z" />
    <glyph glyph-name="gcommaaccent" unicode="&#x123;" horiz-adv-x="1223" 
d="M942 169c-81 -125 -204 -190 -353 -190c-296 0 -520 238 -520 531c0 486 619 736 873 343v171h188v-907c0 -337 -173 -558 -523 -558c-225 0 -411 116 -510 318l169 82c62 -139 190 -218 341 -218c240 0 332 153 335 376v52zM257 511c0 -196 152 -350 349 -350
c196 0 349 154 349 350c0 194 -154 352 -349 352c-196 0 -349 -157 -349 -352zM723 1540v-410h-210l61 410h149z" />
    <glyph glyph-name="Hcircumflex" unicode="&#x124;" horiz-adv-x="1364" 
d="M110 1434h197v-611h749v611h198v-1434h-198v631h-749v-631h-197v1434zM1030 1465h-209l-135 183l-136 -183h-209l346 462z" />
    <glyph glyph-name="hcircumflex" unicode="&#x125;" horiz-adv-x="1083" 
d="M297 1434v-592c56 137 170 203 316 203c273 0 381 -224 381 -468v-577h-189v575c0 164 -77 288 -254 288c-172 0 -254 -127 -254 -288v-575h-188v1434h188zM932 1106h-177l-114 158l-115 -158h-176l292 399z" />
    <glyph glyph-name="Hbar" unicode="&#x126;" horiz-adv-x="1365" 
d="M-72 1223h183v211h197v-211h749v211h198v-211h189v-173h-189v-1050h-198v631h-749v-631h-197v1050h-183v173zM308 823h749v227h-749v-227z" />
    <glyph glyph-name="hbar" unicode="&#x127;" horiz-adv-x="1084" 
d="M-4 1366h113v68h188v-68h251v-173h-251v-351c56 137 170 203 316 203c273 0 381 -224 381 -468v-577h-189v575c0 164 -77 288 -254 288c-172 0 -254 -127 -254 -288v-575h-188v1193h-113v173z" />
    <glyph glyph-name="Itilde" unicode="&#x128;" horiz-adv-x="423" 
d="M110 0v1434h197v-1434h-197zM-70 1740c40 40 90 48 144 48c110 0 180 -99 271 -99c75 0 107 36 142 98v-237c-38 -36 -91 -49 -142 -49c-115 0 -175 97 -271 97c-75 0 -109 -35 -144 -97v239z" />
    <glyph glyph-name="itilde" unicode="&#x129;" horiz-adv-x="392" 
d="M99 0v1024h189v-1024h-189zM-84 1340c40 40 90 48 144 48c110 0 180 -99 271 -99c75 0 107 36 142 98v-237c-38 -36 -91 -49 -142 -49c-115 0 -175 97 -271 97c-75 0 -109 -35 -144 -97v239z" />
    <glyph glyph-name="Imacron" unicode="&#x12a;" horiz-adv-x="424" 
d="M111 0v1434h197v-1434h-197zM-65 1710h544v-191h-544v191z" />
    <glyph glyph-name="imacron" unicode="&#x12b;" horiz-adv-x="387" 
d="M99 0v1024h189v-1024h-189zM-79 1309h544v-191h-544v191z" />
    <glyph glyph-name="Ibreve" unicode="&#x12c;" horiz-adv-x="413" 
d="M105 0v1434h197v-1434h-197zM-143 1899h184c0 -109 37 -218 164 -218c124 0 163 112 163 218h186c0 -215 -118 -399 -349 -399s-348 185 -348 399z" />
    <glyph glyph-name="ibreve" unicode="&#x12d;" horiz-adv-x="395" 
d="M102 0v1024h189v-1024h-189zM-149 1499h184c0 -109 37 -218 164 -218c124 0 163 112 163 218h186c0 -215 -118 -399 -349 -399s-348 185 -348 399z" />
    <glyph glyph-name="Iogonek" unicode="&#x12e;" horiz-adv-x="423" 
d="M308 1434v-1434h1c-81 -43 -275 -169 -275 -270c0 -97 157 -109 146 40l175 18c18 -166 -86 -303 -258 -303c-130 0 -241 106 -241 237c0 157 139 276 255 362v1350h197z" />
    <glyph glyph-name="iogonek" unicode="&#x12f;" horiz-adv-x="393" 
d="M286 0h-5c-81 -43 -275 -169 -275 -270c0 -97 157 -109 146 40l175 18c18 -166 -86 -303 -258 -303c-130 0 -241 106 -241 237c0 162 149 285 269 372v930h189v-1024zM97 1207v227h189v-227h-189z" />
    <glyph glyph-name="Idotaccent" unicode="&#x130;" horiz-adv-x="441" 
d="M118 0v1434h197v-1434h-197zM102 1768h231v-219h-231v219z" />
    <glyph glyph-name="dotlessi" unicode="&#x131;" horiz-adv-x="393" 
d="M99 0v1024h189v-1024h-189z" />
    <glyph glyph-name="IJ" unicode="&#x132;" horiz-adv-x="1133" 
d="M110 0v1434h197v-1434h-197zM1030 1434v-1092c0 -207 -120 -364 -337 -364c-164 0 -287 98 -322 257l185 75c8 -79 53 -140 138 -140c102 0 139 82 139 172v1092h197z" />
    <glyph glyph-name="ij" unicode="&#x133;" horiz-adv-x="779" 
d="M104 0v1024h189v-1024h-189zM104 1207v227h189v-227h-189zM492 -419v1443h189v-1443h-189zM492 1207v227h189v-227h-189z" />
    <glyph glyph-name="Jcircumflex" unicode="&#x134;" horiz-adv-x="777" 
d="M659 1434v-1092c0 -207 -120 -364 -337 -364c-164 0 -287 98 -322 257l185 75c8 -79 53 -140 138 -140c102 0 139 82 139 172v1092h197zM903 1500h-209l-135 183l-136 -183h-209l346 462z" />
    <glyph glyph-name="jcircumflex" unicode="&#x135;" horiz-adv-x="394" 
d="M102 -419v1443h190v-1443h-190zM541 1099h-209l-135 183l-136 -183h-209l346 462z" />
    <glyph glyph-name="Kcommaaccent" unicode="&#x136;" horiz-adv-x="1316" 
d="M110 1434h193v-574h114l546 574h267l-640 -668l716 -766h-262l-628 668h-113v-668h-193v1434zM512 -407v410h210l-61 -410h-149z" />
    <glyph glyph-name="kcommaaccent" unicode="&#x137;" horiz-adv-x="1051" 
d="M110 1434h190v-815h95l349 405h245l-425 -499l479 -525h-252l-396 429h-95v-429h-190v1434zM395 -425v410h210l-61 -410h-149z" />
    <glyph glyph-name="kgreenlandic" unicode="&#x138;" horiz-adv-x="1059" 
d="M110 1024h190v-405h95l359 405h251l-441 -499l495 -525h-258l-406 429h-95v-429h-190v1024z" />
    <glyph glyph-name="Lacute" unicode="&#x139;" horiz-adv-x="940" 
d="M110 1434h196v-1242h634v-192h-830v1434zM631 1829l-338 -330l-122 128l337 329z" />
    <glyph glyph-name="lacute" unicode="&#x13a;" horiz-adv-x="403" 
d="M106 0v1434h188v-1434h-188zM540 1829l-338 -330l-122 128l337 329z" />
    <glyph glyph-name="Lcommaaccent" unicode="&#x13b;" horiz-adv-x="940" 
d="M110 1434h196v-1242h634v-192h-830v1434zM435 -505v410h210l-61 -410h-149z" />
    <glyph glyph-name="lcommaaccent" unicode="&#x13c;" horiz-adv-x="406" 
d="M108 0v1434h188v-1434h-188zM100 -510v410h210l-61 -410h-149z" />
    <glyph glyph-name="Lcaron" unicode="&#x13d;" horiz-adv-x="940" 
d="M411 961v558h194v-558h-194zM110 1434h196v-1242h634v-192h-830v1434z" />
    <glyph glyph-name="lcaron" unicode="&#x13e;" horiz-adv-x="587" 
d="M392 961v558h194v-558h-194zM110 0v1434h188v-1434h-188z" />
    <glyph glyph-name="Ldot" unicode="&#x13f;" horiz-adv-x="940" 
d="M453 749h226v-224h-226v224zM110 1434h196v-1242h634v-192h-830v1434z" />
    <glyph glyph-name="ldot" unicode="&#x140;" horiz-adv-x="629" 
d="M403 810h226v-224h-226v224zM111 0v1434h188v-1434h-188z" />
    <glyph glyph-name="Lslash" unicode="&#x141;" horiz-adv-x="967" 
d="M137 1434h196v-596l200 201v-230l-200 -200v-417h634v-192h-830v413l-137 -137v229l137 137v792z" />
    <glyph glyph-name="lslash" unicode="&#x142;" horiz-adv-x="409" 
d="M0 477v229l111 111v617h188v-428l110 110v-230l-110 -110v-776h-188v588z" />
    <glyph glyph-name="Nacute" unicode="&#x143;" horiz-adv-x="1421" 
d="M110 1434h172l831 -1081v1081h196v-1434h-172l-831 1081v-1081h-196v1434zM1049 1827l-338 -330l-122 128l337 329z" />
    <glyph glyph-name="nacute" unicode="&#x144;" horiz-adv-x="1088" 
d="M297 1024v-182c56 137 170 203 316 203c273 0 381 -224 381 -468v-577h-189v575c0 164 -77 288 -254 288c-172 0 -254 -127 -254 -288v-575h-188v1024h188zM927 1458l-338 -330l-122 128l337 329z" />
    <glyph glyph-name="Ncommaaccent" unicode="&#x145;" horiz-adv-x="1418" 
d="M110 1434h172l831 -1081v1081h196v-1434h-172l-831 1081v-1081h-196v1434zM586 -408v410h210l-61 -410h-149z" />
    <glyph glyph-name="ncommaaccent" unicode="&#x146;" horiz-adv-x="1089" 
d="M297 1024v-182c56 137 170 203 316 203c273 0 381 -224 381 -468v-577h-189v575c0 164 -77 288 -254 288c-172 0 -254 -127 -254 -288v-575h-188v1024h188zM445 -427v410h210l-61 -410h-149z" />
    <glyph glyph-name="Ncaron" unicode="&#x147;" horiz-adv-x="1421" 
d="M110 1434h172l831 -1081v1081h196v-1434h-172l-831 1081v-1081h-196v1434zM839 1958h211l-342 -459l-347 461l211 1l136 -183z" />
    <glyph glyph-name="ncaron" unicode="&#x148;" horiz-adv-x="1088" 
d="M297 1024v-182c56 137 170 203 316 203c273 0 381 -224 381 -468v-577h-189v575c0 164 -77 288 -254 288c-172 0 -254 -127 -254 -288v-575h-188v1024h188zM716 1588h211l-342 -459l-347 461l211 1l136 -183z" />
    <glyph glyph-name="napostrophe" unicode="&#x149;" horiz-adv-x="1249" 
d="M458 1024v-182c56 137 170 203 316 203c273 0 381 -224 381 -468v-577h-189v575c0 164 -77 288 -254 288c-172 0 -254 -127 -254 -288v-575h-188v1024h188zM175 614v410h-210l61 -410h149z" />
    <glyph glyph-name="Eng" unicode="&#x14a;" horiz-adv-x="1417" 
d="M1115 32l-808 1052v-1084h-197v1435h172l832 -1085v1084h197v-1361c0 -258 -123 -423 -391 -423c-32 0 -67 4 -98 13v192c152 -41 293 -8 293 177z" />
    <glyph glyph-name="eng" unicode="&#x14b;" horiz-adv-x="1082" 
d="M297 1024v-182c56 137 170 203 316 203c273 0 381 -224 381 -468v-416c0 -249 -121 -444 -391 -438c-27 1 -55 3 -82 6v183c27 -2 56 -5 83 -5c150 -1 201 122 201 254v414c0 164 -77 288 -254 288c-172 0 -254 -127 -254 -288v-575h-188v1024h188z" />
    <glyph glyph-name="Omacron" unicode="&#x14c;" 
d="M820 156c310 0 558 249 558 559s-247 561 -558 561s-559 -250 -559 -561c0 -310 249 -559 559 -559zM1575 715c0 -418 -339 -749 -755 -749s-755 331 -755 749c0 417 339 753 755 753s755 -336 755 -753zM546 1760h544v-191h-544v191z" />
    <glyph glyph-name="omacron" unicode="&#x14d;" horiz-adv-x="1174" 
d="M587 -22c-300 0 -537 231 -537 532c0 296 241 536 537 536c297 0 537 -239 537 -536c0 -300 -239 -532 -537 -532zM237 511c0 -197 153 -350 350 -350c196 0 349 154 349 350c0 194 -154 352 -349 352c-196 0 -350 -156 -350 -352zM312 1338h544v-191h-544v191z" />
    <glyph glyph-name="Obreve" unicode="&#x14e;" 
d="M820 156c310 0 558 249 558 559s-247 561 -558 561s-559 -250 -559 -561c0 -310 249 -559 559 -559zM1575 715c0 -418 -339 -749 -755 -749s-755 331 -755 749c0 417 339 753 755 753s755 -336 755 -753zM471 1948h184c0 -109 37 -218 164 -218c124 0 163 112 163 218
h186c0 -215 -118 -399 -349 -399s-348 185 -348 399z" />
    <glyph glyph-name="obreve" unicode="&#x14f;" horiz-adv-x="1174" 
d="M587 -22c-300 0 -537 231 -537 532c0 296 241 536 537 536c297 0 537 -239 537 -536c0 -300 -239 -532 -537 -532zM237 511c0 -197 153 -350 350 -350c196 0 349 154 349 350c0 194 -154 352 -349 352c-196 0 -350 -156 -350 -352zM240 1528h184c0 -109 37 -218 164 -218
c124 0 163 112 163 218h186c0 -215 -118 -399 -349 -399s-348 185 -348 399z" />
    <glyph glyph-name="Ohungarumlaut" unicode="&#x150;" 
d="M820 156c310 0 558 249 558 559s-247 561 -558 561s-559 -250 -559 -561c0 -310 249 -559 559 -559zM1575 715c0 -418 -339 -749 -755 -749s-755 331 -755 749c0 417 339 753 755 753s755 -336 755 -753zM1004 1915l-397 -365l-136 141l396 365zM1421 1915l-397 -365
l-136 141l396 365z" />
    <glyph glyph-name="ohungarumlaut" unicode="&#x151;" horiz-adv-x="1243" 
d="M587 -22c-300 0 -537 231 -537 532c0 296 241 536 537 536c297 0 537 -239 537 -536c0 -300 -239 -532 -537 -532zM237 511c0 -197 153 -350 350 -350c196 0 349 154 349 350c0 194 -154 352 -349 352c-196 0 -350 -156 -350 -352zM776 1493l-397 -365l-136 141l396 365z
M1193 1493l-397 -365l-136 141l396 365z" />
    <glyph glyph-name="OE" unicode="&#x152;" horiz-adv-x="2423" 
d="M1379 1434h972v-192l-775 1v-401h600v-191h-600v-458h775v-193h-972v210c-144 -157 -347 -244 -559 -244c-416 0 -755 331 -755 749c0 417 339 753 755 753c213 0 416 -89 559 -247v213zM820 156c310 0 558 249 558 559s-247 561 -558 561s-559 -250 -559 -561
c0 -310 249 -559 559 -559z" />
    <glyph glyph-name="oe" unicode="&#x153;" horiz-adv-x="2050" 
d="M1030 814c301 450 1029 205 952 -394h-845c35 -160 177 -262 338 -262c123 0 232 52 313 144l136 -121c-237 -269 -682 -281 -893 26c-296 -424 -981 -224 -981 303c0 525 682 735 980 304zM237 511c0 -197 153 -350 350 -350c196 0 349 154 349 350
c0 194 -154 352 -349 352c-196 0 -350 -156 -350 -352zM1138 597h650c-76 355 -588 348 -650 0z" />
    <glyph glyph-name="Racute" unicode="&#x154;" horiz-adv-x="1318" 
d="M305 1240v-527h337c153 0 279 103 279 262c0 158 -125 265 -279 265h-337zM971 0l-350 524h-314v-524h-197v1434h532c255 0 476 -196 476 -457c0 -180 -112 -356 -289 -408l383 -569h-241zM932 1829l-338 -330l-122 128l337 329z" />
    <glyph glyph-name="racute" unicode="&#x155;" horiz-adv-x="678" 
d="M298 1024v-218c45 209 180 218 365 218v-179h-119c-178 0 -246 -132 -246 -293v-552h-188v1024h188zM689 1458l-338 -330l-122 128l337 329z" />
    <glyph glyph-name="Rcommaaccent" unicode="&#x156;" horiz-adv-x="1225" 
d="M305 1240v-527h337c153 0 279 103 279 262c0 158 -125 265 -279 265h-337zM971 0l-350 524h-314v-524h-197v1434h532c255 0 476 -196 476 -457c0 -180 -112 -356 -289 -408l383 -569h-241zM505 -410v410h210l-61 -410h-149z" />
    <glyph glyph-name="rcommaaccent" unicode="&#x157;" horiz-adv-x="665" 
d="M298 1024v-218c45 209 180 218 365 218v-179h-119c-178 0 -246 -132 -246 -293v-552h-188v1024h188zM109 -509v410h210l-61 -410h-149z" />
    <glyph glyph-name="Rcaron" unicode="&#x158;" horiz-adv-x="1323" 
d="M305 1240v-527h337c153 0 279 103 279 262c0 158 -125 265 -279 265h-337zM971 0l-350 524h-314v-524h-197v1434h532c255 0 476 -196 476 -457c0 -180 -112 -356 -289 -408l383 -569h-241zM712 1959h211l-342 -459l-347 461l211 1l136 -183z" />
    <glyph glyph-name="rcaron" unicode="&#x159;" horiz-adv-x="676" 
d="M287 1024v-218c45 209 180 218 365 218v-179h-119c-178 0 -246 -132 -246 -293v-552h-188v1024h188zM475 1589h211l-342 -459l-347 461l211 1l136 -183z" />
    <glyph glyph-name="Sacute" unicode="&#x15a;" horiz-adv-x="1146" 
d="M164 256c112 -46 243 -93 365 -93c126 0 340 52 340 211c0 338 -786 169 -786 685c0 289 290 399 536 399c133 0 286 -38 406 -94l-69 -177c-104 43 -222 80 -336 80c-136 0 -341 -33 -341 -209c0 -338 787 -164 787 -685c0 -285 -294 -400 -537 -400
c-151 0 -301 50 -439 108zM925 1879l-338 -330l-122 128l337 329z" />
    <glyph glyph-name="sacute" unicode="&#x15b;" horiz-adv-x="890" 
d="M714 801c-71 34 -158 62 -237 62c-78 0 -205 -19 -205 -121c0 -201 537 -106 537 -466c0 -213 -210 -298 -393 -298c-113 0 -227 33 -328 83l74 170c77 -38 166 -71 253 -71c71 0 206 28 206 121c0 197 -538 119 -538 465c0 215 207 300 393 300c105 0 209 -30 304 -73z
M801 1459l-338 -330l-122 128l337 329z" />
    <glyph glyph-name="Scircumflex" unicode="&#x15c;" horiz-adv-x="1149" 
d="M164 256c112 -46 243 -93 365 -93c126 0 340 52 340 211c0 338 -786 169 -786 685c0 289 290 399 536 399c133 0 286 -38 406 -94l-69 -177c-104 43 -222 80 -336 80c-136 0 -341 -33 -341 -209c0 -338 787 -164 787 -685c0 -285 -294 -400 -537 -400
c-151 0 -301 50 -439 108zM929 1552h-209l-135 183l-136 -183h-209l346 462z" />
    <glyph glyph-name="scircumflex" unicode="&#x15d;" horiz-adv-x="877" 
d="M714 801c-71 34 -158 62 -237 62c-78 0 -205 -19 -205 -121c0 -201 537 -106 537 -466c0 -213 -210 -298 -393 -298c-113 0 -227 33 -328 83l74 170c77 -38 166 -71 253 -71c71 0 206 28 206 121c0 197 -538 119 -538 465c0 215 207 300 393 300c105 0 209 -30 304 -73z
M801 1130h-209l-135 183l-136 -183h-209l346 462z" />
    <glyph glyph-name="Scedilla" unicode="&#x15e;" horiz-adv-x="1146" 
d="M164 256c112 -46 242 -93 365 -93c126 0 340 52 340 211c0 338 -786 169 -786 685c0 289 290 399 536 399c133 0 286 -38 406 -94l-69 -177c-104 43 -222 80 -336 80c-136 0 -341 -33 -341 -209c0 -338 787 -164 787 -685c0 -256 -236 -373 -460 -396l-15 -61h48
c285 0 287 -450 -25 -450c-110 0 -200 89 -220 194l171 29c8 -28 32 -53 63 -53c72 0 71 123 -4 123c-79 0 -159 -16 -236 -29l59 248c-124 14 -243 55 -357 103z" />
    <glyph glyph-name="scedilla" unicode="&#x15f;" horiz-adv-x="876" 
d="M714 801c-71 34 -158 62 -237 62c-78 0 -205 -19 -205 -121c0 -201 537 -106 537 -466c0 -192 -170 -280 -340 -295l-15 -61h48c285 0 287 -450 -25 -450c-110 0 -200 89 -220 194l171 29c8 -28 32 -53 63 -53c72 0 70 123 -4 123c-79 0 -159 -16 -236 -29l61 253
c-78 13 -153 39 -224 74l74 170c77 -38 166 -71 253 -71c72 0 206 28 206 121c0 197 -538 119 -538 465c0 215 207 300 393 300c105 0 209 -30 304 -73z" />
    <glyph glyph-name="Scaron" unicode="&#x160;" horiz-adv-x="1148" 
d="M164 256c112 -46 243 -93 365 -93c126 0 340 52 340 211c0 338 -786 169 -786 685c0 289 290 399 536 399c133 0 286 -38 406 -94l-69 -177c-104 43 -222 80 -336 80c-136 0 -341 -33 -341 -209c0 -338 787 -164 787 -685c0 -285 -294 -400 -537 -400
c-151 0 -301 50 -439 108zM716 2010h211l-342 -459l-347 461l211 1l136 -183z" />
    <glyph glyph-name="scaron" unicode="&#x161;" horiz-adv-x="872" 
d="M714 801c-71 34 -158 62 -237 62c-78 0 -205 -19 -205 -121c0 -201 537 -106 537 -466c0 -213 -210 -298 -393 -298c-113 0 -227 33 -328 83l74 170c77 -38 166 -71 253 -71c71 0 206 28 206 121c0 197 -538 119 -538 465c0 215 207 300 393 300c105 0 209 -30 304 -73z
M590 1588h211l-342 -459l-347 461l211 1l136 -183z" />
    <glyph glyph-name="Tcommaaccent" unicode="&#x162;" horiz-adv-x="1144" 
d="M14 1434h1116v-192h-459v-1242h-197v1242h-460v192zM468 -509v410h210l-61 -410h-149z" />
    <glyph glyph-name="tcommaaccent" unicode="&#x163;" horiz-adv-x="630" 
d="M5 841v183h214v299h188v-299h218v-183h-218v-841h-188v841h-214zM219 -510v410h210l-61 -410h-149z" />
    <glyph glyph-name="Tcaron" unicode="&#x164;" horiz-adv-x="1144" 
d="M14 1434h1116v-192h-459v-1242h-197v1242h-460v192zM703 1958h211l-342 -459l-347 461l211 1l136 -183z" />
    <glyph glyph-name="tcaron" unicode="&#x165;" horiz-adv-x="673" 
d="M5 841v183h214v299h188v-299h218v-183h-218v-841h-188v841h-214zM649 1094h-126l-52 243h178v-243z" />
    <glyph glyph-name="Tbar" unicode="&#x166;" horiz-adv-x="1117" 
d="M81 812h378v431h-460v191h1118v-191h-460v-431h379v-191h-379v-621h-198v621h-378v191z" />
    <glyph glyph-name="tbar" unicode="&#x167;" horiz-adv-x="637" 
d="M7 683h215v158h-214v183h214v299h188v-299h218v-183h-218v-158h218v-183h-218v-500h-188v500h-215v183z" />
    <glyph glyph-name="Utilde" unicode="&#x168;" horiz-adv-x="1385" 
d="M1293 1434v-870c0 -330 -272 -598 -601 -598c-331 0 -601 266 -601 598v870h198v-870c0 -225 177 -405 403 -405c223 0 401 183 401 405v870h200zM413 1740c40 40 90 48 144 48c110 0 180 -99 271 -99c75 0 107 36 142 98v-237c-38 -36 -91 -49 -142 -49
c-115 0 -175 97 -271 97c-75 0 -109 -35 -144 -97v239z" />
    <glyph glyph-name="utilde" unicode="&#x169;" horiz-adv-x="1035" 
d="M280 1024v-622c0 -131 105 -240 237 -240c133 0 238 108 238 240v622h188v-622c0 -236 -190 -424 -426 -424s-426 187 -426 424v622h189zM236 1340c40 40 90 48 144 48c110 0 180 -99 271 -99c75 0 107 36 142 98v-237c-38 -36 -91 -49 -142 -49c-115 0 -175 97 -271 97
c-75 0 -109 -35 -144 -97v239z" />
    <glyph glyph-name="Umacron" unicode="&#x16a;" horiz-adv-x="1385" 
d="M1293 1434v-870c0 -330 -272 -598 -601 -598c-331 0 -601 266 -601 598v870h198v-870c0 -225 177 -405 403 -405c223 0 401 183 401 405v870h200zM416 1710h544v-191h-544v191z" />
    <glyph glyph-name="umacron" unicode="&#x16b;" horiz-adv-x="1035" 
d="M280 1024v-622c0 -131 105 -240 237 -240c133 0 238 108 238 240v622h188v-622c0 -236 -190 -424 -426 -424s-426 187 -426 424v622h189zM239 1311h544v-191h-544v191z" />
    <glyph glyph-name="Ubreve" unicode="&#x16c;" horiz-adv-x="1385" 
d="M1293 1434v-870c0 -330 -272 -598 -601 -598c-331 0 -601 266 -601 598v870h198v-870c0 -225 177 -405 403 -405c223 0 401 183 401 405v870h200zM343 1898h184c0 -109 37 -218 164 -218c124 0 163 112 163 218h186c0 -215 -118 -399 -349 -399s-348 185 -348 399z" />
    <glyph glyph-name="ubreve" unicode="&#x16d;" horiz-adv-x="1035" 
d="M280 1024v-622c0 -131 105 -240 237 -240c133 0 238 108 238 240v622h188v-622c0 -236 -190 -424 -426 -424s-426 187 -426 424v622h189zM167 1498h184c0 -109 37 -218 164 -218c124 0 163 112 163 218h186c0 -215 -118 -399 -349 -399s-348 185 -348 399z" />
    <glyph glyph-name="Uring" unicode="&#x16e;" horiz-adv-x="1385" 
d="M1293 1434v-870c0 -330 -272 -598 -601 -598c-331 0 -601 266 -601 598v870h198v-870c0 -225 177 -405 403 -405c223 0 401 183 401 405v870h200zM415 1771c0 154 124 269 276 269s281 -114 281 -269c0 -156 -128 -272 -281 -272c-152 0 -276 119 -276 272zM584 1769
c0 -144 217 -145 217 0s-217 144 -217 0z" />
    <glyph glyph-name="uring" unicode="&#x16f;" horiz-adv-x="1035" 
d="M280 1024v-622c0 -131 105 -240 237 -240c133 0 238 108 238 240v622h188v-622c0 -236 -190 -424 -426 -424s-426 187 -426 424v622h189zM237 1371c0 154 124 269 276 269s281 -114 281 -269c0 -156 -128 -272 -281 -272c-152 0 -276 119 -276 272zM406 1369
c0 -144 217 -145 217 0s-217 144 -217 0z" />
    <glyph glyph-name="Uhungarumlaut" unicode="&#x170;" horiz-adv-x="1389" 
d="M1293 1434v-870c0 -330 -272 -598 -601 -598c-331 0 -601 266 -601 598v870h198v-870c0 -225 177 -405 403 -405c223 0 401 183 401 405v870h200zM877 1866l-397 -365l-136 141l396 365zM1294 1866l-397 -365l-136 141l396 365z" />
    <glyph glyph-name="uhungarumlaut" unicode="&#x171;" horiz-adv-x="1043" 
d="M280 1024v-622c0 -131 105 -240 237 -240c133 0 238 108 238 240v622h188v-622c0 -236 -190 -424 -426 -424s-426 187 -426 424v622h189zM701 1465l-397 -365l-136 141l396 365zM1118 1465l-397 -365l-136 141l396 365z" />
    <glyph glyph-name="Uogonek" unicode="&#x172;" horiz-adv-x="1385" 
d="M1293 1434v-870c0 -188 -89 -362 -238 -475c-29 -23 -60 -40 -92 -58c-72 -41 -236 -156 -236 -248c0 -98 158 -108 146 40l175 18c18 -166 -86 -303 -258 -303c-130 0 -241 106 -241 237c0 72 30 139 74 195c-303 34 -532 289 -532 594v870h198v-870
c0 -225 177 -405 403 -405c223 0 401 183 401 405v870h200z" />
    <glyph glyph-name="uogonek" unicode="&#x173;" horiz-adv-x="1036" 
d="M280 1024v-622c0 -131 105 -240 237 -240c133 0 238 108 238 240v622h188v-622c0 -172 -92 -304 -241 -383c-77 -41 -260 -164 -260 -261s157 -109 146 40l175 18c18 -166 -86 -303 -258 -303c-130 0 -241 106 -241 237c0 98 54 181 120 249c-176 56 -293 219 -293 403
v622h189z" />
    <glyph glyph-name="Wcircumflex" unicode="&#x174;" horiz-adv-x="2115" 
d="M969 1438h177l388 -1138l352 1134h199l-460 -1434h-179l-388 1172l-390 -1172h-178l-460 1434h199l352 -1134zM1401 1500h-209l-135 183l-136 -183h-209l346 462z" />
    <glyph glyph-name="wcircumflex" unicode="&#x175;" horiz-adv-x="1562" 
d="M698 1024h166l248 -718l220 718h200l-329 -1024h-173l-249 727l-249 -727h-173l-329 1024h200l220 -719zM1123 1130h-209l-135 183l-136 -183h-209l346 462z" />
    <glyph glyph-name="Ycircumflex" unicode="&#x176;" horiz-adv-x="1423" 
d="M1175 1434h230l-594 -854v-580h-197v580l-596 854h232l463 -669zM1055 1500h-209l-135 183l-136 -183h-209l346 462z" />
    <glyph glyph-name="ycircumflex" unicode="&#x177;" horiz-adv-x="1075" 
d="M855 1024h204l-599 -1443h-203l201 490l-417 953h206l311 -729zM899 1100h-209l-135 183l-136 -183h-209l346 462z" />
    <glyph glyph-name="Ydieresis" unicode="&#x178;" horiz-adv-x="1423" 
d="M1175 1434h230l-594 -854v-580h-197v580l-596 854h232l463 -669zM449 1721h220v-211h-220v211zM755 1721h220v-211h-220v211z" />
    <glyph glyph-name="Zacute" unicode="&#x179;" horiz-adv-x="1283" 
d="M64 1434h1156v-170l-891 -1072h891v-192h-1156v170l892 1072h-892v192zM995 1829l-338 -330l-122 128l337 329z" />
    <glyph glyph-name="zacute" unicode="&#x17a;" horiz-adv-x="984" 
d="M50 1024h884v-162l-622 -678h622v-184h-884v162l622 677h-622v185zM837 1458l-338 -330l-122 128l337 329z" />
    <glyph glyph-name="Zdotaccent" unicode="&#x17b;" horiz-adv-x="1283" 
d="M64 1434h1156v-170l-891 -1072h891v-192h-1156v170l892 1072h-892v192zM544 1768h231v-219h-231v219z" />
    <glyph glyph-name="zdotaccent" unicode="&#x17c;" horiz-adv-x="983" 
d="M48 1024h884v-162l-622 -678h622v-184h-884v162l622 677h-622v185zM378 1397h231v-219h-231v219z" />
    <glyph glyph-name="Zcaron" unicode="&#x17d;" horiz-adv-x="1289" 
d="M64 1434h1156v-170l-891 -1072h891v-192h-1156v170l892 1072h-892v192zM790 1959h211l-342 -459l-347 461l211 1l136 -183z" />
    <glyph glyph-name="zcaron" unicode="&#x17e;" horiz-adv-x="987" 
d="M52 1024h884v-162l-622 -678h622v-184h-884v162l622 677h-622v185zM632 1589h211l-342 -459l-347 461l211 1l136 -183z" />
    <glyph glyph-name="longs" unicode="&#x17f;" horiz-adv-x="637" 
d="M96 0v1190c0 168 90 261 258 261c155 0 244 -113 244 -261h-185c0 104 -132 108 -132 0v-1190h-185z" />
    <glyph glyph-name="AEacute" unicode="&#x1fc;" horiz-adv-x="1969" 
d="M19 0l942 1433l944 -1v-191l-776 1v-401h601v-190h-601v-459l776 -1v-191h-974v335h-452l-221 -335h-239zM591 518h343v537zM1378 1829l-338 -330l-122 128l337 329z" />
    <glyph glyph-name="aeacute" unicode="&#x1fd;" horiz-adv-x="1755" 
d="M769 856c100 121 245 189 402 189c341 0 561 -298 519 -625h-845c35 -160 177 -262 338 -262c123 0 232 52 313 144l136 -121c-234 -266 -670 -281 -886 16c-63 -131 -198 -218 -344 -218c-464 0 -494 628 -6 628h248v15c0 157 -56 244 -218 244
c-92 0 -170 -32 -218 -114l-141 101c77 135 218 193 368 193c144 0 271 -53 334 -190zM846 597h650c-76 355 -588 348 -650 0zM646 443c-81 0 -161 -1 -242 -1c-90 0 -170 -47 -170 -145c0 -215 412 -220 412 146zM1129 1455l-338 -330l-122 128l337 329z" />
    <glyph glyph-name="Oslashacute" unicode="&#x1fe;" 
d="M1164 1385c252 -128 411 -387 411 -670c0 -495 -462 -841 -939 -727l-33 -88h-171l54 142c-258 126 -421 385 -421 673c0 417 339 753 755 753c66 0 132 -9 195 -26l34 91h171zM946 1261c-41 10 -84 15 -126 15c-311 0 -559 -250 -559 -561c0 -206 111 -395 293 -493z
M704 168c38 -8 77 -12 116 -12c310 0 558 249 558 559c0 202 -107 389 -283 489zM1157 1878l-338 -330l-122 128l337 329z" />
    <glyph glyph-name="oslashacute" unicode="&#x1ff;" horiz-adv-x="1174" 
d="M848 979c171 -95 276 -274 276 -469c0 -300 -239 -532 -537 -532c-38 0 -76 4 -113 11l-33 -89h-166l53 141c-174 93 -278 272 -278 469c0 296 241 536 537 536c39 0 78 -5 116 -13l36 96h166zM637 859c-17 3 -33 4 -50 4c-349 0 -481 -459 -193 -647zM540 164
c370 -49 545 434 242 639zM925 1480l-338 -330l-122 128l337 329z" />
    <glyph glyph-name="Scommaaccent" unicode="&#x218;" horiz-adv-x="1119" 
d="M154 256c112 -46 243 -93 365 -93c126 0 340 52 340 211c0 338 -786 169 -786 685c0 289 290 399 536 399c133 0 286 -38 406 -94l-69 -177c-104 43 -222 80 -336 80c-136 0 -341 -33 -341 -209c0 -338 787 -164 787 -685c0 -285 -294 -400 -537 -400
c-151 0 -301 50 -439 108zM442 -508v410h210l-61 -410h-149z" />
    <glyph glyph-name="scommaaccent" unicode="&#x219;" horiz-adv-x="867" 
d="M705 801c-71 34 -158 62 -237 62c-78 0 -205 -19 -205 -121c0 -201 537 -106 537 -466c0 -213 -210 -298 -393 -298c-113 0 -227 33 -328 83l74 170c77 -38 166 -71 253 -71c71 0 206 28 206 121c0 197 -538 119 -538 465c0 215 207 300 393 300c105 0 209 -30 304 -73z
M331 -511v410h210l-61 -410h-149z" />
    <glyph glyph-name="dotlessj" unicode="&#x237;" horiz-adv-x="393" 
d="M98 -419v1443h190v-1443h-190z" />
    <glyph glyph-name="uni02BB" unicode="&#x2bb;" horiz-adv-x="401" 
d="M291 1600v-553h-210l64 553h146z" />
    <glyph glyph-name="uni02BC" unicode="&#x2bc;" horiz-adv-x="401" 
d="M110 1047v553h210l-64 -553h-146z" />
    <glyph glyph-name="uni02BD" unicode="&#x2bd;" horiz-adv-x="401" 
d="M291 1600v-553h-146l-64 553h210z" />
    <glyph glyph-name="circumflex" unicode="&#x2c6;" horiz-adv-x="727" 
d="M708 1057h-209l-135 183l-136 -183h-209l346 462z" />
    <glyph glyph-name="caron" unicode="&#x2c7;" horiz-adv-x="727" 
d="M497 1517h211l-342 -459l-347 461l211 1l136 -183z" />
    <glyph glyph-name="uni02C8" unicode="&#x2c8;" horiz-adv-x="423" 
d="M110 1538h196v-481h-196v481z" />
    <glyph glyph-name="uni02C9" unicode="&#x2c9;" horiz-adv-x="766" 
d="M110 1430h544v-192h-544v192z" />
    <glyph glyph-name="uni02CA" unicode="&#x2ca;" horiz-adv-x="475" 
d="M467 1414l-338 -330l-122 128l337 329z" />
    <glyph glyph-name="uni02CB" unicode="&#x2cb;" horiz-adv-x="475" 
d="M344 1085l-337 330l123 127l337 -330z" />
    <glyph glyph-name="uni02CC" unicode="&#x2cc;" horiz-adv-x="423" 
d="M110 -100h196v-481h-196v481z" />
    <glyph glyph-name="uni02CE" unicode="&#x2ce;" horiz-adv-x="475" 
d="M344 -559l-337 330l123 127l337 -329z" />
    <glyph glyph-name="uni02CF" unicode="&#x2cf;" horiz-adv-x="475" 
d="M467 -227l-338 -330l-122 127l337 330z" />
    <glyph glyph-name="breve" unicode="&#x2d8;" horiz-adv-x="829" 
d="M66 1497h184c0 -109 37 -218 164 -218c124 0 163 112 163 218h186c0 -215 -118 -399 -349 -399s-348 185 -348 399z" />
    <glyph glyph-name="dotaccent" unicode="&#x2d9;" horiz-adv-x="456" 
d="M110 1404h231v-219h-231v219z" />
    <glyph glyph-name="ring" unicode="&#x2da;" horiz-adv-x="689" 
d="M66 1348c0 154 124 269 276 269s281 -114 281 -269c0 -156 -128 -272 -281 -272c-152 0 -276 119 -276 272zM235 1346c0 -144 217 -145 217 0s-217 144 -217 0z" />
    <glyph glyph-name="ogonek" unicode="&#x2db;" horiz-adv-x="606" 
d="M330 116l175 -101c-81 -43 -275 -169 -275 -270c0 -97 157 -109 146 40l175 18c18 -166 -86 -303 -258 -303c-130 0 -241 106 -241 237c0 166 155 291 278 379z" />
    <glyph glyph-name="tilde" unicode="&#x2dc;" horiz-adv-x="777" 
d="M110 1355c40 40 90 48 144 48c110 0 180 -99 271 -99c75 0 107 36 142 98v-237c-38 -36 -91 -49 -142 -49c-115 0 -175 97 -271 97c-75 0 -109 -35 -144 -97v239z" />
    <glyph glyph-name="hungarumlaut" unicode="&#x2dd;" horiz-adv-x="1025" 
d="M571 1408l-397 -365l-136 141l396 365zM988 1408l-397 -365l-136 141l396 365z" />
    <glyph glyph-name="uni0401" unicode="&#x401;" horiz-adv-x="1121" 
d="M110 1434h972v-192l-775 1v-401h600v-191h-600v-458h775v-193h-972v1434zM325 1720h220v-211h-220v211zM631 1720h220v-211h-220v211z" />
    <glyph glyph-name="uni0402" unicode="&#x402;" horiz-adv-x="1482" 
d="M910 1242h-355v-398c66 137 215 207 363 207c290 0 521 -240 521 -528c0 -301 -244 -528 -541 -528c-33 0 -66 3 -99 5v191c33 -2 66 -5 99 -5c191 0 343 144 343 337c0 189 -155 337 -343 337c-202 0 -342 -144 -342 -345v-515h-198v1242h-358v192h910v-192z" />
    <glyph glyph-name="uni0403" unicode="&#x403;" horiz-adv-x="860" 
d="M855 1243h-545v-1243h-198v1434h743v-191zM802 1863l-338 -330l-122 128l337 329z" />
    <glyph glyph-name="uni0404" unicode="&#x404;" horiz-adv-x="1462" 
d="M1376 1201l-145 -130c-107 124 -258 206 -424 206c-269 0 -505 -198 -552 -463h735v-191h-736c42 -280 272 -466 553 -466c173 0 339 98 444 232l152 -123c-142 -179 -365 -300 -596 -300c-424 0 -752 328 -752 752c0 422 330 750 752 750c231 0 418 -95 569 -267z" />
    <glyph glyph-name="uni0405" unicode="&#x405;" horiz-adv-x="1146" 
d="M164 256c112 -46 243 -93 365 -93c126 0 340 52 340 211c0 338 -786 169 -786 685c0 289 290 399 536 399c133 0 286 -38 406 -94l-69 -177c-104 43 -222 80 -336 80c-136 0 -341 -33 -341 -209c0 -338 787 -164 787 -685c0 -285 -294 -400 -537 -400
c-151 0 -301 50 -439 108z" />
    <glyph glyph-name="uni0406" unicode="&#x406;" horiz-adv-x="424" 
d="M110 0v1434h197v-1434h-197z" />
    <glyph glyph-name="uni0407" unicode="&#x407;" horiz-adv-x="423" 
d="M110 0v1434h197v-1434h-197zM-55 1720h220v-211h-220v211zM251 1720h220v-211h-220v211z" />
    <glyph glyph-name="uni0408" unicode="&#x408;" horiz-adv-x="762" 
d="M659 1434v-1092c0 -207 -120 -364 -337 -364c-164 0 -287 98 -322 257l185 75c8 -79 53 -140 138 -140c102 0 139 82 139 172v1092h197z" />
    <glyph glyph-name="uni0409" unicode="&#x409;" horiz-adv-x="2216" 
d="M329 1434h1032v-472h331c262 0 484 -219 484 -481c0 -268 -217 -481 -484 -481h-529v1242h-637v-885c0 -208 -167 -366 -373 -366c-59 0 -117 16 -168 44v207c44 -27 116 -61 168 -61c102 0 176 74 176 176v1077zM1361 190h331c160 0 287 132 287 291
c0 158 -128 291 -287 291h-331v-582z" />
    <glyph glyph-name="uni040A" unicode="&#x40a;" horiz-adv-x="1898" 
d="M1184 186h259c121 0 224 99 224 221c0 121 -103 223 -224 223h-259v-444zM1185 824h259c223 0 415 -189 415 -413s-192 -411 -415 -411h-457v632h-679v-632h-198v1433h198v-610h679v609h198v-608z" />
    <glyph glyph-name="uni040B" unicode="&#x40b;" horiz-adv-x="1126" 
d="M155 256c112 -46 244 -93 366 -93c126 0 340 52 340 211c0 338 -787 169 -787 685c0 290 291 399 537 399c133 0 286 -38 406 -94l-70 -177c-104 44 -222 80 -335 80c-136 0 -341 -33 -341 -209c0 -338 786 -164 786 -685c0 -285 -293 -400 -536 -400
c-151 0 -302 50 -440 108z" />
    <glyph glyph-name="uni040C" unicode="&#x40c;" horiz-adv-x="1318" 
d="M110 1434h193v-574h114l546 574h267l-640 -668l716 -766h-262l-628 668h-113v-668h-193v1434zM876 1829l-338 -330l-122 128l337 329z" />
    <glyph glyph-name="uni040D" unicode="&#x40d;" horiz-adv-x="1418" 
d="M1309 1434h-171l-832 -1093v1093h-196v-1434h173l830 1093v-1093h196v1434zM705 1497l-337 330l123 127l337 -330z" />
    <glyph glyph-name="uni040E" unicode="&#x40e;" horiz-adv-x="1138" 
d="M913 1434h214l-630 -1434h-212l217 501l-487 933h218l370 -729zM234 1899h184c0 -109 37 -218 164 -218c124 0 163 112 163 218h186c0 -215 -118 -399 -349 -399s-348 185 -348 399z" />
    <glyph glyph-name="uni040F" unicode="&#x40f;" horiz-adv-x="1366" 
d="M582 -300v300h-472v1434h198v-1242h750v1242h198v-1434h-472v-300h-202z" />
    <glyph glyph-name="uni0410" unicode="&#x410;" horiz-adv-x="1385" 
d="M604 1434h174l604 -1434h-213l-170 399h-616l-171 -399h-212zM692 1154l-239 -575h476z" />
    <glyph glyph-name="uni0411" unicode="&#x411;" horiz-adv-x="1147" 
d="M305 191h342c145 0 257 114 257 259c0 143 -112 261 -257 261h-342v-520zM305 899h342c245 0 455 -202 455 -449c0 -250 -207 -450 -455 -450h-537v1437h876v-191h-681v-347z" />
    <glyph glyph-name="uni0412" unicode="&#x412;" horiz-adv-x="1155" 
d="M306 663v-471c118 0 236 0 354 1c128 1 232 107 232 235c0 134 -111 235 -243 235h-343zM306 856h323c103 0 190 92 190 194c0 105 -87 192 -192 192h-321v-386zM858 776c147 -68 233 -183 233 -348c0 -239 -191 -428 -429 -428h-552v1434h530c203 0 377 -183 377 -384
c0 -119 -58 -212 -159 -274z" />
    <glyph glyph-name="uni0413" unicode="&#x413;" horiz-adv-x="853" 
d="M853 1243h-545v-1243h-198v1434h743v-191z" />
    <glyph glyph-name="uni0414" unicode="&#x414;" horiz-adv-x="1519" 
d="M361 191h723v1053h-601v-496c0 -76 -1 -151 -6 -227c-7 -114 -19 -253 -116 -330zM1281 191h187v-460h-198v269h-1022v-269h-197v460c184 -1 215 149 228 301c8 85 8 171 8 256v686h994v-1243z" />
    <glyph glyph-name="uni0415" unicode="&#x415;" horiz-adv-x="1133" 
d="M110 1434h972v-192l-775 1v-401h600v-191h-600v-458h775v-193h-972v1434z" />
    <glyph glyph-name="uni0416" unicode="&#x416;" horiz-adv-x="1920" 
d="M862 1434h194v-585h123l435 585h241l-500 -672l557 -762h-242l-491 675h-123v-675h-194v675h-123l-492 -675h-240l555 761l-500 673h242l436 -586h122v586z" />
    <glyph glyph-name="uni0417" unicode="&#x417;" horiz-adv-x="1190" 
d="M84 1204c124 150 293 263 493 263c260 0 512 -134 512 -423c0 -126 -66 -239 -175 -302c125 -62 201 -181 201 -321c0 -321 -270 -455 -556 -455c-206 0 -382 117 -514 268l147 126c94 -106 221 -204 370 -204c177 0 354 71 354 275c0 134 -128 214 -251 214h-316v194
h320c112 0 222 75 222 195c0 180 -159 242 -314 242c-138 0 -256 -93 -341 -194z" />
    <glyph glyph-name="uni0418" unicode="&#x418;" horiz-adv-x="1420" 
d="M1309 1434v-1434h-196v1093l-830 -1093h-173v1434h196v-1093l832 1093h171z" />
    <glyph glyph-name="uni0419" unicode="&#x419;" horiz-adv-x="1370" 
d="M1309 1434h-171l-832 -1093v1093h-196v-1434h173l830 1093v-1093h196v1434zM356 1898h184c0 -109 37 -218 164 -218c124 0 163 112 163 218h186c0 -215 -118 -399 -349 -399s-348 185 -348 399z" />
    <glyph glyph-name="uni041A" unicode="&#x41a;" horiz-adv-x="1319" 
d="M110 1434h193v-574h114l546 574h267l-640 -668l716 -766h-262l-628 668h-113v-668h-193v1434z" />
    <glyph glyph-name="uni041B" unicode="&#x41b;" horiz-adv-x="1489" 
d="M346 1434h1032v-1434h-198v1242h-637v-885c0 -208 -167 -366 -373 -366c-59 0 -117 16 -168 44v207c45 -27 116 -61 168 -61c102 0 176 74 176 176v1077z" />
    <glyph glyph-name="uni041C" unicode="&#x41c;" horiz-adv-x="1651" 
d="M1366 1434h174v-1434h-195v1079l-520 -724l-521 724v-1079h-194v1434h174l541 -753z" />
    <glyph glyph-name="uni041D" unicode="&#x41d;" horiz-adv-x="1365" 
d="M110 1434h197v-611h749v611h198v-1434h-198v631h-749v-631h-197v1434z" />
    <glyph glyph-name="uni041E" unicode="&#x41e;" 
d="M820 156c310 0 558 249 558 559s-247 561 -558 561s-559 -250 -559 -561c0 -310 249 -559 559 -559zM1575 715c0 -418 -339 -749 -755 -749s-755 331 -755 749c0 417 339 753 755 753s755 -336 755 -753z" />
    <glyph glyph-name="uni041F" unicode="&#x41f;" horiz-adv-x="1367" 
d="M110 1434h1146v-1434h-198v1242h-750v-1242h-198v1434z" />
    <glyph glyph-name="uni0420" unicode="&#x420;" horiz-adv-x="1161" 
d="M307 1242v-581h330c163 0 287 128 287 290c0 159 -127 291 -287 291h-330zM307 470v-470h-197v1434h527c267 0 484 -216 484 -483c0 -268 -217 -481 -484 -481h-330z" />
    <glyph glyph-name="uni0421" unicode="&#x421;" horiz-adv-x="1464" 
d="M1409 266c-142 -179 -365 -300 -596 -300c-424 0 -752 328 -752 752c0 422 330 750 752 750c231 0 418 -95 569 -267l-145 -130c-107 124 -258 206 -424 206c-306 0 -556 -253 -556 -559c0 -321 234 -561 556 -561c173 0 339 98 444 232z" />
    <glyph glyph-name="uni0422" unicode="&#x422;" horiz-adv-x="1144" 
d="M14 1434h1116v-192h-459v-1242h-197v1242h-460v192z" />
    <glyph glyph-name="uni0423" unicode="&#x423;" horiz-adv-x="1113" 
d="M899 1434h214l-630 -1434h-212l217 501l-487 933h218l370 -729z" />
    <glyph glyph-name="uni0424" unicode="&#x424;" horiz-adv-x="1539" 
d="M867 1274h89c299 0 542 -242 542 -541c0 -304 -239 -538 -542 -538h-89v-195h-194v195h-89c-303 0 -543 233 -543 538c0 300 244 541 543 541h89v160h194v-160zM673 1083h-89c-206 0 -345 -142 -345 -347c0 -194 150 -347 345 -347h89v694zM867 389h89
c194 0 345 153 345 347c0 204 -140 347 -345 347h-89v-694z" />
    <glyph glyph-name="uni0425" unicode="&#x425;" horiz-adv-x="1459" 
d="M1206 1434h253l-602 -717l602 -717h-255l-473 565l-476 -565h-255l603 717l-601 717h254l475 -565z" />
    <glyph glyph-name="uni0426" unicode="&#x426;" horiz-adv-x="1480" 
d="M1252 0h-1142v1434h198v-1241h754v1241h200v-1243h188v-461h-198v270z" />
    <glyph glyph-name="uni0427" unicode="&#x427;" horiz-adv-x="1221" 
d="M913 736v698h198v-1434h-198v542c-115 -30 -234 -55 -353 -55c-358 0 -511 216 -511 556v391h198v-391c0 -223 69 -362 313 -362c120 0 238 24 353 55z" />
    <glyph glyph-name="uni0428" unicode="&#x428;" horiz-adv-x="1818" 
d="M1008 1434v-1242h499v1242h200v-1434h-1597v1434h198v-1242h500v1242h200z" />
    <glyph glyph-name="uni0429" unicode="&#x429;" horiz-adv-x="1925" 
d="M1007 1434v-1242h499v1242h200v-1244h188v-455h-198v265h-1587v1434h198v-1242h500v1242h200z" />
    <glyph glyph-name="uni042A" unicode="&#x42a;" horiz-adv-x="1400" 
d="M539 190h332c161 0 287 132 287 291c0 158 -128 291 -287 291h-332v-582zM0 1434h539v-472h332c269 0 484 -212 484 -481s-216 -481 -484 -481h-528v1246h-343v188z" />
    <glyph glyph-name="uni042B" unicode="&#x42b;" horiz-adv-x="1598" 
d="M306 190h332c161 0 287 131 287 291c0 159 -127 291 -287 291h-332v-582zM1293 0v1434h198v-1434h-198zM306 962h332c266 0 484 -214 484 -481c0 -269 -216 -481 -484 -481h-528v1434h196v-472z" />
    <glyph glyph-name="uni042C" unicode="&#x42c;" horiz-adv-x="1166" 
d="M306 190h332c160 0 287 132 287 291c0 158 -128 291 -287 291h-332v-582zM306 962h332c262 0 484 -219 484 -481c0 -268 -217 -481 -484 -481h-528v1434h196v-472z" />
    <glyph glyph-name="uni042D" unicode="&#x42d;" horiz-adv-x="1462" 
d="M468 623v191h733c-46 264 -282 463 -550 463c-166 0 -318 -82 -424 -206l-145 130c151 172 338 267 569 267c422 0 752 -328 752 -750c0 -424 -328 -752 -752 -752c-230 0 -454 121 -596 300l152 123c105 -134 271 -232 444 -232c280 0 509 187 552 466h-735z" />
    <glyph glyph-name="uni042E" unicode="&#x42e;" horiz-adv-x="2130" 
d="M1301 153c309 0 559 254 559 562c0 309 -249 562 -559 562c-309 0 -558 -255 -558 -562s250 -562 558 -562zM553 623h-247v-623h-198v1437h198v-623h247c46 369 378 654 748 654c413 0 756 -339 756 -753s-344 -751 -756 -751c-383 0 -698 281 -748 659z" />
    <glyph glyph-name="uni042F" unicode="&#x42f;" horiz-adv-x="1229" 
d="M917 713v527h-336c-154 0 -279 -106 -279 -265s126 -262 279 -262h336zM601 524l-350 -524h-241l383 569c-176 52 -289 228 -289 408c0 261 222 457 477 457h532v-1434h-198v524h-314z" />
    <glyph glyph-name="uni0430" unicode="&#x430;" horiz-adv-x="1217" 
d="M923 169c-81 -125 -204 -190 -353 -190c-296 0 -520 238 -520 531c0 486 619 736 873 343v171h188v-1024h-188v169zM238 511c0 -196 152 -350 349 -350c196 0 349 154 349 350c0 194 -154 352 -349 352c-196 0 -349 -157 -349 -352z" />
    <glyph glyph-name="uni0431" unicode="&#x431;" horiz-adv-x="1150" 
d="M255 842c75 124 185 197 333 197c291 0 512 -244 512 -529c0 -297 -226 -532 -525 -532c-338 0 -525 287 -525 601c0 619 418 884 1001 842v-184c-321 29 -697 -38 -796 -395zM916 511c0 192 -146 353 -341 353s-340 -162 -340 -353c0 -192 145 -351 340 -351
c196 0 341 158 341 351z" />
    <glyph glyph-name="uni0432" unicode="&#x432;" horiz-adv-x="993" 
d="M295 453v-275h311c74 0 135 63 135 137c0 76 -61 138 -137 138h-309zM295 625h279c141 0 146 220 -1 220h-278v-220zM110 1024h476c247 0 390 -334 176 -466c102 -45 164 -130 164 -243c0 -173 -145 -315 -317 -315h-499v1024z" />
    <glyph glyph-name="uni0433" unicode="&#x433;" horiz-adv-x="676" 
d="M675 843h-374v-843h-191v1027h565v-184z" />
    <glyph glyph-name="uni0434" unicode="&#x434;" horiz-adv-x="1137" 
d="M297 182h475v660h-373v-311c0 -85 -4 -308 -102 -349zM961 183h126v-367h-189v184h-660v-184h-188v367c120 -1 145 95 154 196c5 50 6 101 6 152v493h751v-841z" />
    <glyph glyph-name="uni0435" unicode="&#x435;" horiz-adv-x="1164" 
d="M249 597h650c-76 355 -588 348 -650 0zM1035 181c-336 -381 -985 -197 -985 330c0 293 228 534 524 534c342 0 561 -298 519 -625h-845c35 -160 177 -262 338 -262c123 0 232 52 313 144z" />
    <glyph glyph-name="uni0436" unicode="&#x436;" horiz-adv-x="1415" 
d="M1145 1024h223l-315 -482l352 -542h-222l-291 450h-91v-450h-187v450h-90l-292 -450h-223l351 543l-312 481h223l252 -389h91v389h187v-389h91z" />
    <glyph glyph-name="uni0437" unicode="&#x437;" horiz-adv-x="942" 
d="M59 802c92 153 227 242 409 242c184 0 378 -93 378 -302c0 -93 -43 -164 -125 -208c94 -33 146 -116 146 -215c0 -233 -204 -340 -413 -340c-169 0 -311 89 -406 224l145 114c61 -86 151 -156 261 -156c91 0 223 34 223 147c0 110 -135 134 -220 134h-142v178h155
c75 0 186 26 186 120c0 100 -109 121 -188 121c-110 0 -203 -70 -254 -164z" />
    <glyph glyph-name="uni0438" unicode="&#x438;" horiz-adv-x="1150" 
d="M874 1024h165v-1024h-190v705l-574 -705h-165v1024h189v-706z" />
    <glyph glyph-name="uni0439" unicode="&#x439;" horiz-adv-x="1150" 
d="M874 1024h165v-1024h-190v705l-574 -705h-165v1024h189v-706zM231 1499h184c0 -109 37 -218 164 -218c124 0 163 112 163 218h186c0 -215 -118 -399 -349 -399s-348 185 -348 399z" />
    <glyph glyph-name="uni043A" unicode="&#x43a;" horiz-adv-x="1051" 
d="M110 1024h190v-405h95l353 405h249l-431 -499l485 -525h-256l-400 429h-95v-429h-190v1024z" />
    <glyph glyph-name="uni043B" unicode="&#x43b;" horiz-adv-x="1158" 
d="M236 1025l811 -1v-1024h-188v842h-434v-573c0 -164 -128 -281 -289 -281c-48 0 -95 13 -136 37v222c72 -124 236 -98 236 14v764z" />
    <glyph glyph-name="uni043C" unicode="&#x43c;" horiz-adv-x="1303" 
d="M1016 1024h177v-1024h-189v696l-353 -492l-353 492v-696h-188v1024h177l364 -511z" />
    <glyph glyph-name="uni043D" unicode="&#x43d;" horiz-adv-x="1098" 
d="M110 1026h191v-407h495v406h191v-1025h-191v435h-495v-435h-191v1026z" />
    <glyph glyph-name="uni043E" unicode="&#x43e;" horiz-adv-x="1174" 
d="M587 -22c-300 0 -537 231 -537 532c0 296 241 536 537 536c297 0 537 -239 537 -536c0 -300 -239 -532 -537 -532zM237 511c0 -197 153 -350 350 -350c196 0 349 154 349 350c0 194 -154 352 -349 352c-196 0 -350 -156 -350 -352z" />
    <glyph glyph-name="uni043F" unicode="&#x43f;" horiz-adv-x="1112" 
d="M110 1024h891v-1024h-191v839h-510v-839h-190v1024z" />
    <glyph glyph-name="uni0440" unicode="&#x440;" horiz-adv-x="1221" 
d="M298 855c81 124 204 190 353 190c296 0 520 -238 520 -531c0 -488 -623 -735 -873 -343v-590h-188v1443h188v-169zM983 513c0 196 -152 350 -349 350c-196 0 -349 -154 -349 -350c0 -194 154 -352 349 -352c196 0 349 157 349 352z" />
    <glyph glyph-name="uni0441" unicode="&#x441;" horiz-adv-x="1090" 
d="M1036 799l-153 -100c-184 298 -646 164 -646 -188c0 -355 464 -482 648 -184l150 -106c-285 -441 -985 -245 -985 289c0 296 241 536 537 536c181 0 352 -93 449 -247z" />
    <glyph glyph-name="uni0442" unicode="&#x442;" horiz-adv-x="847" 
d="M818 840h-299v-840h-191v840h-300v184h790v-184z" />
    <glyph glyph-name="uni0443" unicode="&#x443;" horiz-adv-x="1036" 
d="M822 1024h204l-599 -1443h-203l201 490l-417 953h206l311 -729z" />
    <glyph glyph-name="uni0444" unicode="&#x444;" horiz-adv-x="1378" 
d="M787 1037h3c295 0 538 -229 538 -527c0 -306 -241 -523 -541 -523v-406h-191v406c-303 0 -546 212 -546 523c0 298 243 527 538 527h8v397h191v-397zM596 849c-481 0 -458 -671 0 -671v671zM787 178c451 0 473 671 0 671v-671z" />
    <glyph glyph-name="uni0445" unicode="&#x445;" horiz-adv-x="1206" 
d="M913 1024h243l-432 -512l429 -512h-243l-309 367l-307 -367h-243l430 510l-431 514h244l309 -369z" />
    <glyph glyph-name="uni0446" unicode="&#x446;" horiz-adv-x="1152" 
d="M932 0h-823v1024h192v-838h504v838h191v-839h125v-370h-189v185z" />
    <glyph glyph-name="uni0447" unicode="&#x447;" horiz-adv-x="991" 
d="M691 546v478h189v-1024h-189v358c-422 -94 -631 13 -631 469v197h190v-197c0 -157 5 -314 205 -314c80 0 159 13 236 33z" />
    <glyph glyph-name="uni0448" unicode="&#x448;" horiz-adv-x="1553" 
d="M871 1024v-839h378v839h193v-1024h-1332v1024h191v-839h379v839h191z" />
    <glyph glyph-name="uni0449" unicode="&#x449;" horiz-adv-x="1599" 
d="M1377 0h-1267v1024h191v-838h379v838h191v-838h378v838h193v-842h124v-367h-189v185z" />
    <glyph glyph-name="uni044A" unicode="&#x44a;" horiz-adv-x="1027" 
d="M410 182h216c105 0 185 83 185 187s-81 185 -185 185h-216v-372zM-21 1024h433v-287h214c204 0 372 -163 372 -368s-168 -369 -372 -369h-403v850h-244v174z" />
    <glyph glyph-name="uni044B" unicode="&#x44b;" horiz-adv-x="1311" 
d="M299 737h214c204 0 372 -163 372 -368s-168 -369 -372 -369h-403v1024h189v-287zM1009 0v1024h191v-1024h-191zM297 182h216c105 0 185 83 185 187s-81 185 -185 185h-216v-372z" />
    <glyph glyph-name="uni044C" unicode="&#x44c;" horiz-adv-x="898" 
d="M299 737h214c202 0 372 -165 372 -368c0 -204 -169 -369 -372 -369h-403v1024h189v-287zM297 182h216c105 0 185 83 185 187s-81 185 -185 185h-216v-372z" />
    <glyph glyph-name="uni044D" unicode="&#x44d;" horiz-adv-x="1090" 
d="M399 412v179h445c-69 303 -474 372 -637 108l-153 100c97 153 267 247 449 247c296 0 537 -240 537 -536c0 -534 -700 -730 -985 -289l150 106c160 -255 553 -207 634 85h-440z" />
    <glyph glyph-name="uni044E" unicode="&#x44e;" horiz-adv-x="1620" 
d="M689 513c0 -190 151 -346 342 -346s343 156 343 346c0 191 -152 345 -343 345c-192 0 -342 -154 -342 -345zM502 418h-203v-418h-191v1025h191v-423h202c39 258 273 444 530 444c299 0 539 -236 539 -536c0 -298 -242 -534 -539 -534c-259 0 -488 184 -529 442z" />
    <glyph glyph-name="uni044F" unicode="&#x44f;" horiz-adv-x="1000" 
d="M702 551v296h-245c-212 0 -215 -296 0 -296h245zM301 417c-114 45 -191 159 -191 282c0 190 153 325 339 325h440v-1024h-189v374h-206l-265 -374h-226z" />
    <glyph glyph-name="uni0450" unicode="&#x450;" horiz-adv-x="1172" 
d="M264 597h650c-76 355 -588 348 -650 0zM1050 181c-336 -381 -985 -197 -985 330c0 293 228 534 524 534c342 0 561 -298 519 -625h-845c35 -160 177 -262 338 -262c123 0 232 52 313 144zM587 1130l-337 330l123 127l337 -330z" />
    <glyph glyph-name="uni0451" unicode="&#x451;" horiz-adv-x="1186" 
d="M264 597h650c-76 355 -588 348 -650 0zM1050 181c-336 -381 -985 -197 -985 330c0 293 228 534 524 534c342 0 561 -298 519 -625h-845c35 -160 177 -262 338 -262c123 0 232 52 313 144zM325 1351h220v-211h-220v211zM631 1351h220v-211h-220v211z" />
    <glyph glyph-name="uni0452" unicode="&#x452;" horiz-adv-x="1094" 
d="M-1 1341h112v93h189v-93h243v-184h-243v-315c55 137 170 203 315 203c272 0 382 -224 382 -468v-416c0 -252 -117 -449 -392 -438c-27 1 -54 3 -81 4v191c27 -2 55 -4 82 -5c155 -6 201 112 202 248c1 138 0 276 0 414c0 164 -78 288 -255 288
c-172 0 -253 -127 -253 -288v-575h-189v1157h-112v184z" />
    <glyph glyph-name="uni0453" unicode="&#x453;" horiz-adv-x="684" 
d="M675 843h-374v-843h-191v1027h565v-184zM719 1430l-338 -330l-122 128l337 329z" />
    <glyph glyph-name="uni0454" unicode="&#x454;" horiz-adv-x="1101" 
d="M883 699c-163 264 -569 195 -637 -108h445v-179h-441c83 -291 477 -341 635 -85l150 -106c-285 -441 -985 -245 -985 289c0 296 241 536 537 536c181 0 352 -93 449 -247z" />
    <glyph glyph-name="uni0455" unicode="&#x455;" horiz-adv-x="889" 
d="M714 801c-71 34 -158 62 -237 62c-78 0 -205 -19 -205 -121c0 -201 537 -106 537 -466c0 -213 -210 -298 -393 -298c-113 0 -227 33 -328 83l74 170c77 -38 166 -71 253 -71c71 0 206 28 206 121c0 197 -538 119 -538 465c0 215 207 300 393 300c105 0 209 -30 304 -73z
" />
    <glyph glyph-name="uni0456" unicode="&#x456;" horiz-adv-x="398" 
d="M98 0v1024h189v-1024h-189zM98 1207v227h189v-227h-189z" />
    <glyph glyph-name="uni0457" unicode="&#x457;" horiz-adv-x="392" 
d="M99 0v1024h189v-1024h-189zM-69 1320h220v-211h-220v211zM237 1320h220v-211h-220v211z" />
    <glyph glyph-name="uni0458" unicode="&#x458;" horiz-adv-x="397" 
d="M98 -419v1443h189v-1443h-189zM98 1207v227h189v-227h-189z" />
    <glyph glyph-name="uni0459" unicode="&#x459;" horiz-adv-x="1682" 
d="M1048 737h214c202 0 372 -165 372 -368c0 -204 -169 -369 -372 -369h-403v842h-434v-573c0 -164 -128 -281 -289 -281c-48 0 -95 13 -136 37v222c72 -124 236 -98 236 14v764c271 -1 541 -1 812 -1v-287zM1047 182h215c105 0 185 83 185 187s-81 185 -185 185h-215v-372z
" />
    <glyph glyph-name="uni045A" unicode="&#x45a;" horiz-adv-x="1465" 
d="M938 181h168c73 0 133 53 133 128c0 72 -63 127 -133 127h-168v-255zM940 1026v-406h168c177 0 313 -134 313 -311c0 -169 -146 -309 -313 -309h-358v435h-449v-435h-191v1027h191v-408h449v407h190z" />
    <glyph glyph-name="uni045B" unicode="&#x45b;" horiz-adv-x="1082" 
d="M-1 1333h110v101h188v-101h246v-184h-246v-307c56 137 170 203 316 203c273 0 381 -224 381 -468v-577h-189v575c0 164 -77 288 -254 288c-172 0 -254 -127 -254 -288v-575h-188v1149h-110v184z" />
    <glyph glyph-name="uni045C" unicode="&#x45c;" horiz-adv-x="1060" 
d="M110 1024h190v-405h95l359 405h251l-441 -499l495 -525h-258l-406 429h-95v-429h-190v1024zM843 1429l-338 -330l-122 128l337 329z" />
    <glyph glyph-name="uni045D" unicode="&#x45d;" horiz-adv-x="1150" 
d="M874 1024h165v-1024h-190v705l-574 -705h-165v1024h189v-706zM581 1099l-337 330l123 127l337 -330z" />
    <glyph glyph-name="uni045E" unicode="&#x45e;" horiz-adv-x="1066" 
d="M852 1024h204l-599 -1443h-203l201 490l-417 953h206l311 -729zM201 1499h184c0 -109 37 -218 164 -218c124 0 163 112 163 218h186c0 -215 -118 -399 -349 -399s-348 185 -348 399z" />
    <glyph glyph-name="uni045F" unicode="&#x45f;" horiz-adv-x="1118" 
d="M476 -263v263h-366v1024h191v-839h517v839h190v-1024h-337v-263h-195z" />
    <glyph glyph-name="uni0490" unicode="&#x490;" horiz-adv-x="853" 
d="M853 1243h-545v-1243h-198v1434h546v208h197v-399z" />
    <glyph glyph-name="uni0491" unicode="&#x491;" horiz-adv-x="678" 
d="M677 1226v-383h-378v-843h-191v1027h375v199h194z" />
    <glyph glyph-name="Wgrave" unicode="&#x1e80;" horiz-adv-x="2115" 
d="M969 1438h177l388 -1138l352 1134h199l-460 -1434h-179l-388 1172l-390 -1172h-178l-460 1434h199l352 -1134zM1058 1500l-337 330l123 127l337 -330z" />
    <glyph glyph-name="wgrave" unicode="&#x1e81;" horiz-adv-x="1562" 
d="M698 1024h166l248 -718l220 718h200l-329 -1024h-173l-249 727l-249 -727h-173l-329 1024h200l220 -719zM780 1130l-337 330l123 127l337 -330z" />
    <glyph glyph-name="Wacute" unicode="&#x1e82;" horiz-adv-x="2115" 
d="M969 1438h177l388 -1138l352 1134h199l-460 -1434h-179l-388 1172l-390 -1172h-178l-460 1434h199l352 -1134zM1395 1829l-338 -330l-122 128l337 329z" />
    <glyph glyph-name="wacute" unicode="&#x1e83;" horiz-adv-x="1562" 
d="M698 1024h166l248 -718l220 718h200l-329 -1024h-173l-249 727l-249 -727h-173l-329 1024h200l220 -719zM1118 1460l-338 -330l-122 128l337 329z" />
    <glyph glyph-name="Wdieresis" unicode="&#x1e84;" horiz-adv-x="2115" 
d="M969 1438h177l388 -1138l352 1134h199l-460 -1434h-179l-388 1172l-390 -1172h-178l-460 1434h199l352 -1134zM795 1721h220v-211h-220v211zM1101 1721h220v-211h-220v211z" />
    <glyph glyph-name="wdieresis" unicode="&#x1e85;" horiz-adv-x="1562" 
d="M698 1024h166l248 -718l220 718h200l-329 -1024h-173l-249 727l-249 -727h-173l-329 1024h200l220 -719zM517 1351h220v-211h-220v211zM823 1351h220v-211h-220v211z" />
    <glyph glyph-name="Ygrave" unicode="&#x1ef2;" horiz-adv-x="1423" 
d="M1175 1434h230l-594 -854v-580h-197v580l-596 854h232l463 -669zM713 1494l-337 330l123 127l337 -330z" />
    <glyph glyph-name="ygrave" unicode="&#x1ef3;" horiz-adv-x="1069" 
d="M855 1024h204l-599 -1443h-203l201 490l-417 953h206l311 -729zM557 1092l-337 330l123 127l337 -330z" />
    <glyph glyph-name="uni2000" unicode="&#x2000;" horiz-adv-x="717" 
 />
    <glyph glyph-name="uni2001" unicode="&#x2001;" horiz-adv-x="1434" 
 />
    <glyph glyph-name="uni2002" unicode="&#x2002;" horiz-adv-x="717" 
 />
    <glyph glyph-name="uni2003" unicode="&#x2003;" horiz-adv-x="1434" 
 />
    <glyph glyph-name="uni2004" unicode="&#x2004;" horiz-adv-x="474" 
 />
    <glyph glyph-name="uni2005" unicode="&#x2005;" horiz-adv-x="359" 
 />
    <glyph glyph-name="uni2006" unicode="&#x2006;" horiz-adv-x="239" 
 />
    <glyph glyph-name="uni2007" unicode="&#x2007;" horiz-adv-x="900" 
 />
    <glyph glyph-name="uni2008" unicode="&#x2008;" horiz-adv-x="200" 
 />
    <glyph glyph-name="uni2009" unicode="&#x2009;" horiz-adv-x="239" 
 />
    <glyph glyph-name="uni200A" unicode="&#x200a;" horiz-adv-x="120" 
 />
    <glyph glyph-name="uni200B" unicode="&#x200b;" horiz-adv-x="0" 
 />
    <glyph glyph-name="uni2010" unicode="&#x2010;" horiz-adv-x="766" 
d="M110 709h544v-192h-544v192z" />
    <glyph glyph-name="uni2011" unicode="&#x2011;" horiz-adv-x="766" 
d="M110 709h544v-192h-544v192z" />
    <glyph glyph-name="figuredash" unicode="&#x2012;" horiz-adv-x="1063" 
d="M110 620v192h842v-192h-842z" />
    <glyph glyph-name="endash" unicode="&#x2013;" horiz-adv-x="1160" 
d="M110 520v191h940v-191h-940z" />
    <glyph glyph-name="emdash" unicode="&#x2014;" horiz-adv-x="1453" 
d="M110 520v191h1233v-191h-1233z" />
    <glyph glyph-name="uni2015" unicode="&#x2015;" horiz-adv-x="2225" 
d="M110 517v192h2004v-192h-2004z" />
    <glyph glyph-name="uni2016" unicode="&#x2016;" horiz-adv-x="992" 
d="M110 -391v1959h189v-1959h-189zM692 -391v1959h189v-1959h-189z" />
    <glyph glyph-name="underscoredbl" unicode="&#x2017;" horiz-adv-x="1288" 
d="M110 -340v192h1067v-192h-1067z" />
    <glyph glyph-name="quoteleft" unicode="&#x2018;" horiz-adv-x="401" 
d="M291 1600v-553h-210l64 553h146z" />
    <glyph glyph-name="quoteright" unicode="&#x2019;" horiz-adv-x="401" 
d="M110 1047v553h210l-64 -553h-146z" />
    <glyph glyph-name="quotesinglbase" unicode="&#x201a;" horiz-adv-x="417" 
d="M110 -166v553h197v-553h-197z" />
    <glyph glyph-name="quotereversed" unicode="&#x201b;" horiz-adv-x="423" 
d="M110 1515h196v-558h-196v558z" />
    <glyph glyph-name="quotedblleft" unicode="&#x201c;" horiz-adv-x="695" 
d="M586 1600v-553h-210l64 553h146zM305 1600v-553h-210l64 553h146z" />
    <glyph glyph-name="quotedblright" unicode="&#x201d;" horiz-adv-x="693" 
d="M389 1047v553h210l-64 -553h-146zM110 1047v553h210l-64 -553h-146z" />
    <glyph glyph-name="quotedblbase" unicode="&#x201e;" horiz-adv-x="714" 
d="M407 -173v553h197v-553h-197zM110 -173v553h197v-553h-197z" />
    <glyph glyph-name="uni201F" unicode="&#x201f;" horiz-adv-x="713" 
d="M406 1047v553h197v-553h-197zM110 1047v553h197v-553h-197z" />
    <glyph glyph-name="dagger" unicode="&#x2020;" horiz-adv-x="773" 
d="M71 839v185h218v299h192v-299h222v-185h-222v-1139h-192v1139h-218z" />
    <glyph glyph-name="daggerdbl" unicode="&#x2021;" horiz-adv-x="789" 
d="M69 184h220v655h-218v185h218v299h192v-299h222v-185h-222v-655h218v-184h-218v-300h-192v300h-220v184z" />
    <glyph glyph-name="bullet" unicode="&#x2022;" horiz-adv-x="485" 
d="M66 617c0 98 81 177 178 177c96 0 176 -81 176 -177c0 -95 -82 -176 -177 -176c-99 0 -177 77 -177 176z" />
    <glyph glyph-name="onedotenleader" unicode="&#x2024;" horiz-adv-x="459" 
d="M349 103c0 -64 -55 -120 -119 -120c-66 0 -120 54 -120 120c0 158 239 158 239 0z" />
    <glyph glyph-name="twodotenleader" unicode="&#x2025;" horiz-adv-x="897" 
d="M349 103c0 -64 -55 -120 -119 -120c-66 0 -120 54 -120 120c0 158 239 158 239 0zM787 103c0 -64 -55 -120 -119 -120c-66 0 -120 54 -120 120c0 158 239 158 239 0z" />
    <glyph glyph-name="ellipsis" unicode="&#x2026;" horiz-adv-x="1325" 
d="M349 102c0 -155 -239 -155 -239 0c0 65 56 118 120 118s119 -54 119 -118zM782 102c0 -155 -239 -155 -239 0c0 65 56 118 120 118s119 -54 119 -118zM1215 102c0 -155 -239 -155 -239 0c0 65 56 118 120 118s119 -54 119 -118z" />
    <glyph glyph-name="uni2027" unicode="&#x2027;" horiz-adv-x="450" 
d="M110 807h224v-219h-224v219z" />
    <glyph glyph-name="uni2028" unicode="&#x2028;" horiz-adv-x="30" 
 />
    <glyph glyph-name="uni2029" unicode="&#x2029;" horiz-adv-x="30" 
 />
    <glyph glyph-name="perthousand" unicode="&#x2030;" horiz-adv-x="2120" 
d="M351 0h-230l935 1435h228zM1737 579c166 0 308 -133 308 -301c0 -169 -144 -301 -310 -301c-168 0 -306 131 -306 301c0 169 141 301 308 301zM1736 408c-171 0 -172 -260 0 -260c173 0 174 260 0 260zM374 1453c166 0 308 -133 308 -301c0 -169 -144 -301 -310 -301
c-168 0 -306 131 -306 301c0 169 141 301 308 301zM373 1282c-171 0 -172 -260 0 -260c173 0 174 260 0 260zM1028 579c166 0 308 -133 308 -301c0 -169 -144 -301 -310 -301c-168 0 -306 131 -306 301c0 169 141 301 308 301zM1027 408c-171 0 -172 -260 0 -260
c173 0 174 260 0 260z" />
    <glyph glyph-name="uni2031" unicode="&#x2031;" horiz-adv-x="1216" 
d="M224 -96h-224l998 1530h222z" />
    <glyph glyph-name="minute" unicode="&#x2032;" horiz-adv-x="423" 
d="M109 1047v553h197v-553h-197z" />
    <glyph glyph-name="second" unicode="&#x2033;" horiz-adv-x="713" 
d="M406 1047v553h197v-553h-197zM110 1047v553h197v-553h-197z" />
    <glyph glyph-name="guilsinglleft" unicode="&#x2039;" horiz-adv-x="629" 
d="M580 1049v-246l-267 -184l267 -179v-241l-580 418z" />
    <glyph glyph-name="guilsinglright" unicode="&#x203a;" horiz-adv-x="629" 
d="M52 1049l580 -432l-580 -418v241l266 179l-266 184v246z" />
    <glyph glyph-name="uni203B" unicode="&#x203b;" horiz-adv-x="1321" 
d="M107 818h212v-210h-212v210zM879 372l-225 225l-225 -225l-120 120l225 225l-225 226l120 119l225 -225l226 225l120 -120l-225 -225l225 -225zM555 1262h212v-210h-212v210zM555 373h212v-210h-212v210zM1003 818h212v-210h-212v210z" />
    <glyph glyph-name="exclamdbl" unicode="&#x203c;" horiz-adv-x="815" 
d="M508 356v1078h197v-1078h-197zM726 103c0 -64 -55 -120 -119 -120c-66 0 -120 54 -120 120c0 158 239 158 239 0zM110 356v1078h197v-1078h-197zM328 103c0 -64 -55 -120 -119 -120c-66 0 -120 54 -120 120c0 158 239 158 239 0z" />
    <glyph glyph-name="uni203E" unicode="&#x203e;" horiz-adv-x="1288" 
d="M110 1525v192h1067v-192h-1067z" />
    <glyph glyph-name="uni2042" unicode="&#x2042;" horiz-adv-x="1383" 
d="M758 1367l-8 -181l168 63l44 -131l-177 -49l114 -142l-111 -81l-101 153l-100 -153l-112 82l115 143l-176 49l43 131l168 -63l-7 179h140zM382 744l-8 -181l168 63l44 -131l-177 -49l114 -142l-111 -81l-101 153l-100 -153l-112 82l115 143l-176 49l43 131l168 -63
l-7 179h140zM1138 745l-8 -181l168 63l44 -131l-177 -49l114 -142l-111 -81l-101 153l-100 -153l-112 82l115 143l-176 49l43 131l168 -63l-7 179h140z" />
    <glyph glyph-name="uni2043" unicode="&#x2043;" horiz-adv-x="766" 
d="M110 571h544v-191h-544v191z" />
    <glyph glyph-name="fraction" unicode="&#x2044;" horiz-adv-x="1156" 
d="M126 -152h-225l1131 1736h224z" />
    <glyph glyph-name="uni2045" unicode="&#x2045;" horiz-adv-x="571" 
d="M521 470h-210v-665h232v-192h-433v1818h433v-186h-232v-583h210v-192z" />
    <glyph glyph-name="uni2046" unicode="&#x2046;" horiz-adv-x="573" 
d="M62 662h197v583h-233v186h434v-1818h-434v192h233v665h-197v192z" />
    <glyph glyph-name="uni204B" unicode="&#x204b;" horiz-adv-x="1140" 
d="M76 1435h644c213 0 396 -119 393 -349c-3 -223 -168 -338 -377 -348v-738h-186v1238h-166v-1238h-181v1238h-127v197z" />
    <glyph glyph-name="uni204C" unicode="&#x204c;" horiz-adv-x="485" 
d="M66 617c0 98 81 177 178 177c96 0 176 -81 176 -177c0 -95 -82 -176 -177 -176c-99 0 -177 77 -177 176z" />
    <glyph glyph-name="uni204D" unicode="&#x204d;" horiz-adv-x="485" 
d="M66 617c0 98 81 177 178 177c96 0 176 -81 176 -177c0 -95 -82 -176 -177 -176c-99 0 -177 77 -177 176z" />
    <glyph glyph-name="uni204E" unicode="&#x204e;" horiz-adv-x="624" 
d="M382 499l-8 -181l168 63l44 -131l-177 -49l114 -142l-111 -81l-101 153l-100 -153l-112 82l115 143l-176 49l43 131l168 -63l-7 179h140z" />
    <glyph glyph-name="uni2051" unicode="&#x2051;" horiz-adv-x="624" 
d="M382 499l-8 -181l168 63l44 -131l-177 -49l114 -142l-111 -81l-101 153l-100 -153l-112 82l115 143l-176 49l43 131l168 -63l-7 179h140zM382 1449l-8 -181l168 63l44 -131l-177 -49l114 -142l-111 -81l-101 153l-100 -153l-112 82l115 143l-176 49l43 131l168 -63
l-7 179h140z" />
    <glyph glyph-name="uni2052" unicode="&#x2052;" horiz-adv-x="929" 
d="M77 -49l571 1284h205l-571 -1284h-205zM346 1074c0 -64 -55 -120 -119 -120c-66 0 -120 54 -120 120c0 158 239 158 239 0zM831 115c0 -64 -55 -120 -119 -120c-66 0 -120 54 -120 120c0 158 239 158 239 0z" />
    <glyph glyph-name="uni2053" unicode="&#x2053;" horiz-adv-x="1350" 
d="M1327 806v-236c-123 -83 -228 -110 -375 -110c-96 0 -180 19 -269 50c-94 34 -187 82 -288 82c-143 0 -263 -68 -370 -157v235c103 69 245 111 369 111c94 0 177 -19 264 -50c95 -34 191 -82 294 -82c157 0 257 61 375 157z" />
    <glyph glyph-name="zerosuperior" unicode="&#x2070;" horiz-adv-x="764" 
d="M385 1022c136 0 157 173 157 275c0 103 -20 276 -157 276c-135 0 -165 -173 -165 -276c0 -106 27 -275 165 -275zM722 1297c0 -213 -88 -447 -337 -447c-247 0 -344 233 -344 447s97 449 344 449c250 0 337 -235 337 -449z" />
    <glyph glyph-name="foursuperior" unicode="&#x2074;" horiz-adv-x="671" 
d="M15 1192l372 524h148v-478h121v-170h-121v-204h-177v204h-343v124zM368 1422l-139 -194h139v194z" />
    <glyph glyph-name="fivesuperior" unicode="&#x2075;" horiz-adv-x="609" 
d="M209 1546v-147c26 22 62 30 96 30c167 0 287 -119 287 -286s-142 -305 -308 -305c-105 0 -195 52 -267 126l125 120c38 -37 84 -76 140 -76c71 0 131 60 131 131c0 72 -53 125 -124 127c-49 1 -88 -20 -118 -58l-127 62v446h500v-170h-335z" />
    <glyph glyph-name="sixsuperior" unicode="&#x2076;" horiz-adv-x="619" 
d="M309 1010c152 0 158 239 0 239c-156 0 -155 -239 0 -239zM334 1716h218l-218 -306c150 -10 270 -127 270 -280c0 -163 -133 -291 -295 -291c-161 0 -295 129 -295 291c0 89 32 171 82 243z" />
    <glyph glyph-name="sevensuperior" unicode="&#x2077;" horiz-adv-x="614" 
d="M-2 1716h619v-123l-370 -732h-201l345 681h-393v174z" />
    <glyph glyph-name="eightsuperior" unicode="&#x2078;" horiz-adv-x="633" 
d="M316 1025c145 0 143 220 0 220c-142 0 -148 -220 0 -220zM316 1576c-110 0 -108 -165 0 -165c105 0 111 165 0 165zM124 1338c-39 42 -61 100 -61 158c0 141 114 245 253 245c136 0 252 -107 252 -245c0 -59 -21 -115 -61 -158c59 -50 93 -127 93 -204
c0 -160 -125 -280 -284 -280c-259 0 -377 302 -192 484z" />
    <glyph glyph-name="ninesuperior" unicode="&#x2079;" horiz-adv-x="609" 
d="M304 1571c-64 0 -118 -57 -118 -120c0 -65 52 -120 118 -120c158 0 158 240 0 240zM280 865h-218l218 306c-148 -3 -270 136 -270 280c0 162 133 291 294 291s296 -128 296 -291c0 -90 -31 -169 -82 -242z" />
    <glyph glyph-name="zeroinferior" unicode="&#x2080;" horiz-adv-x="764" 
d="M385 -127c136 0 157 173 157 275c0 103 -20 276 -157 276c-135 0 -165 -173 -165 -276c0 -105 28 -275 165 -275zM722 148c0 -213 -88 -446 -337 -446c-247 0 -344 232 -344 446s97 449 344 449c250 0 337 -235 337 -449z" />
    <glyph glyph-name="oneinferior" unicode="&#x2081;" horiz-adv-x="369" 
d="M38 570h293v-852h-177v681h-116v171z" />
    <glyph glyph-name="twoinferior" unicode="&#x2082;" horiz-adv-x="647" 
d="M309 -111h295v-171h-561v141l329 335c28 29 56 63 56 105c0 60 -46 109 -106 110c-65 2 -104 -52 -104 -113v-68h-176v67c0 154 126 284 281 284c158 0 280 -125 280 -282c0 -91 -48 -162 -110 -224z" />
    <glyph glyph-name="threeinferior" unicode="&#x2083;" horiz-adv-x="651" 
d="M66 343c92 365 523 255 523 -12c0 -58 -24 -124 -75 -156c70 -43 104 -117 104 -198c0 -294 -476 -424 -585 -18l168 57c18 -226 244 -155 244 -38c0 73 -61 111 -128 111h-54v159c59 0 157 -4 157 82c0 106 -188 130 -196 -47z" />
    <glyph glyph-name="fourinferior" unicode="&#x2084;" horiz-adv-x="671" 
d="M15 45l372 525h148v-478h121v-171h-121v-203h-177v203h-343v124zM368 276l-139 -195h139v195z" />
    <glyph glyph-name="fiveinferior" unicode="&#x2085;" horiz-adv-x="609" 
d="M209 400v-146c26 22 63 29 96 29c167 0 287 -119 287 -286c0 -166 -143 -304 -308 -304c-105 0 -195 51 -267 125l125 121c38 -38 84 -77 140 -77c71 0 131 60 131 131c0 72 -52 125 -124 127c-49 1 -88 -19 -118 -57l-127 61v446h500v-170h-335z" />
    <glyph glyph-name="sixinferior" unicode="&#x2086;" horiz-adv-x="619" 
d="M309 -136c153 0 157 239 0 239c-156 0 -155 -239 0 -239zM334 570h218l-218 -306c150 -10 270 -127 270 -280c0 -163 -133 -291 -295 -291c-161 0 -295 129 -295 291c0 88 32 171 82 243z" />
    <glyph glyph-name="seveninferior" unicode="&#x2087;" horiz-adv-x="614" 
d="M-2 570h619v-124l-368 -728h-202l344 678h-393v174z" />
    <glyph glyph-name="eightinferior" unicode="&#x2088;" horiz-adv-x="633" 
d="M316 -125c144 0 144 220 0 220c-143 0 -147 -220 0 -220zM316 426c-111 0 -108 -165 0 -165c104 0 112 165 0 165zM124 188c-39 43 -61 100 -61 158c0 141 114 245 253 245c136 0 252 -107 252 -245c0 -59 -21 -114 -61 -158c59 -50 93 -127 93 -204
c0 -161 -125 -279 -284 -279c-259 0 -377 301 -192 483z" />
    <glyph glyph-name="nineinferior" unicode="&#x2089;" horiz-adv-x="609" 
d="M304 424c-64 0 -118 -57 -118 -120c0 -65 52 -120 118 -120c158 0 158 240 0 240zM280 -282h-218l218 306c-148 -3 -270 137 -270 280c0 162 133 291 294 291s296 -128 296 -291c0 -89 -32 -169 -82 -242z" />
    <glyph glyph-name="franc" unicode="&#x20a3;" horiz-adv-x="1050" 
d="M694 252h-356v-252h-194v252h-144v190h144v992h906v-189h-712v-395h528v-192h-528v-216h356v-190z" />
    <glyph glyph-name="lira" unicode="&#x20a4;" horiz-adv-x="925" 
d="M471 843v-171h283v-184h-283v-301h371v-187h-569v488h-267v184h267v171h-267v184h267c0 272 169 406 431 406h153v-191c-179 0 -387 33 -386 -215h284v-184h-284z" />
    <glyph glyph-name="Euro" unicode="&#x20ac;" horiz-adv-x="1457" 
d="M994 459h-687c93 -194 286 -302 499 -302c173 0 339 98 444 232l152 -123c-142 -179 -365 -300 -596 -300c-424 0 -752 328 -752 752c0 422 330 750 752 750c231 0 418 -95 569 -267l-145 -130c-107 124 -258 206 -424 206c-208 0 -399 -120 -495 -304h683v-183h-740
c-6 -48 -6 -100 0 -148h740v-183z" />
    <glyph glyph-name="uni2105" unicode="&#x2105;" horiz-adv-x="2056" 
d="M696 905l158 -115c-87 -118 -217 -207 -368 -207c-229 0 -424 192 -424 421s195 421 424 421c148 0 278 -88 366 -202l-159 -111c-51 63 -121 123 -207 123c-129 0 -226 -104 -226 -231c0 -120 105 -230 226 -230c89 0 160 64 210 131zM1582 -4c-232 0 -427 191 -427 424
c0 221 206 426 427 426c233 0 428 -193 428 -426s-197 -424 -428 -424zM1354 422c0 -125 103 -230 228 -230s228 106 228 230c0 125 -102 231 -228 231s-228 -106 -228 -231zM614 -96h-231l994 1525h228z" />
    <glyph glyph-name="uni2116" unicode="&#x2116;" horiz-adv-x="2178" 
d="M1772 1080c166 0 307 -133 307 -301s-144 -300 -309 -300c-167 0 -306 131 -306 300c0 170 140 301 308 301zM1465 213v179h613v-179h-613zM1771 909c-169 0 -171 -259 0 -259c70 0 129 59 129 129c0 71 -58 130 -129 130zM110 1434h172l831 -1081v1081h196v-1434h-172
l-831 1081v-1081h-196v1434z" />
    <glyph glyph-name="uni2117" unicode="&#x2117;" horiz-adv-x="1608" 
d="M774 722h69c53 0 99 24 99 83c0 62 -43 83 -99 83h-69v-166zM592 1058h253c170 0 279 -72 279 -252c0 -171 -103 -252 -268 -252h-74v-196h-190v700zM821 155c312 0 558 249 558 560s-246 562 -558 562s-559 -251 -559 -562s248 -560 559 -560zM1576 715
c0 -418 -339 -749 -755 -749c-417 0 -756 330 -756 749c0 417 340 753 756 753c417 0 755 -335 755 -753z" />
    <glyph glyph-name="trademark" unicode="&#x2122;" horiz-adv-x="1471" 
d="M622 790v467h-184v-467h-182v467h-196v180h716l215 -285l216 285h154v-647h-183v339l-187 -244l-186 243v-338h-183z" />
    <glyph glyph-name="onethird" unicode="&#x2153;" horiz-adv-x="1461" 
d="M39 1434h293v-852h-177v681h-116v171zM850 625c92 365 523 255 523 -12c0 -58 -24 -124 -75 -156c70 -43 104 -117 104 -198c0 -294 -476 -424 -585 -18l168 57c18 -226 244 -155 244 -38c0 73 -61 111 -128 111h-54v159c59 0 157 -4 157 82c0 106 -188 130 -196 -47z
M220 -152h-225l1131 1736h224z" />
    <glyph glyph-name="twothirds" unicode="&#x2154;" horiz-adv-x="1609" 
d="M309 753h295v-170h-561v141l329 334c28 28 56 64 56 106c0 60 -46 108 -106 109c-64 1 -104 -51 -104 -112v-68h-176v67c0 154 126 284 281 284c157 0 280 -125 280 -282c0 -92 -48 -162 -110 -224zM390 -152h-225l1131 1736h224zM1005 625c92 365 523 255 523 -12
c0 -58 -24 -124 -75 -156c70 -43 104 -117 104 -198c0 -294 -476 -424 -585 -18l168 57c18 -226 244 -155 244 -38c0 73 -61 111 -128 111h-54v159c59 0 157 -4 157 82c0 106 -188 130 -196 -47z" />
    <glyph glyph-name="oneeighth" unicode="&#x215b;" horiz-adv-x="1458" 
d="M32 1434h293v-852h-177v681h-116v171zM1138 157c144 0 144 220 0 220c-143 0 -147 -220 0 -220zM1138 708c-111 0 -108 -165 0 -165c104 0 112 165 0 165zM946 470c-39 43 -61 100 -61 158c0 141 114 245 253 245c136 0 252 -107 252 -245c0 -59 -21 -114 -61 -158
c59 -50 93 -127 93 -204c0 -161 -125 -279 -284 -279c-259 0 -377 301 -192 483zM213 -152h-225l1131 1736h224z" />
    <glyph glyph-name="threeeighths" unicode="&#x215c;" horiz-adv-x="1681" 
d="M99 1210c92 365 523 255 523 -12c0 -58 -24 -123 -75 -156c70 -43 104 -117 104 -198c0 -293 -477 -424 -585 -18l168 57c18 -225 244 -154 244 -38c0 73 -61 111 -128 111h-54v159c59 0 157 -4 157 82c0 106 -188 130 -196 -47zM1363 157c144 0 144 220 0 220
c-143 0 -147 -220 0 -220zM1363 708c-111 0 -108 -165 0 -165c104 0 112 165 0 165zM1171 470c-39 43 -61 100 -61 158c0 141 114 245 253 245c136 0 252 -107 252 -245c0 -59 -21 -114 -61 -158c59 -50 93 -127 93 -204c0 -161 -125 -279 -284 -279
c-259 0 -377 301 -192 483zM421 -152h-225l1131 1736h224z" />
    <glyph glyph-name="fiveeighths" unicode="&#x215d;" horiz-adv-x="1665" 
d="M243 1264v-147c26 22 62 30 96 30c167 0 287 -119 287 -286s-142 -305 -308 -305c-105 0 -195 52 -267 126l125 120c38 -37 84 -76 140 -76c71 0 131 60 131 131c0 72 -53 125 -124 127c-49 1 -88 -20 -118 -58l-127 62v446h500v-170h-335zM1347 157c144 0 144 220 0 220
c-143 0 -147 -220 0 -220zM1347 708c-111 0 -108 -165 0 -165c104 0 112 165 0 165zM1155 470c-39 43 -61 100 -61 158c0 141 114 245 253 245c136 0 252 -107 252 -245c0 -59 -21 -114 -61 -158c59 -50 93 -127 93 -204c0 -161 -125 -279 -284 -279
c-259 0 -377 301 -192 483zM409 -152h-225l1131 1736h224z" />
    <glyph glyph-name="seveneighths" unicode="&#x215e;" horiz-adv-x="1506" 
d="M-3 1434h619v-123l-370 -732h-201l345 681h-393v174zM1178 157c144 0 144 220 0 220c-143 0 -147 -220 0 -220zM1178 708c-111 0 -108 -165 0 -165c104 0 112 165 0 165zM986 470c-39 43 -61 100 -61 158c0 141 114 245 253 245c136 0 252 -107 252 -245
c0 -59 -21 -114 -61 -158c59 -50 93 -127 93 -204c0 -161 -125 -279 -284 -279c-259 0 -377 301 -192 483zM240 -152h-225l1131 1736h224z" />
    <glyph glyph-name="partialdiff" unicode="&#x2202;" horiz-adv-x="1150" 
d="M234 511c0 -193 145 -351 341 -351c195 0 340 159 340 351c0 191 -145 353 -340 353s-341 -161 -341 -353zM99 1421c583 42 1001 -223 1001 -842c0 -314 -187 -601 -525 -601c-299 0 -525 235 -525 532c0 285 221 529 512 529c148 0 258 -73 333 -197
c-99 357 -475 424 -796 395v184z" />
    <glyph glyph-name="increment" unicode="&#x2206;" horiz-adv-x="1394" 
d="M25 0l670 1551l669 -1551h-1339zM695 1072l-388 -895h774z" />
    <glyph glyph-name="product" unicode="&#x220f;" horiz-adv-x="1224" 
d="M911 1240h-597v-1659h-204v1853h1003v-1853h-202v1659z" />
    <glyph glyph-name="summation" unicode="&#x2211;" horiz-adv-x="1149" 
d="M110 1270v164h929v-194h-661l548 -726l-547 -707h660v-193h-929v163l566 739z" />
    <glyph glyph-name="minus" unicode="&#x2212;" horiz-adv-x="914" 
d="M804 621h-694v190h694v-190z" />
    <glyph glyph-name="uni2215" unicode="&#x2215;" horiz-adv-x="1162" 
d="M132 -152h-231l1131 1736h230z" />
    <glyph glyph-name="uni2219" unicode="&#x2219;" horiz-adv-x="450" 
d="M110 807h224v-219h-224v219z" />
    <glyph glyph-name="radical" unicode="&#x221a;" horiz-adv-x="1049" 
d="M1049 1534l-689 -1651l-388 838h206l174 -387l570 1377h301v-177h-174z" />
    <glyph glyph-name="infinity" unicode="&#x221e;" horiz-adv-x="1472" 
d="M736 452c-68 -73 -164 -113 -264 -113c-198 0 -362 159 -362 358s164 359 362 359c100 0 196 -41 264 -114c68 73 164 114 264 114c198 0 362 -160 362 -359s-164 -358 -362 -358c-100 0 -196 40 -264 113zM835 697c0 -90 75 -165 165 -165s165 75 165 165
c0 91 -74 166 -165 166s-165 -76 -165 -166zM307 697c0 -90 75 -165 165 -165s165 75 165 165c0 91 -74 166 -165 166s-165 -76 -165 -166z" />
    <glyph glyph-name="intersection" unicode="&#x2229;" horiz-adv-x="1385" 
d="M91 0v870c0 332 270 598 601 598c329 0 601 -268 601 -598v-870h-200v870c0 222 -178 405 -401 405c-226 0 -403 -180 -403 -405v-870h-198z" />
    <glyph glyph-name="integral" unicode="&#x222b;" horiz-adv-x="670" 
d="M3 -200c56 97 113 195 153 300c83 214 81 454 81 681c0 374 36 530 220 853h210c-198 -331 -234 -479 -234 -860c0 -416 -5 -603 -219 -974h-211z" />
    <glyph glyph-name="approxequal" unicode="&#x2248;" horiz-adv-x="890" 
d="M110 986c45 46 111 58 173 58c131 0 217 -99 326 -99c85 0 125 30 171 98v-228c-46 -43 -109 -59 -171 -59c-136 0 -211 97 -326 97c-84 0 -127 -29 -173 -97v230zM110 616c45 46 111 58 173 58c131 0 217 -99 326 -99c85 0 125 30 171 98v-228
c-46 -43 -109 -59 -171 -59c-136 0 -211 97 -326 97c-84 0 -127 -29 -173 -97v230z" />
    <glyph glyph-name="notequal" unicode="&#x2260;" horiz-adv-x="911" 
d="M257 272h-174l112 177h-87v190h207l97 154h-304v190h424l113 178h172l-112 -178h97v-190h-217l-97 -154h314v-190h-434z" />
    <glyph glyph-name="lessequal" unicode="&#x2264;" horiz-adv-x="742" 
d="M638 1148v-246l-263 -183l263 -176v-245l-580 419zM638 57h-561v191h561v-191z" />
    <glyph glyph-name="greaterequal" unicode="&#x2265;" horiz-adv-x="741" 
d="M107 1148l580 -431l-580 -419v245l263 176l-263 183v246zM107 57v191h561v-191h-561z" />
    <glyph glyph-name="commaaccent" unicode="&#xf6c3;" horiz-adv-x="362" 
d="M110 1090v410h210l-61 -410h-149z" />
    <glyph glyph-name="fi.003" horiz-adv-x="977" 
d="M880 1252c-119 0 -239 0 -358 -1c-157 -1 -235 -63 -234 -227h592v-1024h-187v841h-404v-841h-189v1024c0 281 156 410 431 410h349v-182z" />
    <glyph glyph-name="fl.003" horiz-adv-x="997" 
d="M900 0h-187v841h-424v-841h-189v1024c0 281 156 410 431 410h369v-1434zM713 1251h-191c-157 0 -234 -64 -234 -227h425v227z" />
    <glyph glyph-name="ff.003" horiz-adv-x="1305" 
d="M1288 1252c-188 0 -371 23 -370 -228h370v-183h-369v-841h-189v841h-437v-841h-189v1024c0 281 156 410 431 410h127v-182c-188 0 -371 23 -370 -228h438c0 281 157 410 431 410h127v-182z" />
    <glyph glyph-name="ffi.003" horiz-adv-x="1615" 
d="M1511 1252c-119 0 -239 0 -358 -1c-157 -1 -235 -63 -234 -227h592v-1024h-187v841h-404v-841h-189v841h-438v-841h-189v1024c0 281 156 410 431 410h127v-182c-188 0 -371 23 -370 -228h439c0 281 157 410 431 410h349v-182z" />
    <glyph glyph-name="ffl.003" horiz-adv-x="1643" 
d="M1532 0h-187v841h-424v-841h-189v841h-444v-841h-189v1024c0 281 156 410 431 410h127v-182c-187 0 -372 23 -370 -228h445c0 281 157 410 431 410h369v-1434zM1345 1251h-191c-157 0 -234 -64 -234 -227h425v227z" />
    <glyph glyph-name="st.003" horiz-adv-x="1450" 
d="M1389 182l6 -184c-34 -5 -69 -9 -104 -9c-248 0 -378 175 -378 411v440h-490c-75 0 -205 -15 -205 -116c0 -197 537 -103 537 -455c0 -211 -214 -291 -393 -291c-113 0 -227 33 -328 82l74 165c77 -37 166 -69 253 -69c69 0 206 26 206 117c0 193 -538 117 -538 454
c0 212 211 296 393 296h491v313h189v-312h284v-185h-284v-439c0 -143 59 -233 212 -224z" />
    <glyph glyph-name="_527" horiz-adv-x="30" 
 />
    <glyph glyph-name="a.003" horiz-adv-x="947" 
d="M664 120c-156 -278 -601 -113 -601 209c0 310 425 486 601 220v58c0 159 -57 259 -225 259c-91 0 -166 -31 -213 -113l-142 100c76 135 220 193 370 193c277 0 398 -172 398 -438c0 -203 -1 -405 -1 -608h-187v120zM254 328c0 -233 421 -241 421 0s-421 235 -421 0z" />
    <glyph glyph-name="f.003" horiz-adv-x="682" 
d="M654 1252c-188 0 -371 23 -370 -228h370v-183h-369v-841h-189v1024c0 281 156 410 431 410h127v-182z" />
    <glyph glyph-name="t.003" horiz-adv-x="592" 
d="M569 182l6 -184c-34 -5 -69 -9 -104 -9c-248 0 -378 175 -378 411v936h189v-312h284v-185h-284v-439c0 -142 59 -234 212 -224z" />
    <glyph glyph-name="undercommaaccent" horiz-adv-x="366" 
d="M110 -511v411h210l-61 -411h-149z" />
    <glyph glyph-name="zero.numerator" horiz-adv-x="764" 
d="M385 740c136 0 157 173 157 275c0 103 -20 276 -157 276c-135 0 -165 -173 -165 -276c0 -106 27 -275 165 -275zM722 1015c0 -213 -88 -447 -337 -447c-247 0 -344 233 -344 447s97 449 344 449c250 0 337 -235 337 -449z" />
    <glyph glyph-name="one.numerator" horiz-adv-x="369" 
d="M38 1434h293v-852h-177v681h-116v171z" />
    <glyph glyph-name="two.numerator" horiz-adv-x="647" 
d="M309 753h295v-170h-561v141l329 334c28 28 56 64 56 106c0 60 -46 108 -106 109c-64 1 -104 -51 -104 -112v-68h-176v67c0 154 126 284 281 284c157 0 280 -125 280 -282c0 -92 -48 -162 -110 -224z" />
    <glyph glyph-name="three.numerator" horiz-adv-x="651" 
d="M66 1210c92 365 523 255 523 -12c0 -58 -24 -123 -75 -156c70 -43 104 -117 104 -198c0 -293 -477 -424 -585 -18l168 57c18 -225 244 -154 244 -38c0 73 -61 111 -128 111h-54v159c59 0 157 -4 157 82c0 106 -188 130 -196 -47z" />
    <glyph glyph-name="four.numerator" horiz-adv-x="671" 
d="M15 910l372 524h148v-478h121v-170h-121v-204h-177v204h-343v124zM368 1140l-139 -194h139v194z" />
    <glyph glyph-name="five.numerator" horiz-adv-x="609" 
d="M209 1264v-147c26 22 62 30 96 30c167 0 287 -119 287 -286s-142 -305 -308 -305c-105 0 -195 52 -267 126l125 120c38 -37 84 -76 140 -76c71 0 131 60 131 131c0 72 -53 125 -124 127c-49 1 -88 -20 -118 -58l-127 62v446h500v-170h-335z" />
    <glyph glyph-name="six.numerator" horiz-adv-x="619" 
d="M309 728c152 0 158 239 0 239c-156 0 -155 -239 0 -239zM334 1434h218l-218 -306c150 -10 270 -127 270 -280c0 -163 -133 -291 -295 -291c-161 0 -295 129 -295 291c0 89 32 171 82 243z" />
    <glyph glyph-name="seven.numerator" horiz-adv-x="614" 
d="M-2 1434h619v-123l-370 -732h-201l345 681h-393v174z" />
    <glyph glyph-name="eight.numerator" horiz-adv-x="633" 
d="M316 743c145 0 143 220 0 220c-142 0 -148 -220 0 -220zM316 1294c-110 0 -108 -165 0 -165c105 0 111 165 0 165zM124 1056c-39 42 -61 100 -61 158c0 141 114 245 253 245c136 0 252 -107 252 -245c0 -59 -21 -115 -61 -158c59 -50 93 -127 93 -204
c0 -160 -125 -280 -284 -280c-259 0 -377 302 -192 484z" />
    <glyph glyph-name="nine.numerator" horiz-adv-x="609" 
d="M304 1289c-64 0 -118 -57 -118 -120c0 -65 52 -120 118 -120c158 0 158 240 0 240zM280 583h-218l218 306c-148 -3 -270 136 -270 280c0 162 133 291 294 291s296 -128 296 -291c0 -90 -31 -169 -82 -242z" />
    <glyph glyph-name="zero.denominator" horiz-adv-x="764" 
d="M385 155c136 0 157 173 157 275c0 103 -20 276 -157 276c-135 0 -165 -173 -165 -276c0 -105 28 -275 165 -275zM722 430c0 -213 -88 -446 -337 -446c-247 0 -344 232 -344 446s97 449 344 449c250 0 337 -235 337 -449z" />
    <glyph glyph-name="one.denominator" horiz-adv-x="369" 
d="M38 852h293v-852h-177v681h-116v171z" />
    <glyph glyph-name="two.denominator" horiz-adv-x="647" 
d="M309 171h295v-171h-561v141l329 335c28 29 56 63 56 105c0 60 -46 109 -106 110c-65 2 -104 -52 -104 -113v-68h-176v67c0 154 126 284 281 284c158 0 280 -125 280 -282c0 -91 -48 -162 -110 -224z" />
    <glyph glyph-name="three.denominator" horiz-adv-x="651" 
d="M66 625c92 365 523 255 523 -12c0 -58 -24 -124 -75 -156c70 -43 104 -117 104 -198c0 -294 -476 -424 -585 -18l168 57c18 -226 244 -155 244 -38c0 73 -61 111 -128 111h-54v159c59 0 157 -4 157 82c0 106 -188 130 -196 -47z" />
    <glyph glyph-name="four.denominator" horiz-adv-x="671" 
d="M15 327l372 525h148v-478h121v-171h-121v-203h-177v203h-343v124zM368 558l-139 -195h139v195z" />
    <glyph glyph-name="five.denominator" horiz-adv-x="609" 
d="M209 682v-146c26 22 63 29 96 29c167 0 287 -119 287 -286c0 -166 -143 -304 -308 -304c-105 0 -195 51 -267 125l125 121c38 -38 84 -77 140 -77c71 0 131 60 131 131c0 72 -52 125 -124 127c-49 1 -88 -19 -118 -57l-127 61v446h500v-170h-335z" />
    <glyph glyph-name="six.denominator" horiz-adv-x="619" 
d="M309 146c153 0 157 239 0 239c-156 0 -155 -239 0 -239zM334 852h218l-218 -306c150 -10 270 -127 270 -280c0 -163 -133 -291 -295 -291c-161 0 -295 129 -295 291c0 88 32 171 82 243z" />
    <glyph glyph-name="seven.denominator" horiz-adv-x="614" 
d="M-2 852h619v-124l-368 -728h-202l344 678h-393v174z" />
    <glyph glyph-name="eight.denominator" horiz-adv-x="633" 
d="M316 157c144 0 144 220 0 220c-143 0 -147 -220 0 -220zM316 708c-111 0 -108 -165 0 -165c104 0 112 165 0 165zM124 470c-39 43 -61 100 -61 158c0 141 114 245 253 245c136 0 252 -107 252 -245c0 -59 -21 -114 -61 -158c59 -50 93 -127 93 -204
c0 -161 -125 -279 -284 -279c-259 0 -377 301 -192 483z" />
    <glyph glyph-name="nine.denominator" horiz-adv-x="609" 
d="M304 706c-64 0 -118 -57 -118 -120c0 -65 52 -120 118 -120c158 0 158 240 0 240zM280 0h-218l218 306c-148 -3 -270 137 -270 280c0 162 133 291 294 291s296 -128 296 -291c0 -89 -32 -169 -82 -242z" />
    <glyph glyph-name="f.002" horiz-adv-x="664" 
d="M0 840v184h168v174c0 349 509 340 509 0h-188c0 100 -132 104 -132 0v-174h310v-184h-311v-840h-188v840h-168z" />
    </font>
</defs>
</svg>
