<?xml version="1.0" standalone="no"?>
<!DOCTYPE svg PUBLIC "-//W3C//DTD SVG 1.1//EN" "http://www.w3.org/Graphics/SVG/1.1/DTD/svg11.dtd" >
<svg xmlns="http://www.w3.org/2000/svg" xmlns:xlink="http://www.w3.org/1999/xlink" version="1.1">
<metadata>
Created by FontForge 20190801 at Wed Aug 29 06:01:18 2018
 By Jimmy Wärting
Copyright \(c\) 2018 by Petr Bushuev. All rights reserved.
</metadata>
<defs>
<font id="Kontora-Medium" horiz-adv-x="1636" >
  <font-face 
    font-family="Kontora"
    font-weight="500"
    font-stretch="normal"
    units-per-em="2048"
    panose-1="2 1 6 3 2 0 0 0 0 0"
    ascent="1638"
    descent="-410"
    x-height="1024"
    cap-height="1434"
    bbox="-168 -558 2366 2019"
    underline-thickness="150"
    underline-position="-442"
    stemh="160"
    stemv="160"
    unicode-range="U+000D-FB06"
  />
<missing-glyph horiz-adv-x="30" 
 />
    <glyph glyph-name="ff" unicode="ff" horiz-adv-x="1040" 
d="M7 868v156h180v197c0 141 94 230 234 230c50 0 110 -27 138 -69v-199c-25 58 -69 117 -138 117c-48 0 -79 -31 -79 -79v-197h319v197c0 141 94 230 234 230c50 0 110 -27 138 -69v-199c-25 58 -69 117 -138 117c-48 0 -79 -31 -79 -79v-197h217v-156h-217v-868h-155v868
h-319v-868h-155v868h-180z" />
    <glyph glyph-name="fi" unicode="fi" horiz-adv-x="995" 
d="M735 0v868h-404v-868h-155v868h-157v156h157v107c0 210 170 320 365 320c199 0 349 -111 349 -320h-155c1 236 -404 220 -404 0v-107h559v-1024h-155z" />
    <glyph glyph-name="fl" unicode="fl" horiz-adv-x="995" 
d="M19 868v156h157v68c0 220 148 359 365 359c218 0 349 -144 349 -359h-155c1 287 -404 269 -404 0v-68h251v-156h-251v-868h-155v868h-157zM735 0v1092h155v-1092h-155z" />
    <glyph glyph-name="ffi" unicode="ffi" horiz-adv-x="1537" 
d="M1262 0v868h-404v-868h-155v868h-367v-868h-155v868h-180v156h180v197c0 141 94 230 234 230c50 0 109 -27 138 -69v-199c-25 58 -69 117 -138 117c-48 0 -79 -31 -79 -79v-197h367v107c0 210 170 320 365 320c199 0 349 -111 349 -320h-155c1 236 -404 220 -404 0v-107
h559v-1024h-155z" />
    <glyph glyph-name="ffl" unicode="ffl" horiz-adv-x="1526" 
d="M336 868v-868h-155v868h-180v156h180v197c0 141 94 230 234 230c50 0 109 -27 138 -69v-199c-25 58 -69 117 -138 117c-48 0 -79 -31 -79 -79v-197h355v68c0 220 148 359 365 359c218 0 349 -144 349 -359h-155c0 287 -404 269 -404 0v-68h251v-156h-251v-868h-155v868
h-355zM1250 0v1092h155v-1092h-155z" />
    <glyph glyph-name="s_t" unicode="st" horiz-adv-x="1389" 
d="M1001 869h-535c-87 0 -230 -18 -230 -133c0 -226 553 -110 553 -475c0 -206 -211 -284 -386 -284c-108 0 -216 28 -313 75l62 140c78 -37 163 -64 250 -64c81 0 232 30 232 135c0 219 -554 128 -554 474c0 206 209 287 385 287h536v299h155v-299h219v-155h-219v-869h-155
v869z" />
    <glyph glyph-name=".notdef" horiz-adv-x="30" 
 />
    <glyph glyph-name="NULL" horiz-adv-x="0" 
 />
    <glyph glyph-name="NULL" horiz-adv-x="0" 
 />
    <glyph glyph-name="CR" unicode="&#xd;" horiz-adv-x="600" 
 />
    <glyph glyph-name="space" unicode=" " horiz-adv-x="600" 
 />
    <glyph glyph-name="exclam" unicode="!" horiz-adv-x="380" 
d="M110 332v1102h161v-1102h-161zM292 87c0 -134 -203 -134 -203 0s203 134 203 0z" />
    <glyph glyph-name="quotedbl" unicode="&#x22;" horiz-adv-x="640" 
d="M370 1047v553h160v-553h-160zM110 1047v553h160v-553h-160z" />
    <glyph glyph-name="numbersign" unicode="#" horiz-adv-x="1306" 
d="M500 1434v-410h306v410h161v-410h307v-162h-307v-287h307v-162h-307v-413h-161v413h-306v-413h-161v413h-307v162h307v287h-307v162h307v410h161zM806 575v287h-306v-287h306z" />
    <glyph glyph-name="dollar" unicode="$" horiz-adv-x="1099" 
d="M113 220c115 -48 237 -89 363 -89c139 0 369 59 369 234c0 367 -806 182 -806 703c0 235 196 349 404 381v200h152v-191c121 -4 254 -35 364 -86l-58 -148c-105 44 -218 75 -332 75c-151 0 -370 -39 -370 -232c0 -365 806 -175 806 -703c0 -235 -202 -351 -410 -382v-194
h-152v185c-136 6 -267 49 -392 101z" />
    <glyph glyph-name="percent" unicode="%" horiz-adv-x="1322" 
d="M290 0h-190l935 1435h188zM961 559c160 0 294 -130 294 -291c0 -162 -136 -291 -296 -291c-162 0 -293 128 -293 291s133 291 295 291zM960 409c-187 0 -188 -282 0 -282c77 0 143 63 143 141s-65 141 -143 141zM361 1453c160 0 294 -130 294 -291
c0 -162 -136 -291 -296 -291c-162 0 -293 128 -293 291s133 291 295 291zM360 1303c-187 0 -188 -282 0 -282c77 0 143 63 143 141s-65 141 -143 141z" />
    <glyph glyph-name="ampersand" unicode="&#x26;" horiz-adv-x="1249" 
d="M812 692h-286c-145 0 -291 -132 -291 -280c0 -146 128 -274 274 -274c158 0 303 122 303 285v269zM972 692v-337c0 -151 103 -214 243 -214v-160c-138 0 -271 38 -343 166c-80 -113 -225 -169 -361 -169c-235 0 -437 199 -437 435c0 148 83 289 212 362
c-100 63 -161 178 -161 296c0 214 191 379 399 379c94 0 196 -30 267 -92l-84 -137c-52 41 -117 68 -184 68c-118 0 -237 -97 -237 -220c0 -120 125 -216 239 -216h287v293h160v-293h243v-161h-243z" />
    <glyph glyph-name="quotesingle" unicode="'" horiz-adv-x="380" 
d="M110 1047v553h160v-553h-160z" />
    <glyph glyph-name="parenleft" unicode="(" horiz-adv-x="476" 
d="M297 1587h179c-352 -619 -354 -1125 0 -1743h-179c-323 592 -321 1151 0 1743z" />
    <glyph glyph-name="parenright" unicode=")" horiz-adv-x="476" 
d="M0 1587h179c321 -592 323 -1151 0 -1743h-179c354 618 352 1124 0 1743z" />
    <glyph glyph-name="asterisk" unicode="*" horiz-adv-x="620" 
d="M373 1531l-6 -188l175 64l40 -119l-182 -53l116 -148l-101 -73l-106 157l-105 -157l-102 74l118 150l-182 52l39 119l176 -64l-6 186h126z" />
    <glyph glyph-name="plus" unicode="+" horiz-adv-x="889" 
d="M779 636h-253v-278h-161v278h-255v160h255v278h161v-278h253v-160z" />
    <glyph glyph-name="comma" unicode="," horiz-adv-x="394" 
d="M110 -200v400h174l-58 -400h-116z" />
    <glyph glyph-name="hyphen" unicode="-" horiz-adv-x="738" 
d="M110 695h516v-162h-516v162z" />
    <glyph glyph-name="period" unicode="." horiz-adv-x="423" 
d="M313 87c0 -134 -203 -134 -203 0s203 134 203 0z" />
    <glyph glyph-name="slash" unicode="/" horiz-adv-x="713" 
d="M-57 -153l599 1587h171l-599 -1587h-171z" />
    <glyph glyph-name="zero" unicode="0" horiz-adv-x="1263" 
d="M638 130c312 0 374 339 374 585c0 247 -61 586 -374 586c-306 0 -389 -340 -389 -586c0 -251 77 -585 389 -585zM1172 715c0 -338 -130 -744 -534 -744s-549 401 -549 744c0 341 146 747 549 747c405 0 534 -409 534 -747z" />
    <glyph glyph-name="one" unicode="1" horiz-adv-x="533" 
d="M22 1434h378v-1434h-160v1273h-218v161z" />
    <glyph glyph-name="two" unicode="2" horiz-adv-x="1053" 
d="M97 921v79c0 242 191 453 438 453c251 0 437 -202 437 -449c0 -142 -71 -269 -174 -363l-533 -485h710v-156h-877v205l585 546c70 66 129 156 129 255c0 154 -120 286 -277 286c-170 0 -277 -126 -277 -291v-80h-161z" />
    <glyph glyph-name="three" unicode="3" horiz-adv-x="1062" 
d="M125 1120c131 523 800 370 800 -49c0 -118 -59 -229 -156 -296v-4c141 -61 208 -208 208 -355c0 -247 -215 -437 -456 -437c-249 0 -394 135 -457 370l152 54c35 -165 128 -264 303 -264c150 0 297 121 297 277c0 180 -152 273 -317 273h-61v162h61c127 0 264 79 264 219
c0 126 -117 222 -238 222c-140 0 -222 -98 -250 -227z" />
    <glyph glyph-name="four" unicode="4" horiz-adv-x="1099" 
d="M678 1434h144v-892h226v-161h-226v-381h-160v381h-641v130zM664 1162l-444 -623h444v623z" />
    <glyph glyph-name="five" unicode="5" horiz-adv-x="1018" 
d="M272 1273v-416c313 184 678 -44 678 -399c0 -262 -215 -481 -478 -481c-157 0 -289 69 -396 180l112 113c79 -83 163 -132 280 -132c172 0 322 146 322 319c0 171 -134 306 -305 306c-104 0 -168 -27 -243 -100l-125 71v700h745v-161h-590z" />
    <glyph glyph-name="six" unicode="6" horiz-adv-x="1031" 
d="M601 1434h197l-267 -375c-51 -71 -99 -145 -153 -214c293 109 589 -99 589 -410c0 -254 -202 -458 -457 -458c-252 0 -458 206 -458 458c0 159 45 268 134 398c138 200 277 401 415 601zM510 138c160 0 296 137 296 297c0 163 -133 295 -296 295
c-164 0 -296 -131 -296 -295s132 -297 296 -297z" />
    <glyph glyph-name="seven" unicode="7" horiz-adv-x="1048" 
d="M53 1434h966v-131l-658 -1303h-181l652 1273h-779v161z" />
    <glyph glyph-name="eight" unicode="8" horiz-adv-x="1044" 
d="M522 142c152 0 277 121 277 274c0 154 -122 280 -277 280c-153 0 -277 -128 -277 -280c0 -155 123 -274 277 -274zM522 1296c-119 0 -219 -94 -219 -214c0 -122 96 -223 219 -223c120 0 218 105 218 223c0 123 -96 214 -218 214zM281 785c-88 73 -138 183 -138 297
c0 212 168 374 379 374c206 0 379 -166 379 -374c0 -117 -48 -221 -137 -297c121 -79 196 -225 196 -369c0 -247 -192 -435 -438 -435c-431 0 -604 557 -241 804z" />
    <glyph glyph-name="nine" unicode="9" horiz-adv-x="1031" 
d="M418 0h-197l267 375c51 71 99 145 153 214c-293 -109 -589 99 -589 410c0 254 202 458 457 458c252 0 458 -206 458 -458c0 -159 -45 -268 -134 -398c-138 -200 -277 -401 -415 -601zM509 1296c-160 0 -296 -137 -296 -297c0 -163 133 -295 296 -295
c164 0 296 131 296 295s-132 297 -296 297z" />
    <glyph glyph-name="colon" unicode=":" horiz-adv-x="423" 
d="M313 938c0 -134 -203 -134 -203 0s203 134 203 0zM313 87c0 -134 -203 -134 -203 0s203 134 203 0z" />
    <glyph glyph-name="semicolon" unicode=";" horiz-adv-x="423" 
d="M313 931c0 -134 -203 -134 -203 0s203 134 203 0zM125 -200v400h174l-58 -400h-116z" />
    <glyph glyph-name="less" unicode="&#x3c;" horiz-adv-x="591" 
d="M542 1120v-208l-272 -193l272 -186v-207l-542 391z" />
    <glyph glyph-name="equal" unicode="=" horiz-adv-x="889" 
d="M779 800h-669v160h669v-160zM779 472h-669v160h669v-160z" />
    <glyph glyph-name="greater" unicode="&#x3e;" horiz-adv-x="591" 
d="M49 912v208l542 -403l-542 -391v207l272 186z" />
    <glyph glyph-name="question" unicode="?" horiz-adv-x="928" 
d="M545 361h-148c-55 353 341 387 341 671c0 174 -105 271 -277 271c-210 0 -307 -154 -283 -351h-148c-64 652 856 655 856 80c0 -364 -399 -364 -341 -671zM574 87c0 -134 -203 -134 -203 0s203 134 203 0z" />
    <glyph glyph-name="at" unicode="@" horiz-adv-x="1586" 
d="M778 316c110 0 197 86 197 196c0 109 -88 197 -197 197c-110 0 -196 -87 -196 -197s86 -196 196 -196zM945 -215c-465 -91 -895 248 -895 726c0 412 330 742 742 742c413 0 742 -329 742 -742c0 -188 -87 -512 -322 -512c-168 0 -227 166 -227 308
c-159 -292 -553 -90 -553 205c0 375 532 509 693 73v-267c0 -58 4 -174 87 -174c137 0 172 266 172 367c0 330 -262 593 -592 593c-329 0 -593 -264 -593 -593c0 -330 263 -592 593 -592c44 0 87 4 130 14z" />
    <glyph glyph-name="A" unicode="A" horiz-adv-x="1407" 
d="M633 1434h141l608 -1434h-174l-185 431h-639l-186 -431h-173zM704 1201l-257 -610h513z" />
    <glyph glyph-name="B" unicode="B" horiz-adv-x="1138" 
d="M272 680v-519c127 0 254 1 381 1c142 0 259 117 259 259c0 148 -125 259 -270 259h-370zM272 841h349c116 0 216 101 216 217c0 119 -100 215 -218 215h-347v-432zM830 776c154 -67 244 -183 244 -355c0 -234 -185 -421 -419 -421h-545v1434h523c199 0 365 -180 365 -376
c0 -126 -60 -220 -168 -282z" />
    <glyph glyph-name="C" unicode="C" horiz-adv-x="1449" 
d="M1394 254c-141 -168 -360 -289 -583 -289c-424 0 -750 330 -750 753c0 421 328 751 750 751c225 0 405 -93 556 -255l-116 -112c-116 125 -267 207 -440 207c-324 0 -590 -267 -590 -591c0 -340 249 -593 590 -593c174 0 351 102 461 233z" />
    <glyph glyph-name="D" unicode="D" horiz-adv-x="1399" 
d="M270 160h314c325 0 597 219 597 557c0 336 -274 557 -597 557h-314v-1114zM110 1434h474c413 0 757 -291 757 -717c0 -427 -343 -716 -757 -716c-158 0 -316 -1 -474 -1v1434z" />
    <glyph glyph-name="E" unicode="E" horiz-adv-x="1116" 
d="M110 1434h955v-160h-794v-447h615v-160h-615v-505h794v-162h-955v1434z" />
    <glyph glyph-name="F" unicode="F" horiz-adv-x="997" 
d="M110 1434h887v-158h-729v-441h541v-161h-541v-674h-158v1434z" />
    <glyph glyph-name="G" unicode="G" horiz-adv-x="1443" 
d="M1202 287v319h-401v161h562v-547c-141 -149 -346 -255 -553 -255c-424 0 -750 330 -750 753c0 421 328 751 750 751c225 0 405 -93 556 -255l-116 -112c-116 125 -267 207 -440 207c-324 0 -590 -267 -590 -591c0 -340 249 -593 590 -593c142 0 286 69 392 162z" />
    <glyph glyph-name="H" unicode="H" horiz-adv-x="1352" 
d="M110 1434h161v-626h809v626h161v-1434h-161v647h-809v-647h-161v1434z" />
    <glyph glyph-name="I" unicode="I" horiz-adv-x="388" 
d="M110 0v1434h161v-1434h-161z" />
    <glyph glyph-name="J" unicode="J" horiz-adv-x="724" 
d="M621 1434v-1106c0 -195 -112 -351 -318 -351c-159 0 -270 98 -303 250l149 60c11 -86 63 -149 154 -149c114 0 157 88 157 190v1106h161z" />
    <glyph glyph-name="K" unicode="K" horiz-adv-x="1259" 
d="M110 1434h157v-588h110l583 588h219l-667 -667l746 -767h-215l-667 685h-109v-685h-157v1434z" />
    <glyph glyph-name="L" unicode="L" horiz-adv-x="920" 
d="M110 1434h160v-1273h650v-161h-810v1434z" />
    <glyph glyph-name="M" unicode="M" horiz-adv-x="1646" 
d="M1388 1434h147v-1434h-159v1140l-554 -760l-554 760v-1140h-158v1434h146l566 -777z" />
    <glyph glyph-name="N" unicode="N" horiz-adv-x="1407" 
d="M110 1434h144l883 -1142v1142h160v-1434h-145l-882 1142v-1142h-160v1434z" />
    <glyph glyph-name="O" unicode="O" 
d="M818 124c329 0 593 261 593 591s-263 593 -593 593c-329 0 -593 -264 -593 -593s264 -591 593 -591zM1571 715c0 -417 -337 -750 -753 -750s-753 333 -753 750c0 416 337 754 753 754c417 0 753 -337 753 -754z" />
    <glyph glyph-name="P" unicode="P" horiz-adv-x="1145" 
d="M271 1273v-631h359c178 0 315 137 315 315c0 173 -141 316 -315 316h-359zM271 482v-482h-161v1434h520c265 0 475 -213 475 -477c0 -263 -211 -475 -475 -475h-359z" />
    <glyph glyph-name="Q" unicode="Q" 
d="M738 -357v327c-383 40 -673 359 -673 745c0 416 337 754 753 754c417 0 753 -337 753 -754c0 -386 -290 -706 -674 -746v-326h-159zM818 124c329 0 593 261 593 591s-263 593 -593 593c-329 0 -593 -264 -593 -593s264 -591 593 -591z" />
    <glyph glyph-name="R" unicode="R" horiz-adv-x="1212" 
d="M271 1273v-575h364c168 0 306 112 306 286s-137 289 -306 289h-364zM992 0l-370 538h-351v-538h-161v1434h525c252 0 467 -193 467 -450c0 -185 -120 -365 -305 -409l397 -575h-202z" />
    <glyph glyph-name="S" unicode="S" horiz-adv-x="1126" 
d="M154 220c114 -48 238 -89 363 -89c139 0 369 59 369 234c0 367 -806 182 -806 703c0 285 287 391 529 391c128 0 275 -32 391 -87l-58 -148c-105 44 -218 75 -332 75c-151 0 -370 -39 -370 -232c0 -365 806 -175 806 -703c0 -280 -291 -392 -529 -392
c-147 0 -291 46 -425 102z" />
    <glyph glyph-name="T" unicode="T" horiz-adv-x="1131" 
d="M14 1434h1103v-161h-471v-1273h-161v1273h-471v161z" />
    <glyph glyph-name="U" unicode="U" horiz-adv-x="1374" 
d="M1282 1434v-874c0 -327 -269 -595 -596 -595c-329 0 -595 266 -595 595v874h162v-874c0 -242 191 -433 433 -433c239 0 432 194 432 433v874h164z" />
    <glyph glyph-name="V" unicode="V" horiz-adv-x="1338" 
d="M1142 1434h166l-559 -1434h-160l-559 1434h166l474 -1210z" />
    <glyph glyph-name="W" unicode="W" horiz-adv-x="2112" 
d="M981 1438h150l415 -1198l375 1194h161l-460 -1434h-152l-414 1228l-415 -1228h-151l-460 1434h161l375 -1194z" />
    <glyph glyph-name="X" unicode="X" horiz-adv-x="1434" 
d="M1216 1434h208l-602 -717l602 -717h-210l-496 592l-498 -592h-210l603 717l-601 717h209l497 -592z" />
    <glyph glyph-name="Y" unicode="Y" horiz-adv-x="1385" 
d="M1179 1434h188l-593 -853v-581h-161v581l-595 853h190l486 -703z" />
    <glyph glyph-name="Z" unicode="Z" horiz-adv-x="1271" 
d="M64 1434h1144v-150l-925 -1123h925v-161h-1144v151l926 1122h-926v161z" />
    <glyph glyph-name="bracketleft" unicode="[" horiz-adv-x="535" 
d="M110 -152v1736h402v-155h-247v-1426h247v-155h-402z" />
    <glyph glyph-name="backslash" unicode="\" horiz-adv-x="713" 
d="M171 1434l599 -1587h-171l-599 1587h171z" />
    <glyph glyph-name="bracketright" unicode="]" horiz-adv-x="535" 
d="M402 1584v-1736h-402v155h247v1426h-247v155h402z" />
    <glyph glyph-name="asciicircum" unicode="^" horiz-adv-x="669" 
d="M650 1042h-174l-139 185l-144 -187h-174l318 422z" />
    <glyph glyph-name="underscore" unicode="_" horiz-adv-x="1172" 
d="M110 -262v162h951v-162h-951z" />
    <glyph glyph-name="grave" unicode="`" horiz-adv-x="432" 
d="M325 1066l-318 311l99 103l318 -311z" />
    <glyph glyph-name="a" unicode="a" horiz-adv-x="1213" 
d="M952 176c-81 -134 -212 -199 -367 -199c-300 0 -535 232 -535 533c0 504 661 737 902 333v181h155v-1024h-155v176zM204 511c0 -214 168 -379 381 -379s381 166 381 379c0 212 -169 381 -381 381s-381 -169 -381 -381z" />
    <glyph glyph-name="b" unicode="b" horiz-adv-x="1217" 
d="M265 848c80 135 212 199 367 199c300 0 535 -232 535 -533c0 -509 -667 -734 -902 -334v-180h-155v1434h155v-586zM1013 513c0 214 -168 379 -381 379s-381 -166 -381 -379c0 -212 169 -381 381 -381s381 169 381 381z" />
    <glyph glyph-name="c" unicode="c" horiz-adv-x="1087" 
d="M1033 805l-126 -89c-202 319 -703 177 -703 -205s504 -521 704 -204l124 -93c-284 -430 -982 -242 -982 296c0 296 239 537 535 537c181 0 349 -90 448 -242z" />
    <glyph glyph-name="d" unicode="d" horiz-adv-x="1214" 
d="M952 176c-81 -134 -212 -199 -367 -199c-300 0 -535 232 -535 533c0 504 661 737 902 333v591h155v-1434h-155v176zM204 511c0 -214 168 -379 381 -379s381 166 381 379c0 212 -169 381 -381 381s-381 -169 -381 -381z" />
    <glyph glyph-name="e" unicode="e" horiz-adv-x="1143" 
d="M214 591h714c-83 399 -648 390 -714 0zM1045 190c-336 -394 -995 -212 -995 321c0 292 225 535 521 535c334 0 555 -294 517 -614h-874c36 -179 191 -297 372 -297c135 0 254 59 342 161z" />
    <glyph glyph-name="f" unicode="f" horiz-adv-x="552" 
d="M0 868v156h180v197c0 141 94 230 234 230c50 0 110 -27 138 -69v-199c-25 58 -69 117 -138 117c-48 0 -79 -31 -79 -79v-197h217v-156h-217v-868h-155v868h-180z" />
    <glyph glyph-name="g" unicode="g" horiz-adv-x="1200" 
d="M952 176c-81 -134 -212 -199 -367 -199c-300 0 -535 232 -535 533c0 504 661 737 902 333v181h155v-906c0 -332 -173 -551 -517 -551c-224 0 -416 126 -510 329l143 62c67 -147 206 -235 367 -235c256 0 359 153 362 395v58zM204 511c0 -214 168 -379 381 -379
s381 166 381 379c0 212 -169 381 -381 381s-381 -169 -381 -381z" />
    <glyph glyph-name="h" unicode="h" horiz-adv-x="1081" 
d="M264 1434v-600c60 144 172 213 327 213c277 0 393 -216 393 -468v-579h-155v577c0 183 -87 315 -283 315c-190 0 -282 -136 -282 -315v-577h-155v1434h155z" />
    <glyph glyph-name="i" unicode="i" horiz-adv-x="365" 
d="M104 0v1024h156v-1024h-156zM104 1234v200h156v-200h-156z" />
    <glyph glyph-name="j" unicode="j" horiz-adv-x="364" 
d="M98 -419v1443h156v-1443h-156zM98 1234v200h156v-200h-156z" />
    <glyph glyph-name="k" unicode="k" horiz-adv-x="1002" 
d="M110 1434h157v-829h95l377 419h209l-446 -499l500 -525h-215l-426 444h-94v-444h-157v1434z" />
    <glyph glyph-name="l" unicode="l" horiz-adv-x="376" 
d="M110 0v1434h155v-1434h-155z" />
    <glyph glyph-name="m" unicode="m" horiz-adv-x="1713" 
d="M265 1024v-190c56 136 154 211 304 211c136 0 245 -73 303 -195c81 138 214 195 370 195c269 0 369 -228 369 -466v-579h-155v577c0 173 -69 313 -259 313c-182 0 -259 -149 -259 -314v-576h-155v577c0 170 -71 313 -259 313c-182 0 -259 -149 -259 -314v-576h-155v1024
h155z" />
    <glyph glyph-name="n" unicode="n" horiz-adv-x="1079" 
d="M264 1024v-190c60 144 172 213 327 213c277 0 393 -216 393 -468v-579h-155v577c0 183 -87 315 -283 315c-190 0 -282 -136 -282 -315v-577h-155v1024h155z" />
    <glyph glyph-name="o" unicode="o" horiz-adv-x="1170" 
d="M585 -23c-300 0 -535 232 -535 533c0 296 239 537 535 537c297 0 535 -240 535 -537c0 -299 -237 -533 -535 -533zM204 511c0 -214 168 -379 381 -379s381 166 381 379c0 212 -169 381 -381 381s-381 -169 -381 -381z" />
    <glyph glyph-name="p" unicode="p" horiz-adv-x="1217" 
d="M265 848c80 135 212 199 367 199c300 0 535 -232 535 -533c0 -509 -667 -734 -902 -334v-599h-155v1443h155v-176zM1013 513c0 214 -168 379 -381 379s-381 -166 -381 -379c0 -212 169 -381 381 -381s381 169 381 381z" />
    <glyph glyph-name="q" unicode="q" horiz-adv-x="1214" 
d="M952 180c-239 -401 -902 -172 -902 334c0 301 235 533 535 533c155 0 286 -65 367 -199v176h155v-1443h-155v599zM204 513c0 -212 169 -381 381 -381s381 169 381 381c0 213 -168 379 -381 379s-381 -165 -381 -379z" />
    <glyph glyph-name="r" unicode="r" horiz-adv-x="634" 
d="M265 1024v-217c48 210 178 217 367 217v-150h-102c-192 0 -265 -149 -265 -321v-553h-155v1024h155z" />
    <glyph glyph-name="s" unicode="s" horiz-adv-x="841" 
d="M686 835c-71 32 -156 57 -234 57c-89 0 -231 -22 -231 -139c0 -231 555 -112 555 -485c0 -209 -208 -291 -387 -291c-109 0 -217 29 -314 77l62 143c78 -38 163 -66 251 -66c83 0 233 32 233 139c0 224 -556 131 -556 484c0 210 205 293 386 293c100 0 200 -26 291 -67z
" />
    <glyph glyph-name="t" unicode="t" horiz-adv-x="599" 
d="M5 869v155h215v299h155v-299h219v-155h-219v-869h-155v869h-215z" />
    <glyph glyph-name="u" unicode="u" horiz-adv-x="1024" 
d="M247 1024v-626c0 -146 119 -265 265 -265c147 0 265 118 265 265v626h155v-626c0 -233 -187 -421 -420 -421c-234 0 -421 187 -421 421v626h156z" />
    <glyph glyph-name="v" unicode="v" horiz-adv-x="963" 
d="M796 1024h167l-401 -1024h-161l-401 1024h168l314 -815z" />
    <glyph glyph-name="w" unicode="w" horiz-adv-x="1500" 
d="M679 1024h142l273 -771l241 771h165l-329 -1024h-149l-272 773l-272 -773h-149l-329 1024h165l242 -772z" />
    <glyph glyph-name="x" unicode="x" horiz-adv-x="1061" 
d="M862 1024h202l-432 -512l429 -512h-202l-329 391l-328 -391h-202l430 510l-431 514h203l330 -393z" />
    <glyph glyph-name="y" unicode="y" horiz-adv-x="995" 
d="M827 1024h168l-599 -1443h-167l195 475l-424 968h170l336 -787z" />
    <glyph glyph-name="z" unicode="z" horiz-adv-x="934" 
d="M30 1024h874v-144l-654 -724h654v-156h-874v144l654 723h-654v157z" />
    <glyph glyph-name="braceleft" unicode="{" horiz-adv-x="541" 
d="M542 -151h-82c-140 0 -228 82 -228 224c0 123 1 247 1 370c0 86 -68 197 -163 197h-70v147h71c94 0 161 114 161 198v373c0 144 85 226 228 226h81v-155c-60 0 -154 18 -154 -71v-373c0 -108 -47 -225 -151 -271c105 -48 152 -160 152 -270c0 -124 -1 -247 -1 -371
c0 -89 94 -69 155 -69v-155z" />
    <glyph glyph-name="bar" unicode="|" horiz-adv-x="372" 
d="M110 -200v1834h152v-1834h-152z" />
    <glyph glyph-name="braceright" unicode="}" horiz-adv-x="542" 
d="M0 -151v155c61 0 155 -20 155 69c0 124 -1 247 -1 371c0 110 47 222 152 270c-104 46 -151 163 -151 271v373c0 89 -94 71 -154 71v155h81c143 0 228 -82 228 -226v-373c0 -84 67 -198 161 -198h71v-147h-70c-95 0 -163 -111 -163 -197c0 -123 1 -247 1 -370
c0 -142 -88 -224 -228 -224h-82z" />
    <glyph glyph-name="asciitilde" unicode="~" horiz-adv-x="1088" 
d="M110 682c73 55 132 68 223 68c148 0 275 -100 423 -100c102 0 155 24 222 99v-191c-85 -51 -121 -67 -222 -67c-149 0 -275 98 -423 98c-99 0 -159 -23 -223 -98v191z" />
    <glyph glyph-name="exclamdown" unicode="&#xa1;" horiz-adv-x="380" 
d="M110 696h161v-1102h-161v1102zM292 941c0 -134 -203 -134 -203 0s203 134 203 0z" />
    <glyph glyph-name="cent" unicode="&#xa2;" horiz-adv-x="1051" 
d="M498 -200v184c-263 41 -448 260 -448 526c0 262 189 487 448 530v189h152v-186c156 -20 297 -106 383 -238l-126 -89c-202 319 -703 177 -703 -205s504 -521 704 -204l124 -93c-86 -130 -227 -216 -382 -233v-181h-152z" />
    <glyph glyph-name="sterling" unicode="&#xa3;" horiz-adv-x="899" 
d="M445 865v-708h380v-157h-541v865h-278v159h278c0 274 158 410 425 410h131v-161c-204 0 -396 22 -395 -249h295v-159h-295z" />
    <glyph glyph-name="currency" unicode="&#xa4;" horiz-adv-x="977" 
d="M195 886l-113 114l121 126l116 -115c114 55 227 62 340 0l116 115l121 -126l-112 -112c63 -114 67 -229 0 -342l112 -112l-121 -126l-117 116c-105 -60 -233 -60 -338 0c-39 -39 -78 -77 -117 -116l-122 127l115 114c-61 103 -71 235 -1 337zM306 717
c0 -101 82 -183 183 -183s182 82 182 183s-81 182 -182 182s-183 -81 -183 -182z" />
    <glyph glyph-name="yen" unicode="&#xa5;" horiz-adv-x="1237" 
d="M1143 285h-449v-285h-151v285h-451v162h451v147h-451v162h347l-406 678h179l406 -678l407 678h179l-406 -678h345v-162h-449v-147h449v-162z" />
    <glyph glyph-name="brokenbar" unicode="&#xa6;" horiz-adv-x="372" 
d="M110 850v784h152v-784h-152zM110 -200v784h152v-784h-152z" />
    <glyph glyph-name="section" unicode="&#xa7;" horiz-adv-x="1133" 
d="M577 910c-146 0 -334 -97 -334 -262c0 -170 184 -261 334 -261c149 0 334 92 334 261s-185 262 -334 262zM907 1377c-76 121 -188 183 -330 183c-150 0 -334 -66 -334 -244c0 -197 229 -236 381 -249c222 -18 447 -178 447 -419c0 -159 -110 -294 -256 -348
c123 -56 214 -179 214 -316c0 -274 -249 -404 -494 -404c-201 0 -358 88 -465 259l136 83c75 -120 187 -183 329 -183c155 0 334 60 334 245c0 171 -197 232 -336 245c-226 22 -449 171 -449 419c0 150 104 279 235 341c-136 54 -235 178 -235 327c0 275 248 403 493 403
c201 0 357 -88 464 -258z" />
    <glyph glyph-name="dieresis" unicode="&#xa8;" horiz-adv-x="680" 
d="M110 1311h188v-182h-188v182zM380 1311h188v-182h-188v182z" />
    <glyph glyph-name="copyright" unicode="&#xa9;" horiz-adv-x="1625" 
d="M975 577l128 -107c-71 -81 -167 -130 -275 -130c-206 0 -387 159 -387 370c0 206 152 394 366 394c112 0 203 -33 281 -115l-116 -109c-40 38 -98 67 -154 67c-246 0 -279 -456 9 -456c54 0 116 44 148 86zM803 124c329 0 593 261 593 591s-263 593 -593 593
c-329 0 -593 -264 -593 -593s264 -591 593 -591zM1556 715c0 -417 -337 -750 -753 -750s-753 333 -753 750c0 416 337 754 753 754c417 0 753 -337 753 -754z" />
    <glyph glyph-name="ordfeminine" unicode="&#xaa;" horiz-adv-x="962" 
d="M469 916c102 0 204 72 204 181c0 110 -101 182 -204 182c-102 0 -204 -74 -204 -182c0 -109 102 -181 204 -181zM852 762h-156v148c-134 -281 -586 -126 -586 186c0 306 438 465 586 194v137h156v-665zM154 486v155h698v-155h-698z" />
    <glyph glyph-name="guillemotleft" unicode="&#xab;" horiz-adv-x="1014" 
d="M544 1018v-208l-272 -193l272 -186v-207l-542 391zM974 1018v-208l-272 -193l272 -186v-207l-542 391z" />
    <glyph glyph-name="logicalnot" unicode="&#xac;" horiz-adv-x="1193" 
d="M110 682v171h973v-638h-162v467h-811z" />
    <glyph glyph-name="uni00AD" unicode="&#xad;" horiz-adv-x="738" 
d="M110 695h516v-162h-516v162z" />
    <glyph glyph-name="registered" unicode="&#xae;" horiz-adv-x="1621" 
d="M803 124c329 0 593 261 593 591s-263 593 -593 593c-329 0 -593 -264 -593 -593s264 -591 593 -591zM1556 715c0 -417 -337 -750 -753 -750s-753 333 -753 750c0 416 337 754 753 754c417 0 753 -337 753 -754zM675 947v-154h130c104 0 113 154 0 154h-130zM999 330
l-244 321h-79v-321h-176v796h340c133 0 248 -101 248 -238c0 -98 -46 -168 -136 -207l265 -351h-218z" />
    <glyph glyph-name="macron" unicode="&#xaf;" horiz-adv-x="738" 
d="M110 1381h516v-162h-516v162z" />
    <glyph glyph-name="degree" unicode="&#xb0;" horiz-adv-x="720" 
d="M361 1445c160 0 294 -130 294 -291c0 -162 -136 -291 -296 -291c-162 0 -293 128 -293 291s133 291 295 291zM360 1295c-187 0 -188 -282 0 -282c77 0 143 63 143 141s-65 141 -143 141z" />
    <glyph glyph-name="plusminus" unicode="&#xb1;" horiz-adv-x="889" 
d="M779 766h-253v-278h-161v278h-255v160h255v278h161v-278h253v-160zM781 228h-669v160h669v-160z" />
    <glyph glyph-name="twosuperior" unicode="&#xb2;" horiz-adv-x="626" 
d="M267 1016h316v-147h-541v126l331 339c31 32 62 71 62 118c0 70 -54 126 -124 127c-75 2 -122 -59 -122 -130v-74h-147v73c0 150 118 278 270 278c153 0 270 -125 270 -276c0 -87 -45 -160 -104 -220z" />
    <glyph glyph-name="threesuperior" unicode="&#xb3;" horiz-adv-x="632" 
d="M67 1496c89 363 503 247 503 -9c0 -60 -25 -129 -79 -161c71 -42 108 -119 108 -200c0 -151 -132 -269 -280 -269c-162 0 -247 104 -286 251l145 52c26 -245 274 -162 274 -35c0 81 -72 122 -146 122h-62v148c65 0 179 -4 179 91c0 116 -204 145 -219 -43z" />
    <glyph glyph-name="acute" unicode="&#xb4;" horiz-adv-x="432" 
d="M424 1377l-318 -311l-99 103l318 311z" />
    <glyph glyph-name="mu" unicode="&#xb5;" horiz-adv-x="1009" 
d="M265 190v-609h-155v1443h155v-532c0 -190 66 -360 282 -360c196 0 283 129 283 315v577h155v-579c0 -252 -116 -468 -393 -468c-155 0 -267 69 -327 213z" />
    <glyph glyph-name="paragraph" unicode="&#xb6;" horiz-adv-x="1080" 
d="M407 738c-210 10 -373 124 -377 348c-4 230 180 349 393 349h584v-167h-127v-1268h-151v1268h-166v-1268h-156v738z" />
    <glyph glyph-name="periodcentered" unicode="&#xb7;" horiz-adv-x="418" 
d="M110 755h192v-190h-192v190z" />
    <glyph glyph-name="cedilla" unicode="&#xb8;" horiz-adv-x="526" 
d="M124 13h139l-23 -89h52c262 0 264 -413 -23 -413c-99 0 -184 81 -202 176l150 29c9 -29 33 -55 65 -55c74 0 72 128 -4 128c-72 0 -143 -19 -214 -31z" />
    <glyph glyph-name="onesuperior" unicode="&#xb9;" horiz-adv-x="342" 
d="M38 1716h266v-847h-147v700h-119v147z" />
    <glyph glyph-name="ordmasculine" unicode="&#xba;" horiz-adv-x="974" 
d="M487 916c102 0 204 72 204 181c0 110 -101 182 -204 182c-102 0 -204 -74 -204 -182c0 -109 102 -181 204 -181zM487 763c-188 0 -377 133 -377 334c0 200 189 336 377 336c191 0 377 -132 377 -336c0 -201 -189 -334 -377 -334zM144 486v155h698v-155h-698z" />
    <glyph glyph-name="guillemotright" unicode="&#xbb;" horiz-adv-x="1014" 
d="M40 1018l542 -403l-542 -391v207l272 186l-272 193v208zM470 1018l542 -403l-542 -391v207l272 186l-272 193v208z" />
    <glyph glyph-name="onequarter" unicode="&#xbc;" horiz-adv-x="1417" 
d="M8 1434h266v-847h-147v700h-119v147zM724 319l375 528h124v-491h124v-147h-124v-209h-147v209h-352v110zM1077 566l-151 -211h151v211zM130 -152h-190l1131 1736h188z" />
    <glyph glyph-name="onehalf" unicode="&#xbd;" horiz-adv-x="1474" 
d="M8 1434h266v-847h-147v700h-119v147zM130 -152h-190l1131 1736h188zM988 147h316v-147h-541v126l331 339c31 32 62 71 62 118c0 70 -54 126 -124 127c-75 2 -122 -59 -122 -130v-74h-147v73c0 150 118 278 270 278c153 0 270 -125 270 -276c0 -87 -45 -160 -104 -220z
" />
    <glyph glyph-name="threequarters" unicode="&#xbe;" horiz-adv-x="1664" 
d="M100 1214c89 363 503 247 503 -9c0 -60 -25 -129 -79 -161c71 -42 108 -119 108 -200c0 -151 -132 -269 -280 -269c-162 0 -247 104 -286 251l145 52c26 -245 274 -162 274 -35c0 81 -72 122 -146 122h-62v148c65 0 179 -4 179 91c0 116 -204 145 -219 -43zM956 319
l375 528h124v-491h124v-147h-124v-209h-147v209h-352v110zM1309 566l-151 -211h151v211zM362 -152h-190l1131 1736h188z" />
    <glyph glyph-name="questiondown" unicode="&#xbf;" horiz-adv-x="928" 
d="M394 656h148c55 -353 -341 -387 -341 -671c0 -174 105 -271 277 -271c210 0 307 154 283 351h148c64 -652 -856 -655 -856 -80c0 364 399 364 341 671zM574 946c0 -134 -203 -134 -203 0s203 134 203 0z" />
    <glyph glyph-name="Agrave" unicode="&#xc0;" horiz-adv-x="1407" 
d="M633 1434h141l608 -1434h-174l-185 431h-639l-186 -431h-173zM704 1201l-257 -610h513zM701 1499l-318 311l99 103l318 -311z" />
    <glyph glyph-name="Aacute" unicode="&#xc1;" horiz-adv-x="1407" 
d="M633 1434h141l608 -1434h-174l-185 431h-639l-186 -431h-173zM704 1201l-257 -610h513zM1019 1809l-318 -311l-99 103l318 311z" />
    <glyph glyph-name="Acircumflex" unicode="&#xc2;" horiz-adv-x="1407" 
d="M633 1434h141l608 -1434h-174l-185 431h-639l-186 -431h-173zM704 1201l-257 -610h513zM1014 1499h-174l-141 188l-142 -188h-174l316 423z" />
    <glyph glyph-name="Atilde" unicode="&#xc3;" horiz-adv-x="1407" 
d="M633 1434h141l608 -1434h-174l-185 431h-639l-186 -431h-173zM704 1201l-257 -610h513zM422 1709c40 40 90 48 144 48c110 0 180 -99 271 -99c75 0 107 36 142 98v-207c-38 -36 -91 -49 -142 -49c-115 0 -175 97 -271 97c-75 0 -109 -35 -144 -97v209z" />
    <glyph glyph-name="Adieresis" unicode="&#xc4;" horiz-adv-x="1407" 
d="M633 1434h141l608 -1434h-174l-185 431h-639l-186 -431h-173zM704 1201l-257 -610h513zM471 1691h188v-182h-188v182zM741 1691h188v-182h-188v182z" />
    <glyph glyph-name="Aring" unicode="&#xc5;" horiz-adv-x="1407" 
d="M595 1345c-256 111 -180 498 106 498c287 0 371 -384 110 -497l571 -1346h-174l-185 431h-639l-186 -431h-173zM704 1201l-257 -610h513zM588 1583c0 -151 230 -151 230 0s-230 151 -230 0z" />
    <glyph glyph-name="AE" unicode="&#xc6;" horiz-adv-x="1958" 
d="M19 0l942 1433l933 -1v-161l-794 1v-445h615v-160h-615v-505l794 -1v-161h-955v359h-485l-238 -359h-197zM556 517h383v595z" />
    <glyph glyph-name="Ccedilla" unicode="&#xc7;" horiz-adv-x="1449" 
d="M1394 254c-137 -163 -347 -282 -563 -289l-17 -66h52c262 0 264 -413 -23 -413c-100 0 -184 81 -202 176l150 29c8 -29 33 -55 65 -55c74 0 73 128 -4 128c-72 0 -143 -19 -214 -31l56 241c-374 55 -633 369 -633 744c0 421 328 751 750 751c225 0 405 -93 556 -255
l-116 -112c-116 125 -267 207 -440 207c-324 0 -590 -267 -590 -591c0 -340 249 -593 590 -593c174 0 351 102 461 233z" />
    <glyph glyph-name="Egrave" unicode="&#xc8;" horiz-adv-x="1097" 
d="M110 1434h955v-160h-794v-447h615v-160h-615v-505h794v-162h-955v1434zM579 1500l-318 311l99 103l318 -311z" />
    <glyph glyph-name="Eacute" unicode="&#xc9;" horiz-adv-x="1097" 
d="M110 1434h955v-160h-794v-447h615v-160h-615v-505h794v-162h-955v1434zM897 1810l-318 -311l-99 103l318 311z" />
    <glyph glyph-name="Ecircumflex" unicode="&#xca;" horiz-adv-x="1097" 
d="M110 1434h955v-160h-794v-447h615v-160h-615v-505h794v-162h-955v1434zM892 1500h-174l-141 188l-142 -188h-174l316 423z" />
    <glyph glyph-name="Edieresis" unicode="&#xcb;" horiz-adv-x="1097" 
d="M110 1434h955v-160h-794v-447h615v-160h-615v-505h794v-162h-955v1434zM349 1692h188v-182h-188v182zM619 1692h188v-182h-188v182z" />
    <glyph glyph-name="Igrave" unicode="&#xcc;" horiz-adv-x="388" 
d="M110 0v1434h161v-1434h-161zM191 1500l-318 311l99 103l318 -311z" />
    <glyph glyph-name="Iacute" unicode="&#xcd;" horiz-adv-x="388" 
d="M110 0v1434h161v-1434h-161zM509 1810l-318 -311l-99 103l318 311z" />
    <glyph glyph-name="Icircumflex" unicode="&#xce;" horiz-adv-x="388" 
d="M110 0v1434h161v-1434h-161zM504 1500h-174l-141 188l-142 -188h-174l316 423z" />
    <glyph glyph-name="Idieresis" unicode="&#xcf;" horiz-adv-x="388" 
d="M110 0v1434h161v-1434h-161zM-39 1692h188v-182h-188v182zM231 1692h188v-182h-188v182z" />
    <glyph glyph-name="Eth" unicode="&#xd0;" horiz-adv-x="1446" 
d="M-16 798h173v636h474c413 0 757 -291 757 -717c0 -427 -343 -716 -757 -716c-158 0 -316 -1 -474 -1v636h-173v162zM317 160h314c325 0 597 219 597 557c0 336 -274 557 -597 557h-314v-476h183v-162h-183v-476z" />
    <glyph glyph-name="Ntilde" unicode="&#xd1;" horiz-adv-x="1358" 
d="M110 1434h144l883 -1142v1142h160v-1434h-145l-882 1142v-1142h-160v1434zM402 1709c40 40 90 48 144 48c110 0 180 -99 271 -99c75 0 107 36 142 98v-207c-38 -36 -91 -49 -142 -49c-115 0 -175 97 -271 97c-75 0 -109 -35 -144 -97v209z" />
    <glyph glyph-name="Ograve" unicode="&#xd2;" 
d="M818 124c329 0 593 261 593 591s-263 593 -593 593c-329 0 -593 -264 -593 -593s264 -591 593 -591zM1571 715c0 -417 -337 -750 -753 -750s-753 333 -753 750c0 416 337 754 753 754c417 0 753 -337 753 -754zM818 1550l-318 311l99 103l318 -311z" />
    <glyph glyph-name="Oacute" unicode="&#xd3;" 
d="M818 124c329 0 593 261 593 591s-263 593 -593 593c-329 0 -593 -264 -593 -593s264 -591 593 -591zM1571 715c0 -417 -337 -750 -753 -750s-753 333 -753 750c0 416 337 754 753 754c417 0 753 -337 753 -754zM1136 1860l-318 -311l-99 103l318 311z" />
    <glyph glyph-name="Ocircumflex" unicode="&#xd4;" 
d="M818 124c329 0 593 261 593 591s-263 593 -593 593c-329 0 -593 -264 -593 -593s264 -591 593 -591zM1571 715c0 -417 -337 -750 -753 -750s-753 333 -753 750c0 416 337 754 753 754c417 0 753 -337 753 -754zM1131 1550h-174l-141 188l-142 -188h-174l316 423z" />
    <glyph glyph-name="Otilde" unicode="&#xd5;" 
d="M818 124c329 0 593 261 593 591s-263 593 -593 593c-329 0 -593 -264 -593 -593s264 -591 593 -591zM1571 715c0 -417 -337 -750 -753 -750s-753 333 -753 750c0 416 337 754 753 754c417 0 753 -337 753 -754zM539 1760c40 40 90 48 144 48c110 0 180 -99 271 -99
c75 0 107 36 142 98v-207c-38 -36 -91 -49 -142 -49c-115 0 -175 97 -271 97c-75 0 -109 -35 -144 -97v209z" />
    <glyph glyph-name="Odieresis" unicode="&#xd6;" 
d="M818 124c329 0 593 261 593 591s-263 593 -593 593c-329 0 -593 -264 -593 -593s264 -591 593 -591zM1571 715c0 -417 -337 -750 -753 -750s-753 333 -753 750c0 416 337 754 753 754c417 0 753 -337 753 -754zM588 1742h188v-182h-188v182zM858 1742h188v-182h-188v182z
" />
    <glyph glyph-name="multiply" unicode="&#xd7;" horiz-adv-x="836" 
d="M649 378l-231 231l-231 -231l-108 108l231 231l-231 232c36 35 72 71 108 107l231 -231l232 231l108 -108l-231 -231l231 -231z" />
    <glyph glyph-name="Oslash" unicode="&#xd8;" 
d="M1164 1385c250 -130 407 -388 407 -670c0 -417 -337 -750 -753 -750c-61 0 -123 8 -182 22l-33 -87h-171l53 141c-258 127 -420 386 -420 674c0 416 337 754 753 754c66 0 133 -9 197 -26l34 90h171zM958 1292c-377 85 -733 -187 -733 -577c0 -221 121 -422 317 -524z
M693 137c41 -9 83 -13 125 -13c329 0 593 261 593 591c0 216 -115 414 -304 519z" />
    <glyph glyph-name="Ugrave" unicode="&#xd9;" horiz-adv-x="1374" 
d="M1282 1434v-874c0 -327 -269 -595 -596 -595c-329 0 -595 266 -595 595v874h162v-874c0 -242 191 -433 433 -433c239 0 432 194 432 433v874h164zM687 1500l-318 311l99 103l318 -311z" />
    <glyph glyph-name="Uacute" unicode="&#xda;" horiz-adv-x="1374" 
d="M1282 1434v-874c0 -327 -269 -595 -596 -595c-329 0 -595 266 -595 595v874h162v-874c0 -242 191 -433 433 -433c239 0 432 194 432 433v874h164zM1005 1810l-318 -311l-99 103l318 311z" />
    <glyph glyph-name="Ucircumflex" unicode="&#xdb;" horiz-adv-x="1374" 
d="M1282 1434v-874c0 -327 -269 -595 -596 -595c-329 0 -595 266 -595 595v874h162v-874c0 -242 191 -433 433 -433c239 0 432 194 432 433v874h164zM1000 1500h-174l-141 188l-142 -188h-174l316 423z" />
    <glyph glyph-name="Udieresis" unicode="&#xdc;" horiz-adv-x="1374" 
d="M1282 1434v-874c0 -327 -269 -595 -596 -595c-329 0 -595 266 -595 595v874h162v-874c0 -242 191 -433 433 -433c239 0 432 194 432 433v874h164zM457 1692h188v-182h-188v182zM727 1692h188v-182h-188v182z" />
    <glyph glyph-name="Yacute" unicode="&#xdd;" horiz-adv-x="1385" 
d="M1179 1434h188l-593 -853v-581h-161v581l-595 853h190l486 -703zM1012 1810l-318 -311l-99 103l318 311z" />
    <glyph glyph-name="Thorn" unicode="&#xde;" horiz-adv-x="1021" 
d="M270 1081v-730h204c238 0 337 137 337 365s-99 365 -337 365h-204zM270 1434v-194h213c341 0 488 -191 488 -520s-147 -521 -488 -521h-213v-199h-160v1434h160z" />
    <glyph glyph-name="germandbls" unicode="&#xdf;" horiz-adv-x="1015" 
d="M340 166c65 -22 145 -34 214 -34c135 0 258 89 258 232c0 290 -358 230 -358 488c0 159 158 185 158 304c0 225 -357 221 -357 -56v-1100h-154v1100c0 497 676 472 676 57c0 -176 -157 -211 -157 -305c0 -135 345 -107 345 -486c0 -231 -187 -388 -410 -388
c-71 0 -147 10 -215 31v157z" />
    <glyph glyph-name="agrave" unicode="&#xe0;" horiz-adv-x="1213" 
d="M952 176c-81 -134 -212 -199 -367 -199c-300 0 -535 232 -535 533c0 504 661 737 902 333v181h155v-1024h-155v176zM204 511c0 -214 168 -379 381 -379s381 166 381 379c0 212 -169 381 -381 381s-381 -169 -381 -381zM581 1130l-318 311l99 103l318 -311z" />
    <glyph glyph-name="aacute" unicode="&#xe1;" horiz-adv-x="1213" 
d="M952 176c-81 -134 -212 -199 -367 -199c-300 0 -535 232 -535 533c0 504 661 737 902 333v181h155v-1024h-155v176zM204 511c0 -214 168 -379 381 -379s381 166 381 379c0 212 -169 381 -381 381s-381 -169 -381 -381zM899 1440l-318 -311l-99 103l318 311z" />
    <glyph glyph-name="acircumflex" unicode="&#xe2;" horiz-adv-x="1213" 
d="M952 176c-81 -134 -212 -199 -367 -199c-300 0 -535 232 -535 533c0 504 661 737 902 333v181h155v-1024h-155v176zM204 511c0 -214 168 -379 381 -379s381 166 381 379c0 212 -169 381 -381 381s-381 -169 -381 -381zM894 1130h-174l-141 188l-142 -188h-174l316 423z
" />
    <glyph glyph-name="atilde" unicode="&#xe3;" horiz-adv-x="1213" 
d="M952 176c-81 -134 -212 -199 -367 -199c-300 0 -535 232 -535 533c0 504 661 737 902 333v181h155v-1024h-155v176zM204 511c0 -214 168 -379 381 -379s381 166 381 379c0 212 -169 381 -381 381s-381 -169 -381 -381zM302 1340c40 40 90 48 144 48
c110 0 180 -99 271 -99c75 0 107 36 142 98v-207c-38 -36 -91 -49 -142 -49c-115 0 -175 97 -271 97c-75 0 -109 -35 -144 -97v209z" />
    <glyph glyph-name="adieresis" unicode="&#xe4;" horiz-adv-x="1213" 
d="M952 176c-81 -134 -212 -199 -367 -199c-300 0 -535 232 -535 533c0 504 661 737 902 333v181h155v-1024h-155v176zM204 511c0 -214 168 -379 381 -379s381 166 381 379c0 212 -169 381 -381 381s-381 -169 -381 -381zM351 1322h188v-182h-188v182zM621 1322h188v-182
h-188v182z" />
    <glyph glyph-name="aring" unicode="&#xe5;" horiz-adv-x="1213" 
d="M952 176c-81 -134 -212 -199 -367 -199c-300 0 -535 232 -535 533c0 504 661 737 902 333v181h155v-1024h-155v176zM204 511c0 -214 168 -379 381 -379s381 166 381 379c0 212 -169 381 -381 381s-381 -169 -381 -381zM319 1391c0 147 116 258 262 258
c145 0 267 -110 267 -258c0 -149 -120 -261 -267 -261c-146 0 -262 115 -262 261zM468 1389c0 -151 230 -151 230 0s-230 151 -230 0z" />
    <glyph glyph-name="ae" unicode="&#xe6;" horiz-adv-x="1762" 
d="M762 830c313 433 1004 175 937 -398h-874c36 -179 191 -297 372 -297c135 0 254 59 342 161l117 -106c-240 -281 -706 -296 -913 31c-156 -378 -702 -281 -702 66c0 197 163 305 346 305h272v17c0 169 -52 283 -234 283c-96 0 -171 -38 -214 -127l-147 63
c67 144 205 219 361 219c157 0 282 -63 337 -217zM825 591h714c-83 399 -648 390 -714 0zM660 444h-273c-97 0 -187 -52 -187 -158c0 -108 96 -162 194 -162c169 0 266 167 266 320z" />
    <glyph glyph-name="ccedilla" unicode="&#xe7;" horiz-adv-x="1087" 
d="M1033 805l-126 -89c-202 319 -703 176 -703 -205c0 -382 504 -521 704 -204l124 -93c-108 -163 -295 -250 -489 -235l-16 -63h52c262 0 264 -413 -23 -413c-99 0 -184 81 -202 176l150 29c8 -29 33 -55 65 -55c74 0 73 128 -4 128c-72 0 -143 -19 -214 -31l60 254
c-220 73 -361 275 -361 506c0 296 239 537 535 537c181 0 349 -90 448 -242z" />
    <glyph glyph-name="egrave" unicode="&#xe8;" horiz-adv-x="1151" 
d="M214 591h714c-83 399 -648 390 -714 0zM1045 190c-336 -394 -995 -212 -995 321c0 292 225 535 521 535c334 0 555 -294 517 -614h-874c36 -179 191 -297 372 -297c135 0 254 59 342 161zM571 1130l-318 311l99 103l318 -311z" />
    <glyph glyph-name="eacute" unicode="&#xe9;" horiz-adv-x="1151" 
d="M214 591h714c-83 399 -648 390 -714 0zM1045 190c-336 -394 -995 -212 -995 321c0 292 225 535 521 535c334 0 555 -294 517 -614h-874c36 -179 191 -297 372 -297c135 0 254 59 342 161zM889 1440l-318 -311l-99 103l318 311z" />
    <glyph glyph-name="ecircumflex" unicode="&#xea;" horiz-adv-x="1151" 
d="M214 591h714c-83 399 -648 390 -714 0zM1045 190c-336 -394 -995 -212 -995 321c0 292 225 535 521 535c334 0 555 -294 517 -614h-874c36 -179 191 -297 372 -297c135 0 254 59 342 161zM884 1130h-174l-141 188l-142 -188h-174l316 423z" />
    <glyph glyph-name="edieresis" unicode="&#xeb;" horiz-adv-x="1151" 
d="M214 591h714c-83 399 -648 390 -714 0zM1045 190c-336 -394 -995 -212 -995 321c0 292 225 535 521 535c334 0 555 -294 517 -614h-874c36 -179 191 -297 372 -297c135 0 254 59 342 161zM341 1322h188v-182h-188v182zM611 1322h188v-182h-188v182z" />
    <glyph glyph-name="igrave" unicode="&#xec;" horiz-adv-x="359" 
d="M99 0v1024h155v-1024h-155zM179 1100l-318 311l99 103l318 -311z" />
    <glyph glyph-name="iacute" unicode="&#xed;" horiz-adv-x="359" 
d="M99 0v1024h155v-1024h-155zM497 1410l-318 -311l-99 103l318 311z" />
    <glyph glyph-name="icircumflex" unicode="&#xee;" horiz-adv-x="359" 
d="M98 0v1024h155v-1024h-155zM491 1100h-174l-141 188l-142 -188h-174l316 423z" />
    <glyph glyph-name="idieresis" unicode="&#xef;" horiz-adv-x="359" 
d="M99 0v1024h155v-1024h-155zM-51 1292h188v-182h-188v182zM219 1292h188v-182h-188v182z" />
    <glyph glyph-name="eth" unicode="&#xf0;" horiz-adv-x="1142" 
d="M270 1004l-99 101l167 168c-69 11 -138 16 -208 16v155c115 1 230 -9 342 -37l188 188l99 -102l-136 -136c331 -139 471 -418 471 -769c0 -313 -175 -608 -517 -608c-288 0 -512 238 -512 523c0 284 225 523 512 523c124 0 248 -56 331 -148c-62 182 -231 299 -408 356z
M577 137c199 0 354 171 354 366c0 198 -152 365 -354 365c-201 0 -355 -167 -355 -365s154 -366 355 -366z" />
    <glyph glyph-name="ntilde" unicode="&#xf1;" horiz-adv-x="1079" 
d="M264 1024v-190c60 144 172 213 327 213c277 0 393 -216 393 -468v-579h-155v577c0 183 -87 315 -283 315c-190 0 -282 -136 -282 -315v-577h-155v1024h155zM305 1340c40 40 90 48 144 48c110 0 180 -99 271 -99c75 0 107 36 142 98v-207c-38 -36 -91 -49 -142 -49
c-115 0 -175 97 -271 97c-75 0 -109 -35 -144 -97v209z" />
    <glyph glyph-name="ograve" unicode="&#xf2;" horiz-adv-x="1170" 
d="M585 -23c-300 0 -535 232 -535 533c0 296 239 537 535 537c297 0 535 -240 535 -537c0 -299 -237 -533 -535 -533zM204 511c0 -214 168 -379 381 -379s381 166 381 379c0 212 -169 381 -381 381s-381 -169 -381 -381zM586 1130l-318 311l99 103l318 -311z" />
    <glyph glyph-name="oacute" unicode="&#xf3;" horiz-adv-x="1170" 
d="M585 -23c-300 0 -535 232 -535 533c0 296 239 537 535 537c297 0 535 -240 535 -537c0 -299 -237 -533 -535 -533zM204 511c0 -214 168 -379 381 -379s381 166 381 379c0 212 -169 381 -381 381s-381 -169 -381 -381zM904 1440l-318 -311l-99 103l318 311z" />
    <glyph glyph-name="ocircumflex" unicode="&#xf4;" horiz-adv-x="1170" 
d="M585 -23c-300 0 -535 232 -535 533c0 296 239 537 535 537c297 0 535 -240 535 -537c0 -299 -237 -533 -535 -533zM204 511c0 -214 168 -379 381 -379s381 166 381 379c0 212 -169 381 -381 381s-381 -169 -381 -381zM899 1130h-174l-141 188l-142 -188h-174l316 423z
" />
    <glyph glyph-name="otilde" unicode="&#xf5;" horiz-adv-x="1170" 
d="M585 -23c-300 0 -535 232 -535 533c0 296 239 537 535 537c297 0 535 -240 535 -537c0 -299 -237 -533 -535 -533zM204 511c0 -214 168 -379 381 -379s381 166 381 379c0 212 -169 381 -381 381s-381 -169 -381 -381zM307 1340c40 40 90 48 144 48c110 0 180 -99 271 -99
c75 0 107 36 142 98v-207c-38 -36 -91 -49 -142 -49c-115 0 -175 97 -271 97c-75 0 -109 -35 -144 -97v209z" />
    <glyph glyph-name="odieresis" unicode="&#xf6;" horiz-adv-x="1170" 
d="M585 -23c-300 0 -535 232 -535 533c0 296 239 537 535 537c297 0 535 -240 535 -537c0 -299 -237 -533 -535 -533zM204 511c0 -214 168 -379 381 -379s381 166 381 379c0 212 -169 381 -381 381s-381 -169 -381 -381zM356 1322h188v-182h-188v182zM626 1322h188v-182
h-188v182z" />
    <glyph glyph-name="divide" unicode="&#xf7;" horiz-adv-x="863" 
d="M538 998c0 -134 -203 -134 -203 0s203 134 203 0zM538 433c0 -134 -203 -134 -203 0s203 134 203 0zM771 636h-669v160h669v-160z" />
    <glyph glyph-name="oslash" unicode="&#xf8;" horiz-adv-x="1170" 
d="M847 978c169 -95 273 -274 273 -468c0 -299 -237 -533 -535 -533c-38 0 -75 4 -112 11l-33 -88h-165l53 140c-175 92 -278 273 -278 470c0 296 239 537 535 537c40 0 79 -5 118 -13l36 95h165zM647 887c-421 64 -609 -489 -264 -700zM529 136c19 -3 37 -4 56 -4
c382 0 523 495 207 700z" />
    <glyph glyph-name="ugrave" unicode="&#xf9;" horiz-adv-x="1024" 
d="M247 1024v-626c0 -146 119 -265 265 -265c147 0 265 118 265 265v626h155v-626c0 -233 -187 -421 -420 -421c-234 0 -421 187 -421 421v626h156zM509 1100l-318 311l99 103l318 -311z" />
    <glyph glyph-name="uacute" unicode="&#xfa;" horiz-adv-x="1024" 
d="M247 1024v-626c0 -146 119 -265 265 -265c147 0 265 118 265 265v626h155v-626c0 -233 -187 -421 -420 -421c-234 0 -421 187 -421 421v626h156zM827 1410l-318 -311l-99 103l318 311z" />
    <glyph glyph-name="ucircumflex" unicode="&#xfb;" horiz-adv-x="1024" 
d="M247 1024v-626c0 -146 119 -265 265 -265c147 0 265 118 265 265v626h155v-626c0 -233 -187 -421 -420 -421c-234 0 -421 187 -421 421v626h156zM822 1100h-174l-141 188l-142 -188h-174l316 423z" />
    <glyph glyph-name="udieresis" unicode="&#xfc;" horiz-adv-x="1024" 
d="M247 1024v-626c0 -146 119 -265 265 -265c147 0 265 118 265 265v626h155v-626c0 -233 -187 -421 -420 -421c-234 0 -421 187 -421 421v626h156zM279 1292h188v-182h-188v182zM549 1292h188v-182h-188v182z" />
    <glyph glyph-name="yacute" unicode="&#xfd;" horiz-adv-x="1046" 
d="M868 1024h168l-599 -1443h-167l195 475l-424 968h170l336 -787zM864 1410l-318 -311l-99 103l318 311z" />
    <glyph glyph-name="thorn" unicode="&#xfe;" horiz-adv-x="1217" 
d="M265 848c80 135 212 199 367 199c300 0 535 -232 535 -533c0 -509 -667 -734 -902 -334v-599h-155v1853h155v-586zM1013 513c0 214 -168 379 -381 379s-381 -166 -381 -379c0 -212 169 -381 381 -381s381 169 381 381z" />
    <glyph glyph-name="ydieresis" unicode="&#xff;" horiz-adv-x="1022" 
d="M844 1024h168l-599 -1443h-167l195 475l-424 968h170l336 -787zM292 1292h188v-182h-188v182zM562 1292h188v-182h-188v182z" />
    <glyph glyph-name="Amacron" unicode="&#x100;" horiz-adv-x="1407" 
d="M633 1434h141l608 -1434h-174l-185 431h-639l-186 -431h-173zM704 1201l-257 -610h513zM439 1680h516v-162h-516v162z" />
    <glyph glyph-name="amacron" unicode="&#x101;" horiz-adv-x="1213" 
d="M952 176c-81 -134 -212 -199 -367 -199c-300 0 -535 232 -535 533c0 504 661 737 902 333v181h155v-1024h-155v176zM204 511c0 -214 168 -379 381 -379s381 166 381 379c0 212 -169 381 -381 381s-381 -169 -381 -381zM319 1311h516v-162h-516v162z" />
    <glyph glyph-name="Abreve" unicode="&#x102;" horiz-adv-x="1407" 
d="M633 1434h141l608 -1434h-174l-185 431h-639l-186 -431h-173zM704 1201l-257 -610h513zM366 1879h149c0 -122 49 -229 186 -229c134 0 186 110 186 229h151c0 -207 -115 -380 -337 -380s-335 174 -335 380z" />
    <glyph glyph-name="abreve" unicode="&#x103;" horiz-adv-x="1213" 
d="M952 176c-81 -134 -212 -199 -367 -199c-300 0 -535 232 -535 533c0 504 661 737 902 333v181h155v-1024h-155v176zM204 511c0 -214 168 -379 381 -379s381 166 381 379c0 212 -169 381 -381 381s-381 -169 -381 -381zM246 1510h149c0 -122 49 -229 186 -229
c134 0 186 110 186 229h151c0 -207 -115 -380 -337 -380s-335 174 -335 380z" />
    <glyph glyph-name="Aogonek" unicode="&#x104;" horiz-adv-x="1407" 
d="M633 1434h141l608 -1434c-77 -40 -258 -148 -258 -245c0 -96 156 -107 147 37l153 15c16 -152 -78 -277 -236 -277c-118 0 -220 96 -220 216c0 135 113 240 214 313l-159 372h-639l-186 -431h-173zM704 1201l-257 -610h513z" />
    <glyph glyph-name="aogonek" unicode="&#x105;" horiz-adv-x="1205" 
d="M948 90l4 -3v89c-81 -134 -212 -199 -367 -199c-300 0 -535 232 -535 533c0 505 662 737 902 333v181h155v-1024h-3c-77 -40 -258 -148 -258 -245s157 -105 147 37l153 15c16 -152 -78 -277 -236 -277c-118 0 -220 96 -220 216c0 151 144 267 258 344zM204 511
c0 -214 168 -379 381 -379s381 166 381 379c0 212 -169 381 -381 381s-381 -169 -381 -381z" />
    <glyph glyph-name="Cacute" unicode="&#x106;" horiz-adv-x="1449" 
d="M1394 254c-141 -168 -360 -289 -583 -289c-424 0 -750 330 -750 753c0 421 328 751 750 751c225 0 405 -93 556 -255l-116 -112c-116 125 -267 207 -440 207c-324 0 -590 -267 -590 -591c0 -340 249 -593 590 -593c174 0 351 102 461 233zM1116 1855l-318 -311l-99 103
l318 311z" />
    <glyph glyph-name="cacute" unicode="&#x107;" horiz-adv-x="1087" 
d="M1033 805l-126 -89c-202 319 -703 177 -703 -205s504 -521 704 -204l124 -93c-284 -430 -982 -242 -982 296c0 296 239 537 535 537c181 0 349 -90 448 -242zM904 1440l-318 -311l-99 103l318 311z" />
    <glyph glyph-name="Ccircumflex" unicode="&#x108;" horiz-adv-x="1449" 
d="M1394 254c-141 -168 -360 -289 -583 -289c-424 0 -750 330 -750 753c0 421 328 751 750 751c225 0 405 -93 556 -255l-116 -112c-116 125 -267 207 -440 207c-324 0 -590 -267 -590 -591c0 -340 249 -593 590 -593c174 0 351 102 461 233zM1111 1545h-174l-141 188
l-142 -188h-174l316 423z" />
    <glyph glyph-name="ccircumflex" unicode="&#x109;" horiz-adv-x="1087" 
d="M1033 805l-126 -89c-202 319 -703 177 -703 -205s504 -521 704 -204l124 -93c-284 -430 -982 -242 -982 296c0 296 239 537 535 537c181 0 349 -90 448 -242zM899 1130h-174l-141 188l-142 -188h-174l316 423z" />
    <glyph glyph-name="Cdotaccent" unicode="&#x10a;" horiz-adv-x="1449" 
d="M1394 254c-141 -168 -360 -289 -583 -289c-424 0 -750 330 -750 753c0 421 328 751 750 751c225 0 405 -93 556 -255l-116 -112c-116 125 -267 207 -440 207c-324 0 -590 -267 -590 -591c0 -340 249 -593 590 -593c174 0 351 102 461 233zM699 1784h199v-190h-199v190z
" />
    <glyph glyph-name="cdotaccent" unicode="&#x10b;" horiz-adv-x="1087" 
d="M1033 805l-126 -89c-202 319 -703 177 -703 -205s504 -521 704 -204l124 -93c-284 -430 -982 -242 -982 296c0 296 239 537 535 537c181 0 349 -90 448 -242zM487 1369h199v-190h-199v190z" />
    <glyph glyph-name="Ccaron" unicode="&#x10c;" horiz-adv-x="1449" 
d="M1394 254c-141 -168 -360 -289 -583 -289c-424 0 -750 330 -750 753c0 421 328 751 750 751c225 0 405 -93 556 -255l-116 -112c-116 125 -267 207 -440 207c-324 0 -590 -267 -590 -591c0 -340 249 -593 590 -593c174 0 351 102 461 233zM937 1965h174l-313 -420
l-318 422l174 1l144 -188z" />
    <glyph glyph-name="ccaron" unicode="&#x10d;" horiz-adv-x="1087" 
d="M1033 805l-126 -89c-202 319 -703 177 -703 -205s504 -521 704 -204l124 -93c-284 -430 -982 -242 -982 296c0 296 239 537 535 537c181 0 349 -90 448 -242zM725 1550h174l-313 -420l-318 422l174 1l144 -188z" />
    <glyph glyph-name="Dcaron" unicode="&#x10e;" horiz-adv-x="1399" 
d="M270 160h314c325 0 597 219 597 557c0 336 -274 557 -597 557h-314v-1114zM110 1434h474c413 0 757 -291 757 -717c0 -427 -343 -716 -757 -716c-158 0 -316 -1 -474 -1v1434zM698 1920h174l-313 -420l-318 422l174 1l144 -188z" />
    <glyph glyph-name="dcaron" unicode="&#x10f;" horiz-adv-x="1361" 
d="M1202 961v558h160v-558h-160zM952 176c-81 -134 -212 -199 -367 -199c-300 0 -535 232 -535 533c0 504 661 737 902 333v591h155v-1434h-155v176zM204 511c0 -214 168 -379 381 -379s381 166 381 379c0 212 -169 381 -381 381s-381 -169 -381 -381z" />
    <glyph glyph-name="Dcroat" unicode="&#x110;" horiz-adv-x="1466" 
d="M0 825h177v609h474c413 0 757 -291 757 -717c0 -427 -343 -716 -757 -716c-158 0 -316 -1 -474 -1v663h-177v162zM337 160h314c325 0 597 219 597 557c0 336 -274 557 -597 557h-314v-449h179v-162h-179v-503z" />
    <glyph glyph-name="dcroat" unicode="&#x111;" horiz-adv-x="1214" 
d="M652 1306h300v128h155v-128h124v-160h-124v-1146h-155v176c-81 -134 -212 -199 -367 -199c-300 0 -535 232 -535 533c0 504 661 737 902 333v303h-300v160zM204 511c0 -214 168 -379 381 -379s381 166 381 379c0 212 -169 381 -381 381s-381 -169 -381 -381z" />
    <glyph glyph-name="Emacron" unicode="&#x112;" horiz-adv-x="1097" 
d="M110 1434h955v-160h-794v-447h615v-160h-615v-505h794v-162h-955v1434zM317 1681h516v-162h-516v162z" />
    <glyph glyph-name="emacron" unicode="&#x113;" horiz-adv-x="1158" 
d="M214 591h714c-83 399 -648 390 -714 0zM1045 190c-336 -394 -995 -212 -995 321c0 292 225 535 521 535c334 0 555 -294 517 -614h-874c36 -179 191 -297 372 -297c135 0 254 59 342 161zM309 1311h516v-162h-516v162z" />
    <glyph glyph-name="Ebreve" unicode="&#x114;" horiz-adv-x="1097" 
d="M110 1434h955v-160h-794v-447h615v-160h-615v-505h794v-162h-955v1434zM244 1880h149c0 -122 49 -229 186 -229c134 0 186 110 186 229h151c0 -207 -115 -380 -337 -380s-335 174 -335 380z" />
    <glyph glyph-name="ebreve" unicode="&#x115;" horiz-adv-x="1158" 
d="M214 591h714c-83 399 -648 390 -714 0zM1045 190c-336 -394 -995 -212 -995 321c0 292 225 535 521 535c334 0 555 -294 517 -614h-874c36 -179 191 -297 372 -297c135 0 254 59 342 161zM236 1510h149c0 -122 49 -229 186 -229c134 0 186 110 186 229h151
c0 -207 -115 -380 -337 -380s-335 174 -335 380z" />
    <glyph glyph-name="Edotaccent" unicode="&#x116;" horiz-adv-x="1097" 
d="M110 1434h955v-160h-794v-447h615v-160h-615v-505h794v-162h-955v1434zM480 1739h199v-190h-199v190z" />
    <glyph glyph-name="edotaccent" unicode="&#x117;" horiz-adv-x="1158" 
d="M214 591h714c-83 399 -648 390 -714 0zM1045 190c-336 -394 -995 -212 -995 321c0 292 225 535 521 535c334 0 555 -294 517 -614h-874c36 -179 191 -297 372 -297c135 0 254 59 342 161zM472 1369h199v-190h-199v190z" />
    <glyph glyph-name="Eogonek" unicode="&#x118;" horiz-adv-x="1097" 
d="M110 1434h955v-160h-794v-447h615v-160h-615v-505h794v-162h-372c-64 -39 -198 -127 -198 -211c0 -96 156 -107 147 37l153 15c16 -152 -78 -277 -236 -277c-118 0 -220 96 -220 216c0 86 47 160 105 220h-334v1434z" />
    <glyph glyph-name="eogonek" unicode="&#x119;" horiz-adv-x="1158" 
d="M533 -20c-280 25 -483 250 -483 531c0 292 225 535 521 535c334 0 555 -293 517 -614h-874c36 -179 191 -297 372 -297c135 0 254 59 342 161l117 -106c-56 -66 -120 -111 -196 -152c-70 -38 -230 -141 -230 -230c0 -96 156 -106 147 37l153 15
c16 -152 -78 -277 -236 -277c-118 0 -220 96 -220 216c0 67 29 129 70 181zM214 591h714c-83 399 -648 390 -714 0z" />
    <glyph glyph-name="Ecaron" unicode="&#x11a;" horiz-adv-x="1097" 
d="M110 1434h955v-160h-794v-447h615v-160h-615v-505h794v-162h-955v1434zM718 1920h174l-313 -420l-318 422l174 1l144 -188z" />
    <glyph glyph-name="ecaron" unicode="&#x11b;" horiz-adv-x="1158" 
d="M214 591h714c-83 399 -648 390 -714 0zM1045 190c-336 -394 -995 -212 -995 321c0 292 225 535 521 535c334 0 555 -294 517 -614h-874c36 -179 191 -297 372 -297c135 0 254 59 342 161zM710 1550h174l-313 -420l-318 422l174 1l144 -188z" />
    <glyph glyph-name="Gcircumflex" unicode="&#x11c;" horiz-adv-x="1443" 
d="M1202 287v319h-401v161h562v-547c-141 -149 -346 -255 -553 -255c-424 0 -750 330 -750 753c0 421 328 751 750 751c225 0 405 -93 556 -255l-116 -112c-116 125 -267 207 -440 207c-324 0 -590 -267 -590 -591c0 -340 249 -593 590 -593c142 0 286 69 392 162z
M1127 1550h-174l-141 188l-142 -188h-174l316 423z" />
    <glyph glyph-name="gcircumflex" unicode="&#x11d;" horiz-adv-x="1200" 
d="M952 176c-81 -134 -212 -199 -367 -199c-300 0 -535 232 -535 533c0 504 661 737 902 333v181h155v-906c0 -332 -173 -551 -517 -551c-224 0 -416 126 -510 329l143 62c67 -147 206 -235 367 -235c256 0 359 153 362 395v58zM204 511c0 -214 168 -379 381 -379
s381 166 381 379c0 212 -169 381 -381 381s-381 -169 -381 -381zM895 1130h-174l-141 188l-142 -188h-174l316 423z" />
    <glyph glyph-name="Gbreve" unicode="&#x11e;" horiz-adv-x="1443" 
d="M1202 287v319h-401v161h562v-547c-141 -149 -346 -255 -553 -255c-424 0 -750 330 -750 753c0 421 328 751 750 751c225 0 405 -93 556 -255l-116 -112c-116 125 -267 207 -440 207c-324 0 -590 -267 -590 -591c0 -340 249 -593 590 -593c142 0 286 69 392 162zM479 1930
h149c0 -122 49 -229 186 -229c134 0 186 110 186 229h151c0 -207 -115 -380 -337 -380s-335 174 -335 380z" />
    <glyph glyph-name="gbreve" unicode="&#x11f;" horiz-adv-x="1200" 
d="M952 176c-81 -134 -212 -199 -367 -199c-300 0 -535 232 -535 533c0 504 661 737 902 333v181h155v-906c0 -332 -173 -551 -517 -551c-224 0 -416 126 -510 329l143 62c67 -147 206 -235 367 -235c256 0 359 153 362 395v58zM204 511c0 -214 168 -379 381 -379
s381 166 381 379c0 212 -169 381 -381 381s-381 -169 -381 -381zM247 1510h149c0 -122 49 -229 186 -229c134 0 186 110 186 229h151c0 -207 -115 -380 -337 -380s-335 174 -335 380z" />
    <glyph glyph-name="Gdotaccent" unicode="&#x120;" horiz-adv-x="1443" 
d="M1202 287v319h-401v161h562v-547c-141 -149 -346 -255 -553 -255c-424 0 -750 330 -750 753c0 421 328 751 750 751c225 0 405 -93 556 -255l-116 -112c-116 125 -267 207 -440 207c-324 0 -590 -267 -590 -591c0 -340 249 -593 590 -593c142 0 286 69 392 162zM715 1789
h199v-190h-199v190z" />
    <glyph glyph-name="gdotaccent" unicode="&#x121;" horiz-adv-x="1200" 
d="M952 176c-81 -134 -212 -199 -367 -199c-300 0 -535 232 -535 533c0 504 661 737 902 333v181h155v-906c0 -332 -173 -551 -517 -551c-224 0 -416 126 -510 329l143 62c67 -147 206 -235 367 -235c256 0 359 153 362 395v58zM204 511c0 -214 168 -379 381 -379
s381 166 381 379c0 212 -169 381 -381 381s-381 -169 -381 -381zM483 1369h199v-190h-199v190z" />
    <glyph glyph-name="Gcommaaccent" unicode="&#x122;" horiz-adv-x="1443" 
d="M1202 287v319h-401v161h562v-547c-141 -149 -346 -255 -553 -255c-424 0 -750 330 -750 753c0 421 328 751 750 751c225 0 405 -93 556 -255l-116 -112c-116 125 -267 207 -440 207c-324 0 -590 -267 -590 -591c0 -340 249 -593 590 -593c142 0 286 69 392 162zM740 -496
v400h174l-58 -400h-116z" />
    <glyph glyph-name="gcommaaccent" unicode="&#x123;" horiz-adv-x="1219" 
d="M971 176c-81 -134 -212 -199 -367 -199c-300 0 -535 232 -535 533c0 504 661 737 902 333v181h155v-906c0 -332 -173 -551 -517 -551c-224 0 -416 126 -510 329l143 62c67 -147 206 -235 367 -235c256 0 359 153 362 395v58zM223 511c0 -214 168 -379 381 -379
s381 166 381 379c0 212 -169 381 -381 381s-381 -169 -381 -381zM705 1530v-400h-174l58 400h116z" />
    <glyph glyph-name="Hcircumflex" unicode="&#x124;" horiz-adv-x="1352" 
d="M110 1434h161v-626h809v626h161v-1434h-161v647h-809v-647h-161v1434zM996 1454h-174l-141 188l-142 -188h-174l316 423z" />
    <glyph glyph-name="hcircumflex" unicode="&#x125;" horiz-adv-x="1074" 
d="M264 1434v-600c60 144 172 213 327 213c277 0 393 -216 393 -468v-579h-155v577c0 183 -87 315 -283 315c-190 0 -282 -136 -282 -315v-577h-155v1434h155zM884 1104h-156l-126 168l-126 -168h-156l282 378z" />
    <glyph glyph-name="Hbar" unicode="&#x126;" horiz-adv-x="1352" 
d="M-78 1204h188v230h161v-230h809v230h161v-230h183v-162h-183v-1042h-161v647h-809v-647h-161v1042h-188v162zM271 808h809v234h-809v-234z" />
    <glyph glyph-name="hbar" unicode="&#x127;" horiz-adv-x="1074" 
d="M-2 1379h111v55h155v-55h250v-162h-250v-383c60 144 172 213 327 213c277 0 393 -216 393 -468v-579h-155v577c0 183 -87 315 -283 315c-190 0 -282 -136 -282 -315v-577h-155v1217h-111v162z" />
    <glyph glyph-name="Itilde" unicode="&#x128;" horiz-adv-x="388" 
d="M110 0v1434h161v-1434h-161zM-88 1710c40 40 90 48 144 48c110 0 180 -99 271 -99c75 0 107 36 142 98v-207c-38 -36 -91 -49 -142 -49c-115 0 -175 97 -271 97c-75 0 -109 -35 -144 -97v209z" />
    <glyph glyph-name="itilde" unicode="&#x129;" horiz-adv-x="359" 
d="M99 0v1024h155v-1024h-155zM-100 1310c40 40 90 48 144 48c110 0 180 -99 271 -99c75 0 107 36 142 98v-207c-38 -36 -91 -49 -142 -49c-115 0 -175 97 -271 97c-75 0 -109 -35 -144 -97v209z" />
    <glyph glyph-name="Imacron" unicode="&#x12a;" horiz-adv-x="388" 
d="M110 0v1434h161v-1434h-161zM-71 1681h516v-162h-516v162z" />
    <glyph glyph-name="imacron" unicode="&#x12b;" horiz-adv-x="359" 
d="M99 0v1024h155v-1024h-155zM-83 1281h516v-162h-516v162z" />
    <glyph glyph-name="Ibreve" unicode="&#x12c;" horiz-adv-x="388" 
d="M107 0v1434h161v-1434h-161zM-147 1880h149c0 -122 49 -229 186 -229c134 0 186 110 186 229h151c0 -207 -115 -380 -337 -380s-335 174 -335 380z" />
    <glyph glyph-name="ibreve" unicode="&#x12d;" horiz-adv-x="359" 
d="M101 0v1024h155v-1024h-155zM-154 1480h149c0 -122 49 -229 186 -229c134 0 186 110 186 229h151c0 -207 -115 -380 -337 -380s-335 174 -335 380z" />
    <glyph glyph-name="Iogonek" unicode="&#x12e;" horiz-adv-x="388" 
d="M273 1434v-1434c-77 -40 -258 -148 -258 -245c0 -96 156 -106 147 37l153 15c16 -152 -78 -277 -236 -277c-118 0 -220 96 -220 216c0 149 140 263 253 340v1348h161z" />
    <glyph glyph-name="iogonek" unicode="&#x12f;" horiz-adv-x="359" 
d="M90 90l6 -4v938h156v-1024h-6c-77 -40 -258 -148 -258 -245c0 -96 156 -106 147 37l153 15c16 -152 -78 -277 -236 -277c-118 0 -220 96 -220 216c0 151 144 267 258 344zM96 1234v200h156v-200h-156z" />
    <glyph glyph-name="Idotaccent" unicode="&#x130;" horiz-adv-x="409" 
d="M121 0v1434h161v-1434h-161zM103 1739h199v-190h-199v190z" />
    <glyph glyph-name="dotlessi" unicode="&#x131;" horiz-adv-x="359" 
d="M99 0v1024h155v-1024h-155z" />
    <glyph glyph-name="IJ" unicode="&#x132;" horiz-adv-x="1052" 
d="M110 0v1434h161v-1434h-161zM949 1434v-1106c0 -195 -112 -351 -318 -351c-159 0 -270 98 -303 250l149 60c11 -86 63 -149 154 -149c114 0 157 88 157 190v1106h161z" />
    <glyph glyph-name="ij" unicode="&#x133;" horiz-adv-x="709" 
d="M104 0v1024h156v-1024h-156zM104 1234v200h156v-200h-156zM457 -419v1443h156v-1443h-156zM457 1234v200h156v-200h-156z" />
    <glyph glyph-name="Jcircumflex" unicode="&#x134;" horiz-adv-x="741" 
d="M621 1434v-1106c0 -195 -112 -351 -318 -351c-159 0 -270 98 -303 250l149 60c11 -86 63 -149 154 -149c114 0 157 88 157 190v1106h161zM854 1500h-174l-141 188l-142 -188h-174l316 423z" />
    <glyph glyph-name="jcircumflex" unicode="&#x135;" horiz-adv-x="359" 
d="M101 -419v1443h156v-1443h-156zM493 1100h-174l-141 188l-142 -188h-174l316 423z" />
    <glyph glyph-name="Kcommaaccent" unicode="&#x136;" horiz-adv-x="1269" 
d="M110 1434h157v-588h110l583 588h219l-667 -667l746 -767h-215l-667 685h-109v-685h-157v1434zM505 -397v400h174l-58 -400h-116z" />
    <glyph glyph-name="kcommaaccent" unicode="&#x137;" horiz-adv-x="1002" 
d="M110 1434h157v-829h95l377 419h209l-446 -499l500 -525h-215l-426 444h-94v-444h-157v1434zM388 -400v400h174l-58 -400h-116z" />
    <glyph glyph-name="kgreenlandic" unicode="&#x138;" horiz-adv-x="1002" 
d="M110 1024h157v-419h95l377 419h209l-446 -499l500 -525h-215l-426 444h-94v-444h-157v1024z" />
    <glyph glyph-name="Lacute" unicode="&#x139;" horiz-adv-x="920" 
d="M110 1434h160v-1273h650v-161h-810v1434zM588 1810l-318 -311l-99 103l318 311z" />
    <glyph glyph-name="lacute" unicode="&#x13a;" horiz-adv-x="376" 
d="M110 0v1434h155v-1434h-155zM509 1810l-318 -311l-99 103l318 311z" />
    <glyph glyph-name="Lcommaaccent" unicode="&#x13b;" horiz-adv-x="920" 
d="M110 1434h160v-1273h650v-161h-810v1434zM448 -495v400h174l-58 -400h-116z" />
    <glyph glyph-name="lcommaaccent" unicode="&#x13c;" horiz-adv-x="376" 
d="M110 0v1434h155v-1434h-155zM101 -500v400h174l-58 -400h-116z" />
    <glyph glyph-name="Lcaron" unicode="&#x13d;" horiz-adv-x="920" 
d="M379 961v558h160v-558h-160zM110 1434h160v-1273h650v-161h-810v1434z" />
    <glyph glyph-name="lcaron" unicode="&#x13e;" horiz-adv-x="528" 
d="M367 961v558h160v-558h-160zM110 0v1434h155v-1434h-155z" />
    <glyph glyph-name="Ldot" unicode="&#x13f;" horiz-adv-x="920" 
d="M421 733h192v-190h-192v190zM110 1434h160v-1273h650v-161h-810v1434z" />
    <glyph glyph-name="ldot" unicode="&#x140;" horiz-adv-x="560" 
d="M368 792h192v-190h-192v190zM110 0v1434h155v-1434h-155z" />
    <glyph glyph-name="Lslash" unicode="&#x141;" horiz-adv-x="947" 
d="M137 1434h160v-632l220 221v-230l-220 -220v-412h650v-161h-810v413l-137 -137v229l137 137v792z" />
    <glyph glyph-name="lslash" unicode="&#x142;" horiz-adv-x="376" 
d="M0 501v229l110 110v594h155v-438l111 111v-230l-111 -111v-766h-155v611z" />
    <glyph glyph-name="Nacute" unicode="&#x143;" horiz-adv-x="1409" 
d="M110 1434h144l883 -1142v1142h160v-1434h-145l-882 1142v-1142h-160v1434zM1022 1809l-318 -311l-99 103l318 311z" />
    <glyph glyph-name="nacute" unicode="&#x144;" horiz-adv-x="1079" 
d="M264 1024v-190c60 144 172 213 327 213c277 0 393 -216 393 -468v-579h-155v577c0 183 -87 315 -283 315c-190 0 -282 -136 -282 -315v-577h-155v1024h155zM902 1440l-318 -311l-99 103l318 311z" />
    <glyph glyph-name="Ncommaaccent" unicode="&#x145;" horiz-adv-x="1406" 
d="M110 1434h144l883 -1142v1142h160v-1434h-145l-882 1142v-1142h-160v1434zM592 -398v400h174l-58 -400h-116z" />
    <glyph glyph-name="ncommaaccent" unicode="&#x146;" horiz-adv-x="1079" 
d="M264 1024v-190c60 144 172 213 327 213c277 0 393 -216 393 -468v-579h-155v577c0 183 -87 315 -283 315c-190 0 -282 -136 -282 -315v-577h-155v1024h155zM456 -400v400h174l-58 -400h-116z" />
    <glyph glyph-name="Ncaron" unicode="&#x147;" horiz-adv-x="1409" 
d="M110 1434h144l883 -1142v1142h160v-1434h-145l-882 1142v-1142h-160v1434zM840 1919h174l-313 -420l-318 422l174 1l144 -188z" />
    <glyph glyph-name="ncaron" unicode="&#x148;" horiz-adv-x="1079" 
d="M264 1024v-190c60 144 172 213 327 213c277 0 393 -216 393 -468v-579h-155v577c0 183 -87 315 -283 315c-190 0 -282 -136 -282 -315v-577h-155v1024h155zM723 1550h174l-313 -420l-318 422l174 1l144 -188z" />
    <glyph glyph-name="napostrophe" unicode="&#x149;" horiz-adv-x="1200" 
d="M385 1024v-190c60 144 172 213 327 213c277 0 393 -216 393 -468v-579h-155v577c0 183 -87 315 -283 315c-190 0 -282 -136 -282 -315v-577h-155v1024h155zM139 624v400h-174l58 -400h116z" />
    <glyph glyph-name="Eng" unicode="&#x14a;" horiz-adv-x="1404" 
d="M1138 20l-868 1132v-1152h-160v1435h144l883 -1153v1152h160v-1376c0 -300 -164 -444 -459 -411v164c33 -5 66 -11 99 -11c131 0 200 95 201 220z" />
    <glyph glyph-name="eng" unicode="&#x14b;" horiz-adv-x="1072" 
d="M264 1024v-190c60 144 172 213 327 213c277 0 393 -216 393 -468v-446c0 -244 -123 -425 -383 -419c-26 1 -51 3 -77 5v155c25 -1 51 -4 76 -4c160 -1 229 116 229 263v444c0 183 -87 315 -283 315c-190 0 -282 -136 -282 -315v-577h-155v1024h155z" />
    <glyph glyph-name="Omacron" unicode="&#x14c;" 
d="M818 124c329 0 593 261 593 591s-263 593 -593 593c-329 0 -593 -264 -593 -593s264 -591 593 -591zM1571 715c0 -417 -337 -750 -753 -750s-753 333 -753 750c0 416 337 754 753 754c417 0 753 -337 753 -754zM556 1731h516v-162h-516v162z" />
    <glyph glyph-name="omacron" unicode="&#x14d;" horiz-adv-x="1170" 
d="M585 -23c-300 0 -535 232 -535 533c0 296 239 537 535 537c297 0 535 -240 535 -537c0 -299 -237 -533 -535 -533zM204 511c0 -214 168 -379 381 -379s381 166 381 379c0 212 -169 381 -381 381s-381 -169 -381 -381zM324 1311h516v-162h-516v162z" />
    <glyph glyph-name="Obreve" unicode="&#x14e;" 
d="M818 124c329 0 593 261 593 591s-263 593 -593 593c-329 0 -593 -264 -593 -593s264 -591 593 -591zM1571 715c0 -417 -337 -750 -753 -750s-753 333 -753 750c0 416 337 754 753 754c417 0 753 -337 753 -754zM483 1930h149c0 -122 49 -229 186 -229
c134 0 186 110 186 229h151c0 -207 -115 -380 -337 -380s-335 174 -335 380z" />
    <glyph glyph-name="obreve" unicode="&#x14f;" horiz-adv-x="1170" 
d="M585 -23c-300 0 -535 232 -535 533c0 296 239 537 535 537c297 0 535 -240 535 -537c0 -299 -237 -533 -535 -533zM204 511c0 -214 168 -379 381 -379s381 166 381 379c0 212 -169 381 -381 381s-381 -169 -381 -381zM251 1510h149c0 -122 49 -229 186 -229
c134 0 186 110 186 229h151c0 -207 -115 -380 -337 -380s-335 174 -335 380z" />
    <glyph glyph-name="Ohungarumlaut" unicode="&#x150;" 
d="M818 124c329 0 593 261 593 591s-263 593 -593 593c-329 0 -593 -264 -593 -593s264 -591 593 -591zM1571 715c0 -417 -337 -750 -753 -750s-753 333 -753 750c0 416 337 754 753 754c417 0 753 -337 753 -754zM1013 1879l-398 -329l-105 127l397 328zM1408 1879
l-398 -329l-105 127l397 328z" />
    <glyph glyph-name="ohungarumlaut" unicode="&#x151;" horiz-adv-x="1226" 
d="M585 -23c-300 0 -535 232 -535 533c0 296 239 537 535 537c297 0 535 -240 535 -537c0 -299 -237 -533 -535 -533zM204 511c0 -214 168 -379 381 -379s381 166 381 379c0 212 -169 381 -381 381s-381 -169 -381 -381zM781 1459l-398 -329l-105 127l397 328zM1176 1459
l-398 -329l-105 127l397 328z" />
    <glyph glyph-name="OE" unicode="&#x152;" horiz-adv-x="2434" 
d="M1411 1434h955v-160h-794v-447h615v-160h-615v-505h794v-162h-955v251c-144 -182 -362 -286 -593 -286c-416 0 -753 333 -753 750c0 416 337 754 753 754c232 0 450 -106 593 -289v254zM818 124c329 0 593 261 593 591s-263 593 -593 593c-329 0 -593 -264 -593 -593
s264 -591 593 -591z" />
    <glyph glyph-name="oe" unicode="&#x153;" horiz-adv-x="2076" 
d="M1042 789c94 160 261 257 447 257c334 0 555 -293 517 -614h-874c36 -179 191 -297 372 -297c135 0 254 59 342 161l117 -106c-243 -286 -717 -295 -920 42c-273 -452 -993 -270 -993 278c0 296 239 537 535 537c187 0 361 -97 457 -258zM204 511
c0 -214 168 -379 381 -379s381 166 381 379c0 212 -169 381 -381 381s-381 -169 -381 -381zM1132 591h714c-83 399 -648 390 -714 0z" />
    <glyph glyph-name="Racute" unicode="&#x154;" horiz-adv-x="1289" 
d="M271 1273v-575h364c168 0 306 112 306 286s-137 289 -306 289h-364zM992 0l-370 538h-351v-538h-161v1434h525c252 0 467 -193 467 -450c0 -185 -120 -365 -305 -409l397 -575h-202zM906 1810l-318 -311l-99 103l318 311z" />
    <glyph glyph-name="racute" unicode="&#x155;" horiz-adv-x="634" 
d="M265 1024v-217c48 210 178 217 367 217v-150h-102c-192 0 -265 -149 -265 -321v-553h-155v1024h155zM652 1440l-318 -311l-99 103l318 311z" />
    <glyph glyph-name="Rcommaaccent" unicode="&#x156;" horiz-adv-x="1207" 
d="M271 1273v-575h364c168 0 306 112 306 286s-137 289 -306 289h-364zM992 0l-370 538h-351v-538h-161v1434h525c252 0 467 -193 467 -450c0 -185 -120 -365 -305 -409l397 -575h-202zM511 -400v400h174l-58 -400h-116z" />
    <glyph glyph-name="rcommaaccent" unicode="&#x157;" horiz-adv-x="634" 
d="M265 1024v-217c48 210 178 217 367 217v-150h-102c-192 0 -265 -149 -265 -321v-553h-155v1024h155zM109 -499v400h174l-58 -400h-116z" />
    <glyph glyph-name="Rcaron" unicode="&#x158;" horiz-adv-x="1296" 
d="M271 1273v-575h364c168 0 306 112 306 286s-137 289 -306 289h-364zM992 0l-370 538h-351v-538h-161v1434h525c252 0 467 -193 467 -450c0 -185 -120 -365 -305 -409l397 -575h-202zM709 1920h174l-313 -420l-318 422l174 1l144 -188z" />
    <glyph glyph-name="rcaron" unicode="&#x159;" horiz-adv-x="634" 
d="M251 1024v-217c48 210 178 217 367 217v-150h-102c-192 0 -265 -149 -265 -321v-553h-155v1024h155zM459 1550h174l-313 -420l-318 422l174 1l144 -188z" />
    <glyph glyph-name="Sacute" unicode="&#x15a;" horiz-adv-x="1126" 
d="M154 220c114 -48 238 -89 363 -89c139 0 369 59 369 234c0 367 -806 182 -806 703c0 285 287 391 529 391c128 0 275 -32 391 -87l-58 -148c-105 44 -218 75 -332 75c-151 0 -370 -39 -370 -232c0 -365 806 -175 806 -703c0 -280 -291 -392 -529 -392
c-147 0 -291 46 -425 102zM894 1861l-318 -311l-99 103l318 311z" />
    <glyph glyph-name="sacute" unicode="&#x15b;" horiz-adv-x="871" 
d="M701 835c-71 32 -156 57 -234 57c-89 0 -231 -22 -231 -139c0 -231 555 -112 555 -485c0 -209 -208 -291 -387 -291c-109 0 -217 29 -314 77l62 143c78 -38 163 -66 251 -66c83 0 233 32 233 139c0 224 -556 131 -556 484c0 210 205 293 386 293c100 0 200 -26 291 -67z
M770 1440l-318 -311l-99 103l318 311z" />
    <glyph glyph-name="Scircumflex" unicode="&#x15c;" horiz-adv-x="1126" 
d="M154 220c114 -48 238 -89 363 -89c139 0 369 59 369 234c0 367 -806 182 -806 703c0 285 287 391 529 391c128 0 275 -32 391 -87l-58 -148c-105 44 -218 75 -332 75c-151 0 -370 -39 -370 -232c0 -365 806 -175 806 -703c0 -280 -291 -392 -529 -392
c-147 0 -291 46 -425 102zM889 1551h-174l-141 188l-142 -188h-174l316 423z" />
    <glyph glyph-name="scircumflex" unicode="&#x15d;" horiz-adv-x="852" 
d="M701 835c-71 32 -156 57 -234 57c-89 0 -231 -22 -231 -139c0 -231 555 -112 555 -485c0 -209 -208 -291 -387 -291c-109 0 -217 29 -314 77l62 143c78 -38 163 -66 251 -66c83 0 233 32 233 139c0 224 -556 131 -556 484c0 210 205 293 386 293c100 0 200 -26 291 -67z
M765 1130h-174l-141 188l-142 -188h-174l316 423z" />
    <glyph glyph-name="Scedilla" unicode="&#x15e;" horiz-adv-x="1126" 
d="M154 220c115 -47 237 -89 363 -89c139 0 369 59 369 234c0 367 -806 182 -806 703c0 285 287 391 529 391c128 0 275 -32 391 -87l-58 -148c-105 44 -218 75 -332 75c-151 0 -370 -39 -370 -232c0 -365 806 -175 806 -703c0 -256 -241 -369 -463 -389l-15 -58h52
c262 0 264 -413 -23 -413c-100 0 -184 81 -202 176l150 29c8 -29 33 -55 65 -55c74 0 73 128 -4 128c-72 0 -143 -19 -214 -31l53 225c-122 12 -240 51 -353 98z" />
    <glyph glyph-name="scedilla" unicode="&#x15f;" horiz-adv-x="855" 
d="M701 835c-71 32 -156 57 -234 57c-90 0 -231 -22 -231 -139c0 -231 555 -112 555 -485c0 -192 -176 -277 -344 -289l-15 -59h52c262 0 264 -413 -23 -413c-99 0 -184 81 -202 176l150 29c8 -29 33 -55 65 -55c74 0 72 128 -4 128c-72 0 -143 -19 -214 -31l54 230
c-76 12 -151 36 -220 70l62 143c78 -38 163 -66 251 -66c83 0 233 32 233 139c0 224 -556 131 -556 484c0 210 205 293 386 293c100 0 200 -26 291 -67z" />
    <glyph glyph-name="Scaron" unicode="&#x160;" horiz-adv-x="1126" 
d="M154 220c114 -48 238 -89 363 -89c139 0 369 59 369 234c0 367 -806 182 -806 703c0 285 287 391 529 391c128 0 275 -32 391 -87l-58 -148c-105 44 -218 75 -332 75c-151 0 -370 -39 -370 -232c0 -365 806 -175 806 -703c0 -280 -291 -392 -529 -392
c-147 0 -291 46 -425 102zM715 1971h174l-313 -420l-318 422l174 1l144 -188z" />
    <glyph glyph-name="scaron" unicode="&#x161;" horiz-adv-x="848" 
d="M701 835c-71 32 -156 57 -234 57c-89 0 -231 -22 -231 -139c0 -231 555 -112 555 -485c0 -209 -208 -291 -387 -291c-109 0 -217 29 -314 77l62 143c78 -38 163 -66 251 -66c83 0 233 32 233 139c0 224 -556 131 -556 484c0 210 205 293 386 293c100 0 200 -26 291 -67z
M591 1550h174l-313 -420l-318 422l174 1l144 -188z" />
    <glyph glyph-name="Tcommaaccent" unicode="&#x162;" horiz-adv-x="1131" 
d="M14 1434h1103v-161h-471v-1273h-161v1273h-471v161zM478 -499v400h174l-58 -400h-116z" />
    <glyph glyph-name="tcommaaccent" unicode="&#x163;" horiz-adv-x="599" 
d="M5 869v155h215v299h155v-299h219v-155h-219v-869h-155v869h-215zM220 -500v400h174l-58 -400h-116z" />
    <glyph glyph-name="Tcaron" unicode="&#x164;" horiz-adv-x="1131" 
d="M14 1434h1103v-161h-471v-1273h-161v1273h-471v161zM703 1920h174l-313 -420l-318 422l174 1l144 -188z" />
    <glyph glyph-name="tcaron" unicode="&#x165;" horiz-adv-x="626" 
d="M5 869v155h215v299h155v-299h219v-155h-219v-869h-155v869h-215zM594 1100h-98l-50 237h148v-237z" />
    <glyph glyph-name="Tbar" unicode="&#x166;" horiz-adv-x="1102" 
d="M83 797h387v476h-471v161h1103v-161h-471v-476h388v-161h-388v-636h-161v636h-387v161z" />
    <glyph glyph-name="tbar" unicode="&#x167;" horiz-adv-x="599" 
d="M5 697h215v172h-215v155h215v299h155v-299h219v-155h-219v-172h219v-155h-219v-542h-155v542h-215v155z" />
    <glyph glyph-name="Utilde" unicode="&#x168;" horiz-adv-x="1374" 
d="M1282 1434v-874c0 -327 -269 -595 -596 -595c-329 0 -595 266 -595 595v874h162v-874c0 -242 191 -433 433 -433c239 0 432 194 432 433v874h164zM408 1710c40 40 90 48 144 48c110 0 180 -99 271 -99c75 0 107 36 142 98v-207c-38 -36 -91 -49 -142 -49
c-115 0 -175 97 -271 97c-75 0 -109 -35 -144 -97v209z" />
    <glyph glyph-name="utilde" unicode="&#x169;" horiz-adv-x="1024" 
d="M247 1024v-626c0 -146 119 -265 265 -265c147 0 265 118 265 265v626h155v-626c0 -233 -187 -421 -420 -421c-234 0 -421 187 -421 421v626h156zM230 1310c40 40 90 48 144 48c110 0 180 -99 271 -99c75 0 107 36 142 98v-207c-38 -36 -91 -49 -142 -49
c-115 0 -175 97 -271 97c-75 0 -109 -35 -144 -97v209z" />
    <glyph glyph-name="Umacron" unicode="&#x16a;" horiz-adv-x="1374" 
d="M1282 1434v-874c0 -327 -269 -595 -596 -595c-329 0 -595 266 -595 595v874h162v-874c0 -242 191 -433 433 -433c239 0 432 194 432 433v874h164zM425 1681h516v-162h-516v162z" />
    <glyph glyph-name="umacron" unicode="&#x16b;" horiz-adv-x="1024" 
d="M247 1024v-626c0 -146 119 -265 265 -265c147 0 265 118 265 265v626h155v-626c0 -233 -187 -421 -420 -421c-234 0 -421 187 -421 421v626h156zM247 1281h516v-162h-516v162z" />
    <glyph glyph-name="Ubreve" unicode="&#x16c;" horiz-adv-x="1374" 
d="M1282 1434v-874c0 -327 -269 -595 -596 -595c-329 0 -595 266 -595 595v874h162v-874c0 -242 191 -433 433 -433c239 0 432 194 432 433v874h164zM352 1880h149c0 -122 49 -229 186 -229c134 0 186 110 186 229h151c0 -207 -115 -380 -337 -380s-335 174 -335 380z" />
    <glyph glyph-name="ubreve" unicode="&#x16d;" horiz-adv-x="1024" 
d="M247 1024v-626c0 -146 119 -265 265 -265c147 0 265 118 265 265v626h155v-626c0 -233 -187 -421 -420 -421c-234 0 -421 187 -421 421v626h156zM174 1480h149c0 -122 49 -229 186 -229c134 0 186 110 186 229h151c0 -207 -115 -380 -337 -380s-335 174 -335 380z" />
    <glyph glyph-name="Uring" unicode="&#x16e;" horiz-adv-x="1374" 
d="M1282 1434v-874c0 -327 -269 -595 -596 -595c-329 0 -595 266 -595 595v874h162v-874c0 -242 191 -433 433 -433c239 0 432 194 432 433v874h164zM425 1761c0 147 116 258 262 258c145 0 267 -110 267 -258c0 -149 -120 -261 -267 -261c-146 0 -262 115 -262 261z
M574 1759c0 -151 230 -151 230 0s-230 151 -230 0z" />
    <glyph glyph-name="uring" unicode="&#x16f;" horiz-adv-x="1024" 
d="M247 1024v-626c0 -146 119 -265 265 -265c147 0 265 118 265 265v626h155v-626c0 -233 -187 -421 -420 -421c-234 0 -421 187 -421 421v626h156zM247 1361c0 147 116 258 262 258c145 0 267 -110 267 -258c0 -149 -120 -261 -267 -261c-146 0 -262 115 -262 261z
M396 1359c0 -151 230 -151 230 0s-230 151 -230 0z" />
    <glyph glyph-name="Uhungarumlaut" unicode="&#x170;" horiz-adv-x="1381" 
d="M1282 1434v-874c0 -327 -269 -595 -596 -595c-329 0 -595 266 -595 595v874h162v-874c0 -242 191 -433 433 -433c239 0 432 194 432 433v874h164zM882 1829l-398 -329l-105 127l397 328zM1277 1829l-398 -329l-105 127l397 328z" />
    <glyph glyph-name="uhungarumlaut" unicode="&#x171;" horiz-adv-x="1036" 
d="M247 1024v-626c0 -146 119 -265 265 -265c147 0 265 118 265 265v626h155v-626c0 -233 -187 -421 -420 -421c-234 0 -421 187 -421 421v626h156zM704 1429l-398 -329l-105 127l397 328zM1099 1429l-398 -329l-105 127l397 328z" />
    <glyph glyph-name="Uogonek" unicode="&#x172;" horiz-adv-x="1374" 
d="M1282 1434v-874c0 -189 -91 -367 -243 -478c-30 -23 -61 -39 -94 -57c-65 -36 -204 -132 -204 -215c0 -97 157 -105 147 37l153 15c16 -152 -78 -277 -236 -277c-118 0 -220 96 -220 216c0 60 24 118 59 166c-312 21 -553 280 -553 593v874h162v-874
c0 -242 191 -433 433 -433c239 0 432 194 432 433v874h164z" />
    <glyph glyph-name="uogonek" unicode="&#x173;" horiz-adv-x="1024" 
d="M692 16h-2c-73 -40 -241 -143 -241 -236c0 -37 27 -71 66 -71c64 0 85 52 81 108l153 15c16 -152 -78 -277 -236 -277c-118 0 -220 96 -220 216c0 86 47 161 106 221c-184 50 -308 216 -308 406v626h156v-626c0 -146 119 -265 265 -265c147 0 265 118 265 265v626h155
v-626c0 -132 -61 -256 -166 -336c-23 -18 -47 -30 -72 -44c-1 0 -1 -1 -2 -2z" />
    <glyph glyph-name="Wcircumflex" unicode="&#x174;" horiz-adv-x="2112" 
d="M981 1438h150l415 -1198l375 1194h161l-460 -1434h-152l-414 1228l-415 -1228h-151l-460 1434h161l375 -1194zM1370 1500h-174l-141 188l-142 -188h-174l316 423z" />
    <glyph glyph-name="wcircumflex" unicode="&#x175;" horiz-adv-x="1560" 
d="M709 1024h142l273 -771l241 771h165l-329 -1024h-149l-272 773l-272 -773h-149l-329 1024h165l242 -772zM1093 1130h-174l-141 188l-142 -188h-174l316 423z" />
    <glyph glyph-name="Ycircumflex" unicode="&#x176;" horiz-adv-x="1385" 
d="M1179 1434h188l-593 -853v-581h-161v581l-595 853h190l486 -703zM1007 1500h-174l-141 188l-142 -188h-174l316 423z" />
    <glyph glyph-name="ycircumflex" unicode="&#x177;" horiz-adv-x="1046" 
d="M868 1024h168l-599 -1443h-167l195 475l-424 968h170l336 -787zM859 1100h-174l-141 188l-142 -188h-174l316 423z" />
    <glyph glyph-name="Ydieresis" unicode="&#x178;" horiz-adv-x="1385" 
d="M1179 1434h188l-593 -853v-581h-161v581l-595 853h190l486 -703zM464 1692h188v-182h-188v182zM734 1692h188v-182h-188v182z" />
    <glyph glyph-name="Zacute" unicode="&#x179;" horiz-adv-x="1271" 
d="M64 1434h1144v-150l-925 -1123h925v-161h-1144v151l926 1122h-926v161zM976 1810l-318 -311l-99 103l318 311z" />
    <glyph glyph-name="zacute" unicode="&#x17a;" horiz-adv-x="974" 
d="M50 1024h874v-144l-654 -724h654v-156h-874v144l654 723h-654v157zM810 1440l-318 -311l-99 103l318 311z" />
    <glyph glyph-name="Zdotaccent" unicode="&#x17b;" horiz-adv-x="1271" 
d="M64 1434h1144v-150l-925 -1123h925v-161h-1144v151l926 1122h-926v161zM559 1739h199v-190h-199v190z" />
    <glyph glyph-name="zdotaccent" unicode="&#x17c;" horiz-adv-x="972" 
d="M48 1024h874v-144l-654 -724h654v-156h-874v144l654 723h-654v157zM391 1369h199v-190h-199v190z" />
    <glyph glyph-name="Zcaron" unicode="&#x17d;" horiz-adv-x="1271" 
d="M64 1434h1144v-150l-925 -1123h925v-161h-1144v151l926 1122h-926v161zM797 1920h174l-313 -420l-318 422l174 1l144 -188z" />
    <glyph glyph-name="zcaron" unicode="&#x17e;" horiz-adv-x="977" 
d="M52 1024h874v-144l-654 -724h654v-156h-874v144l654 723h-654v157zM633 1550h174l-313 -420l-318 422l174 1l144 -188z" />
    <glyph glyph-name="longs" unicode="&#x17f;" horiz-adv-x="573" 
d="M96 0v1221c0 148 79 230 227 230c136 0 215 -99 215 -230h-155c0 104 -132 108 -132 0v-1221h-155z" />
    <glyph glyph-name="AEacute" unicode="&#x1fc;" horiz-adv-x="1958" 
d="M19 0l942 1433l933 -1v-161l-794 1v-445h615v-160h-615v-505l794 -1v-161h-955v359h-485l-238 -359h-197zM556 517h383v595zM1339 1810l-318 -311l-99 103l318 311z" />
    <glyph glyph-name="aeacute" unicode="&#x1fd;" horiz-adv-x="1762" 
d="M762 830c313 433 1004 175 937 -398h-874c36 -179 191 -297 372 -297c135 0 254 59 342 161l117 -106c-240 -281 -706 -296 -913 31c-156 -378 -702 -281 -702 66c0 197 163 305 346 305h272v17c0 169 -52 283 -234 283c-96 0 -171 -38 -214 -127l-147 63
c67 144 205 219 361 219c157 0 282 -63 337 -217zM825 591h714c-83 399 -648 390 -714 0zM660 444h-273c-97 0 -187 -52 -187 -158c0 -108 96 -162 194 -162c169 0 266 167 266 320zM1109 1438l-318 -311l-99 103l318 311z" />
    <glyph glyph-name="Oslashacute" unicode="&#x1fe;" 
d="M1164 1385c250 -130 407 -388 407 -670c0 -417 -337 -750 -753 -750c-61 0 -123 8 -182 22l-33 -87h-171l53 141c-258 127 -420 386 -420 674c0 416 337 754 753 754c66 0 133 -9 197 -26l34 90h171zM958 1292c-377 85 -733 -187 -733 -577c0 -221 121 -422 317 -524z
M693 137c41 -9 83 -13 125 -13c329 0 593 261 593 591c0 216 -115 414 -304 519zM1136 1860l-318 -311l-99 103l318 311z" />
    <glyph glyph-name="oslashacute" unicode="&#x1ff;" horiz-adv-x="1170" 
d="M847 978c169 -95 273 -274 273 -468c0 -299 -237 -533 -535 -533c-38 0 -75 4 -112 11l-33 -88h-165l53 140c-175 92 -278 273 -278 470c0 296 239 537 535 537c40 0 79 -5 118 -13l36 95h165zM647 887c-421 64 -609 -489 -264 -700zM529 136c19 -3 37 -4 56 -4
c382 0 523 495 207 700zM905 1462l-318 -311l-99 103l318 311z" />
    <glyph glyph-name="Scommaaccent" unicode="&#x218;" horiz-adv-x="1099" 
d="M144 220c114 -48 238 -89 363 -89c139 0 369 59 369 234c0 367 -806 182 -806 703c0 285 287 391 529 391c128 0 275 -32 391 -87l-58 -148c-105 44 -218 75 -332 75c-151 0 -370 -39 -370 -232c0 -365 806 -175 806 -703c0 -280 -291 -392 -529 -392
c-147 0 -291 46 -425 102zM449 -498v400h174l-58 -400h-116z" />
    <glyph glyph-name="scommaaccent" unicode="&#x219;" horiz-adv-x="849" 
d="M692 835c-71 32 -156 57 -234 57c-89 0 -231 -22 -231 -139c0 -231 555 -112 555 -485c0 -209 -208 -291 -387 -291c-109 0 -217 29 -314 77l62 143c78 -38 163 -66 251 -66c83 0 233 32 233 139c0 224 -556 131 -556 484c0 210 205 293 386 293c100 0 200 -26 291 -67z
M337 -501v400h174l-58 -400h-116z" />
    <glyph glyph-name="dotlessj" unicode="&#x237;" horiz-adv-x="359" 
d="M98 -419v1443h156v-1443h-156z" />
    <glyph glyph-name="uni02BB" unicode="&#x2bb;" horiz-adv-x="365" 
d="M255 1600v-553h-174l58 553h116z" />
    <glyph glyph-name="uni02BC" unicode="&#x2bc;" horiz-adv-x="365" 
d="M110 1047v553h174l-58 -553h-116z" />
    <glyph glyph-name="uni02BD" unicode="&#x2bd;" horiz-adv-x="365" 
d="M255 1600v-553h-116l-58 553h174z" />
    <glyph glyph-name="circumflex" unicode="&#x2c6;" horiz-adv-x="669" 
d="M650 1039h-174l-141 188l-142 -188h-174l316 423z" />
    <glyph glyph-name="caron" unicode="&#x2c7;" horiz-adv-x="669" 
d="M476 1459h174l-313 -420l-318 422l174 1l144 -188z" />
    <glyph glyph-name="uni02C8" unicode="&#x2c8;" horiz-adv-x="386" 
d="M110 1515h159v-458h-159v458z" />
    <glyph glyph-name="uni02C9" unicode="&#x2c9;" horiz-adv-x="738" 
d="M110 1381h516v-162h-516v162z" />
    <glyph glyph-name="uni02CA" unicode="&#x2ca;" horiz-adv-x="432" 
d="M424 1377l-318 -311l-99 103l318 311z" />
    <glyph glyph-name="uni02CB" unicode="&#x2cb;" horiz-adv-x="432" 
d="M325 1066l-318 311l99 103l318 -311z" />
    <glyph glyph-name="uni02CC" unicode="&#x2cc;" horiz-adv-x="386" 
d="M110 -100h159v-458h-159v458z" />
    <glyph glyph-name="uni02CE" unicode="&#x2ce;" horiz-adv-x="432" 
d="M325 -516l-318 311l99 103l318 -311z" />
    <glyph glyph-name="uni02CF" unicode="&#x2cf;" horiz-adv-x="432" 
d="M424 -203l-318 -311l-99 103l318 311z" />
    <glyph glyph-name="breve" unicode="&#x2d8;" horiz-adv-x="804" 
d="M66 1459h149c0 -122 49 -229 186 -229c134 0 186 110 186 229h151c0 -207 -115 -380 -337 -380s-335 174 -335 380z" />
    <glyph glyph-name="dotaccent" unicode="&#x2d9;" horiz-adv-x="424" 
d="M110 1356h199v-190h-199v190z" />
    <glyph glyph-name="ring" unicode="&#x2da;" horiz-adv-x="661" 
d="M66 1318c0 147 116 258 262 258c145 0 267 -110 267 -258c0 -149 -120 -261 -267 -261c-146 0 -262 115 -262 261zM215 1316c0 -151 230 -151 230 0s-230 151 -230 0z" />
    <glyph glyph-name="ogonek" unicode="&#x2db;" horiz-adv-x="563" 
d="M310 108l156 -90c-77 -40 -258 -148 -258 -245c0 -96 156 -106 147 37l153 15c16 -152 -78 -277 -236 -277c-118 0 -220 96 -220 216c0 151 144 267 258 344z" />
    <glyph glyph-name="tilde" unicode="&#x2dc;" horiz-adv-x="777" 
d="M110 1325c40 40 90 48 144 48c110 0 180 -99 271 -99c75 0 107 36 142 98v-207c-38 -36 -91 -49 -142 -49c-115 0 -175 97 -271 97c-75 0 -109 -35 -144 -97v209z" />
    <glyph glyph-name="hungarumlaut" unicode="&#x2dd;" horiz-adv-x="973" 
d="M541 1354l-398 -329l-105 127l397 328zM936 1354l-398 -329l-105 127l397 328z" />
    <glyph glyph-name="uni0401" unicode="&#x401;" horiz-adv-x="1097" 
d="M110 1434h955v-160h-794v-447h615v-160h-615v-505h794v-162h-955v1434zM349 1692h188v-182h-188v182zM619 1692h188v-182h-188v182z" />
    <glyph glyph-name="uni0402" unicode="&#x402;" horiz-adv-x="1475" 
d="M890 1272h-363v-436c68 139 221 215 372 215c294 0 533 -232 533 -528s-238 -528 -533 -528c-31 0 -62 3 -93 5v160c31 -2 62 -4 93 -4c206 0 372 159 372 367c0 204 -169 367 -372 367c-218 0 -371 -158 -371 -375v-515h-162v1272h-366v162h890v-162z" />
    <glyph glyph-name="uni0403" unicode="&#x403;" horiz-adv-x="830" 
d="M831 1273h-558v-1273h-161v1434h719v-161zM769 1845l-318 -311l-99 103l318 311z" />
    <glyph glyph-name="uni0404" unicode="&#x404;" horiz-adv-x="1447" 
d="M1361 1214l-116 -112c-116 125 -267 207 -440 207c-292 0 -545 -220 -585 -510h751v-161h-752c36 -306 280 -513 586 -513c174 0 351 102 461 233l122 -104c-141 -168 -360 -289 -583 -289c-424 0 -750 330 -750 753c0 421 328 751 750 751c225 0 405 -93 556 -255z" />
    <glyph glyph-name="uni0405" unicode="&#x405;" horiz-adv-x="1126" 
d="M154 220c114 -48 238 -89 363 -89c139 0 369 59 369 234c0 367 -806 182 -806 703c0 285 287 391 529 391c128 0 275 -32 391 -87l-58 -148c-105 44 -218 75 -332 75c-151 0 -370 -39 -370 -232c0 -365 806 -175 806 -703c0 -280 -291 -392 -529 -392
c-147 0 -291 46 -425 102z" />
    <glyph glyph-name="uni0406" unicode="&#x406;" horiz-adv-x="388" 
d="M110 0v1434h161v-1434h-161z" />
    <glyph glyph-name="uni0407" unicode="&#x407;" horiz-adv-x="388" 
d="M110 0v1434h161v-1434h-161zM-39 1692h188v-182h-188v182zM231 1692h188v-182h-188v182z" />
    <glyph glyph-name="uni0408" unicode="&#x408;" horiz-adv-x="724" 
d="M621 1434v-1106c0 -195 -112 -351 -318 -351c-159 0 -270 98 -303 250l149 60c11 -86 63 -149 154 -149c114 0 157 88 157 190v1106h161z" />
    <glyph glyph-name="uni0409" unicode="&#x409;" horiz-adv-x="2223" 
d="M337 1434h1015v-483h359c258 0 475 -219 475 -476c0 -263 -212 -475 -475 -475h-520v1272h-694v-924c0 -203 -160 -357 -361 -357c-52 0 -105 11 -151 36v170c40 -18 108 -46 151 -46c115 0 201 81 201 197v1086zM1352 160h359c173 0 315 142 315 315s-142 316 -315 316
h-359v-631z" />
    <glyph glyph-name="uni040A" unicode="&#x40a;" horiz-adv-x="1898" 
d="M1168 156h286c134 0 250 109 250 244s-117 245 -250 245h-286v-489zM1169 809h286c219 0 404 -187 404 -405c0 -219 -185 -404 -404 -404h-447v647h-737v-647h-161v1433h161v-625h737v624h161v-623z" />
    <glyph glyph-name="uni040B" unicode="&#x40b;" horiz-adv-x="1126" 
d="M154 220c114 -48 238 -89 363 -89c139 0 369 59 369 234c0 367 -806 182 -806 703c0 285 287 391 529 391c128 0 275 -32 391 -87l-58 -148c-105 44 -218 75 -332 75c-151 0 -370 -39 -370 -232c0 -365 806 -175 806 -703c0 -280 -291 -392 -529 -392
c-147 0 -291 46 -425 102z" />
    <glyph glyph-name="uni040C" unicode="&#x40c;" horiz-adv-x="1267" 
d="M110 1434h157v-588h110l583 588h219l-667 -667l746 -767h-215l-667 685h-109v-685h-157v1434zM819 1810l-318 -311l-99 103l318 311z" />
    <glyph glyph-name="uni040D" unicode="&#x40d;" horiz-adv-x="1406" 
d="M1297 1434h-144l-883 -1152v1152h-160v-1434h145l882 1152v-1152h160v1434zM700 1500l-318 311l99 103l318 -311z" />
    <glyph glyph-name="uni040E" unicode="&#x40e;" horiz-adv-x="1099" 
d="M916 1434h174l-629 -1434h-173l214 496l-489 938h178l394 -766zM224 1880h149c0 -122 49 -229 186 -229c134 0 186 110 186 229h151c0 -207 -115 -380 -337 -380s-335 174 -335 380z" />
    <glyph glyph-name="uni040F" unicode="&#x40f;" horiz-adv-x="1352" 
d="M593 -300v300h-483v1434h161v-1272h810v1272h161v-1434h-483v-300h-166z" />
    <glyph glyph-name="uni0410" unicode="&#x410;" horiz-adv-x="1362" 
d="M609 1434h141l608 -1434h-174l-185 431h-639l-186 -431h-173zM680 1201l-257 -610h513z" />
    <glyph glyph-name="uni0411" unicode="&#x411;" horiz-adv-x="1129" 
d="M270 161h369c159 0 284 124 284 283c0 158 -126 284 -284 284h-369v-567zM270 888h369c241 0 445 -202 445 -444c0 -245 -200 -444 -445 -444h-529v1437h855v-161h-695v-388z" />
    <glyph glyph-name="uni0412" unicode="&#x412;" horiz-adv-x="1138" 
d="M272 680v-519c127 0 254 1 381 1c142 0 259 117 259 259c0 148 -125 259 -270 259h-370zM272 841h349c116 0 216 101 216 217c0 119 -100 215 -218 215h-347v-432zM830 776c154 -67 244 -183 244 -355c0 -234 -185 -421 -419 -421h-545v1434h523c199 0 365 -180 365 -376
c0 -126 -60 -220 -168 -282z" />
    <glyph glyph-name="uni0413" unicode="&#x413;" horiz-adv-x="829" 
d="M829 1273h-558v-1273h-161v1434h719v-161z" />
    <glyph glyph-name="uni0414" unicode="&#x414;" horiz-adv-x="1501" 
d="M327 161h778v1113h-657v-525c0 -82 -1 -164 -5 -246c-7 -118 -16 -263 -116 -342zM1265 161h185v-430h-161v269h-1078v-269h-160v430c197 -1 220 174 231 332c6 85 6 171 6 256v685h977v-1273z" />
    <glyph glyph-name="uni0415" unicode="&#x415;" horiz-adv-x="1116" 
d="M110 1434h955v-160h-794v-447h615v-160h-615v-505h794v-162h-955v1434z" />
    <glyph glyph-name="uni0416" unicode="&#x416;" horiz-adv-x="1869" 
d="M855 1434h157v-591h153l440 591h199l-500 -671l558 -763h-199l-498 683h-153v-683h-157v683h-154l-498 -683h-197l555 762l-499 672h199l441 -591h153v591z" />
    <glyph glyph-name="uni0417" unicode="&#x417;" horiz-adv-x="1174" 
d="M90 1212c124 142 284 256 479 256c255 0 503 -132 503 -416c0 -132 -67 -248 -184 -310c133 -60 211 -182 211 -328c0 -317 -266 -449 -549 -449c-201 0 -373 117 -505 259l117 110c101 -107 234 -209 388 -209c191 0 387 77 387 299c0 146 -141 236 -275 236h-306v165
h311c123 0 244 85 244 217c0 196 -172 265 -342 265c-144 0 -266 -96 -356 -200z" />
    <glyph glyph-name="uni0418" unicode="&#x418;" horiz-adv-x="1407" 
d="M1297 1434v-1434h-160v1152l-882 -1152h-145v1434h160v-1152l883 1152h144z" />
    <glyph glyph-name="uni0419" unicode="&#x419;" horiz-adv-x="1358" 
d="M1297 1434h-144l-883 -1152v1152h-160v-1434h145l882 1152v-1152h160v1434zM361 1880h149c0 -122 49 -229 186 -229c134 0 186 110 186 229h151c0 -207 -115 -380 -337 -380s-335 174 -335 380z" />
    <glyph glyph-name="uni041A" unicode="&#x41a;" horiz-adv-x="1273" 
d="M110 1434h157v-588h110l583 588h219l-667 -667l746 -767h-215l-667 685h-109v-685h-157v1434z" />
    <glyph glyph-name="uni041B" unicode="&#x41b;" horiz-adv-x="1480" 
d="M354 1434h1015v-1434h-161v1272h-694v-924c0 -203 -160 -357 -361 -357c-52 0 -105 11 -151 36v170c40 -18 107 -46 151 -46c115 0 201 81 201 197v1086z" />
    <glyph glyph-name="uni041C" unicode="&#x41c;" horiz-adv-x="1646" 
d="M1388 1434h147v-1434h-159v1140l-554 -760l-554 760v-1140h-158v1434h146l566 -777z" />
    <glyph glyph-name="uni041D" unicode="&#x41d;" horiz-adv-x="1352" 
d="M110 1434h161v-626h809v626h161v-1434h-161v647h-809v-647h-161v1434z" />
    <glyph glyph-name="uni041E" unicode="&#x41e;" 
d="M818 124c329 0 593 261 593 591s-263 593 -593 593c-329 0 -593 -264 -593 -593s264 -591 593 -591zM1571 715c0 -417 -337 -750 -753 -750s-753 333 -753 750c0 416 337 754 753 754c417 0 753 -337 753 -754z" />
    <glyph glyph-name="uni041F" unicode="&#x41f;" horiz-adv-x="1353" 
d="M110 1434h1132v-1434h-161v1272h-810v-1272h-161v1434z" />
    <glyph glyph-name="uni0420" unicode="&#x420;" horiz-adv-x="1145" 
d="M271 1273v-631h359c178 0 315 137 315 315c0 173 -141 316 -315 316h-359zM271 482v-482h-161v1434h520c265 0 475 -213 475 -477c0 -263 -211 -475 -475 -475h-359z" />
    <glyph glyph-name="uni0421" unicode="&#x421;" horiz-adv-x="1449" 
d="M1394 254c-141 -168 -360 -289 -583 -289c-424 0 -750 330 -750 753c0 421 328 751 750 751c225 0 405 -93 556 -255l-116 -112c-116 125 -267 207 -440 207c-324 0 -590 -267 -590 -591c0 -340 249 -593 590 -593c174 0 351 102 461 233z" />
    <glyph glyph-name="uni0422" unicode="&#x422;" horiz-adv-x="1131" 
d="M14 1434h1103v-161h-471v-1273h-161v1273h-471v161z" />
    <glyph glyph-name="uni0423" unicode="&#x423;" horiz-adv-x="1078" 
d="M904 1434h174l-629 -1434h-173l214 496l-489 938h178l394 -766z" />
    <glyph glyph-name="uni0424" unicode="&#x424;" horiz-adv-x="1500" 
d="M829 1271h95c296 0 535 -241 535 -537c0 -301 -235 -533 -535 -533h-95v-201h-157v201h-96c-300 0 -535 232 -535 533c0 296 239 537 535 537h96v163h157v-163zM672 1110h-96c-222 0 -374 -151 -374 -373c0 -210 165 -372 374 -372h96v745zM829 365h95
c209 0 374 162 374 372c0 222 -152 373 -374 373h-95v-745z" />
    <glyph glyph-name="uni0425" unicode="&#x425;" horiz-adv-x="1414" 
d="M1207 1434h208l-602 -717l602 -717h-210l-496 592l-498 -592h-210l603 717l-601 717h209l497 -592z" />
    <glyph glyph-name="uni0426" unicode="&#x426;" horiz-adv-x="1464" 
d="M1273 0h-1163v1434h161v-1271h814v1271h163v-1273h186v-431h-161v270z" />
    <glyph glyph-name="uni0427" unicode="&#x427;" horiz-adv-x="1205" 
d="M934 724v710h161v-1434h-161v558c-125 -31 -253 -59 -383 -59c-354 0 -502 218 -502 552v383h161v-383c0 -243 78 -388 341 -388c130 0 258 27 383 61z" />
    <glyph glyph-name="uni0428" unicode="&#x428;" horiz-adv-x="1815" 
d="M988 1434v-1272h553v1272h163v-1434h-1594v1434h161v-1272h554v1272h163z" />
    <glyph glyph-name="uni0429" unicode="&#x429;" horiz-adv-x="1920" 
d="M987 1434v-1272h553v1272h163v-1274h186v-431h-161v271h-1619v1434h161v-1272h554v1272h163z" />
    <glyph glyph-name="uni042A" unicode="&#x42a;" horiz-adv-x="1391" 
d="M511 160h360c174 0 315 141 315 315c0 173 -142 316 -315 316h-360v-631zM0 1434h511v-483h360c265 0 475 -211 475 -476c0 -264 -211 -475 -475 -475h-520v1276h-351v158z" />
    <glyph glyph-name="uni042B" unicode="&#x42b;" horiz-adv-x="1553" 
d="M270 160h360c174 0 315 141 315 315s-141 316 -315 316h-360v-631zM1285 0v1434h161v-1434h-161zM270 951h360c263 0 475 -214 475 -476c0 -264 -211 -475 -475 -475h-520v1434h160v-483z" />
    <glyph glyph-name="uni042C" unicode="&#x42c;" horiz-adv-x="1149" 
d="M270 160h360c173 0 315 142 315 315s-142 316 -315 316h-360v-631zM270 951h360c258 0 475 -219 475 -476c0 -263 -212 -475 -475 -475h-520v1434h160v-483z" />
    <glyph glyph-name="uni042D" unicode="&#x42d;" horiz-adv-x="1447" 
d="M472 638v161h750c-40 289 -292 510 -584 510c-173 0 -324 -82 -440 -207l-116 112c151 162 331 255 556 255c422 0 750 -330 750 -751c0 -423 -326 -753 -750 -753c-223 0 -442 121 -583 289l122 104c110 -131 287 -233 461 -233c306 0 549 207 585 513h-751z" />
    <glyph glyph-name="uni042E" unicode="&#x42e;" horiz-adv-x="2106" 
d="M1280 122c326 0 593 266 593 593c0 326 -266 593 -593 593c-326 0 -592 -268 -592 -593s267 -593 592 -593zM532 638h-263v-638h-161v1437h161v-638h263c38 375 372 670 748 670c414 0 753 -341 753 -754s-341 -752 -753 -752c-388 0 -704 291 -748 675z" />
    <glyph glyph-name="uni042F" unicode="&#x42f;" horiz-adv-x="1212" 
d="M934 698v575h-364c-405 0 -409 -575 0 -575h364zM583 538l-370 -538h-202l397 575c-185 44 -305 224 -305 409c0 257 215 450 467 450h525v-1434h-161v538h-351z" />
    <glyph glyph-name="uni0430" unicode="&#x430;" horiz-adv-x="1213" 
d="M952 176c-81 -134 -212 -199 -367 -199c-300 0 -535 232 -535 533c0 504 661 737 902 333v181h155v-1024h-155v176zM204 511c0 -214 168 -379 381 -379s381 166 381 379c0 212 -169 381 -381 381s-381 -169 -381 -381z" />
    <glyph glyph-name="uni0431" unicode="&#x431;" horiz-adv-x="1144" 
d="M199 811c82 147 200 236 373 236c295 0 522 -247 522 -537c0 -295 -223 -533 -522 -533c-338 0 -522 292 -522 604c0 621 404 893 993 854v-156c-366 32 -750 -61 -844 -468zM944 511c0 209 -161 381 -372 381s-371 -173 -371 -381c0 -209 160 -379 371 -379
c212 0 372 169 372 379z" />
    <glyph glyph-name="uni0432" unicode="&#x432;" horiz-adv-x="979" 
d="M264 463v-308h340c83 0 152 71 152 154c0 85 -69 154 -154 154h-338zM264 618h307c158 0 166 250 -1 250h-306v-250zM110 1024h471c150 0 269 -130 269 -278c0 -82 -43 -145 -111 -187c108 -46 173 -131 173 -250c0 -168 -138 -309 -307 -309h-495v1024z" />
    <glyph glyph-name="uni0433" unicode="&#x433;" horiz-adv-x="654" 
d="M653 870h-386v-870h-157v1027h543v-157z" />
    <glyph glyph-name="uni0434" unicode="&#x434;" horiz-adv-x="1120" 
d="M269 156h521v712h-423v-336c0 -85 -2 -331 -98 -376zM946 156h124v-340h-155v184h-711v-184h-154v340c126 -1 147 108 156 211c5 55 5 110 5 165v492h735v-868z" />
    <glyph glyph-name="uni0435" unicode="&#x435;" horiz-adv-x="1158" 
d="M214 591h714c-83 399 -648 390 -714 0zM1045 190c-336 -394 -995 -212 -995 321c0 292 225 535 521 535c334 0 555 -294 517 -614h-874c36 -179 191 -297 372 -297c135 0 254 59 342 161z" />
    <glyph glyph-name="uni0436" unicode="&#x436;" horiz-adv-x="1373" 
d="M1139 1024h185l-314 -481l353 -543h-184l-303 466h-113v-466h-153v466h-113l-303 -466h-185l352 544l-312 480h185l262 -403h114v403h153v-403h114z" />
    <glyph glyph-name="uni0437" unicode="&#x437;" horiz-adv-x="928" 
d="M62 804c91 148 221 241 399 241c181 0 371 -91 371 -296c0 -99 -47 -173 -136 -216c103 -31 157 -115 157 -220c0 -229 -200 -335 -406 -335c-168 0 -305 89 -401 222l121 95c68 -89 163 -162 280 -162c102 0 250 42 250 168c0 125 -150 153 -247 153h-151v155h164
c87 0 213 29 213 138c0 116 -123 142 -215 142c-119 0 -214 -72 -271 -172z" />
    <glyph glyph-name="uni0438" unicode="&#x438;" horiz-adv-x="1140" 
d="M889 1024h140v-1024h-156v757l-623 -757h-140v1024h155v-757z" />
    <glyph glyph-name="uni0439" unicode="&#x439;" horiz-adv-x="1140" 
d="M889 1024h140v-1024h-156v757l-623 -757h-140v1024h155v-757zM241 1480h149c0 -122 49 -229 186 -229c134 0 186 110 186 229h151c0 -207 -115 -380 -337 -380s-335 174 -335 380z" />
    <glyph glyph-name="uni043A" unicode="&#x43a;" horiz-adv-x="1002" 
d="M110 1024h157v-419h95l377 419h209l-446 -499l500 -525h-215l-426 444h-94v-444h-157v1024z" />
    <glyph glyph-name="uni043B" unicode="&#x43b;" horiz-adv-x="1142" 
d="M234 1025l797 -1v-1024h-154v869h-488v-623c0 -148 -124 -258 -269 -258c-42 0 -83 9 -120 27v193c60 -117 234 -81 234 30v787z" />
    <glyph glyph-name="uni043C" unicode="&#x43c;" horiz-adv-x="1298" 
d="M1037 1024h151v-1024h-155v755l-384 -529l-385 529v-755h-154v1024h151l388 -537z" />
    <glyph glyph-name="uni043D" unicode="&#x43d;" horiz-adv-x="1086" 
d="M110 1026h157v-420h551v419h157v-1025h-157v449h-551v-449h-157v1026z" />
    <glyph glyph-name="uni043E" unicode="&#x43e;" horiz-adv-x="1170" 
d="M585 -23c-300 0 -535 232 -535 533c0 296 239 537 535 537c297 0 535 -240 535 -537c0 -299 -237 -533 -535 -533zM204 511c0 -214 168 -379 381 -379s381 166 381 379c0 212 -169 381 -381 381s-381 -169 -381 -381z" />
    <glyph glyph-name="uni043F" unicode="&#x43f;" horiz-adv-x="1101" 
d="M110 1024h880v-1024h-157v866h-567v-866h-156v1024z" />
    <glyph glyph-name="uni0440" unicode="&#x440;" horiz-adv-x="1217" 
d="M265 848c80 135 212 199 367 199c300 0 535 -232 535 -533c0 -509 -667 -734 -902 -334v-599h-155v1443h155v-176zM1013 513c0 214 -168 379 -381 379s-381 -166 -381 -379c0 -212 169 -381 381 -381s381 169 381 381z" />
    <glyph glyph-name="uni0441" unicode="&#x441;" horiz-adv-x="1087" 
d="M1033 805l-126 -89c-202 319 -703 177 -703 -205s504 -521 704 -204l124 -93c-284 -430 -982 -242 -982 296c0 296 239 537 535 537c181 0 349 -90 448 -242z" />
    <glyph glyph-name="uni0442" unicode="&#x442;" horiz-adv-x="833" 
d="M804 867h-309v-867h-157v867h-310v157h776v-157z" />
    <glyph glyph-name="uni0443" unicode="&#x443;" horiz-adv-x="1013" 
d="M835 1024h168l-599 -1443h-167l195 475l-424 968h170l336 -787z" />
    <glyph glyph-name="uni0444" unicode="&#x444;" horiz-adv-x="1350" 
d="M756 1037h9c295 0 535 -230 535 -527c0 -310 -241 -523 -544 -523v-406h-157v406c-305 0 -549 208 -549 523c0 297 240 527 535 527h14v397h157v-397zM599 876h-14c-506 0 -499 -725 14 -725v725zM756 151c500 0 525 725 0 725v-725z" />
    <glyph glyph-name="uni0445" unicode="&#x445;" horiz-adv-x="1165" 
d="M913 1024h202l-432 -512l429 -512h-202l-329 391l-328 -391h-202l430 510l-431 514h203l330 -393z" />
    <glyph glyph-name="uni0446" unicode="&#x446;" horiz-adv-x="1138" 
d="M952 0h-843v1024h158v-865h560v865h158v-866h122v-343h-155v185z" />
    <glyph glyph-name="uni0447" unicode="&#x447;" horiz-adv-x="978" 
d="M711 534v490h156v-1024h-156v374c-428 -100 -651 -10 -651 463v187h156v-187c0 -177 9 -340 232 -340c89 0 177 15 263 37z" />
    <glyph glyph-name="uni0448" unicode="&#x448;" horiz-adv-x="1556" 
d="M856 1024v-866h430v866h159v-1024h-1335v1024h157v-866h431v866h158z" />
    <glyph glyph-name="uni0449" unicode="&#x449;" horiz-adv-x="1600" 
d="M1412 0h-1302v1024h157v-865h431v865h158v-865h430v865h159v-869h122v-340h-155v185z" />
    <glyph glyph-name="uni044A" unicode="&#x44a;" horiz-adv-x="1020" 
d="M386 155h241c116 0 208 93 208 209s-92 208 -208 208h-241v-417zM-21 1024h407v-296h241c201 0 364 -163 364 -364s-163 -364 -364 -364h-396v877h-252v147z" />
    <glyph glyph-name="uni044B" unicode="&#x44b;" horiz-adv-x="1268" 
d="M265 728h241c202 0 364 -162 364 -364c0 -201 -163 -364 -364 -364h-396v1024h155v-296zM1000 0v1024h157v-1024h-157zM265 155h241c116 0 208 93 208 209s-92 208 -208 208h-241v-417z" />
    <glyph glyph-name="uni044C" unicode="&#x44c;" horiz-adv-x="883" 
d="M265 728h241c200 0 364 -164 364 -364s-164 -364 -364 -364h-396v1024h155v-296zM265 155h241c116 0 208 93 208 209s-92 208 -208 208h-241v-417z" />
    <glyph glyph-name="uni044D" unicode="&#x44d;" horiz-adv-x="1087" 
d="M400 422v156h477c-59 342 -513 429 -697 138l-126 89c99 152 267 242 448 242c296 0 535 -241 535 -537c0 -538 -698 -727 -982 -296l124 93c177 -280 617 -211 694 115h-473z" />
    <glyph glyph-name="uni044E" unicode="&#x44e;" horiz-adv-x="1602" 
d="M643 513c0 -207 166 -374 373 -374s374 167 374 374s-167 373 -374 373c-208 0 -373 -165 -373 -373zM487 431h-222v-431h-157v1025h157v-437h221c33 263 268 459 530 459c299 0 536 -238 536 -537c0 -297 -239 -535 -536 -535c-264 0 -494 192 -529 456z" />
    <glyph glyph-name="uni044F" unicode="&#x44f;" horiz-adv-x="973" 
d="M707 544v324h-275c-232 0 -234 -324 0 -324h275zM304 419c-123 41 -202 158 -202 286c0 186 148 319 330 319h430v-1024h-155v388h-238l-277 -388h-187z" />
    <glyph glyph-name="uni0450" unicode="&#x450;" horiz-adv-x="1166" 
d="M229 591h714c-83 399 -648 390 -714 0zM1060 190c-336 -394 -995 -212 -995 321c0 292 225 535 521 535c334 0 555 -294 517 -614h-874c36 -179 191 -297 372 -297c135 0 254 59 342 161zM586 1130l-318 311l99 103l318 -311z" />
    <glyph glyph-name="uni0451" unicode="&#x451;" horiz-adv-x="1173" 
d="M229 591h714c-83 399 -648 390 -714 0zM1060 190c-336 -394 -995 -212 -995 321c0 292 225 535 521 535c334 0 555 -294 517 -614h-874c36 -179 191 -297 372 -297c135 0 254 59 342 161zM356 1322h188v-182h-188v182zM626 1322h188v-182h-188v182z" />
    <glyph glyph-name="uni0452" unicode="&#x452;" horiz-adv-x="1081" 
d="M-2 1338h111v96h155v-96h250v-162h-250v-342c60 144 172 213 327 213c277 0 393 -216 393 -468v-446c0 -246 -122 -423 -383 -419c-26 0 -51 1 -77 2v164c25 -1 51 -2 76 -3c164 -3 228 103 229 256c1 148 0 296 0 444c0 183 -87 315 -283 315
c-190 0 -282 -136 -282 -315v-577h-155v1176h-111v162z" />
    <glyph glyph-name="uni0453" unicode="&#x453;" horiz-adv-x="654" 
d="M653 870h-386v-870h-157v1027h543v-157zM688 1411l-318 -311l-99 103l318 311z" />
    <glyph glyph-name="uni0454" unicode="&#x454;" horiz-adv-x="1098" 
d="M907 716c-184 291 -639 204 -698 -138h478v-156h-473c75 -327 517 -395 694 -115l124 -93c-284 -431 -982 -242 -982 296c0 296 239 537 535 537c181 0 349 -90 448 -242z" />
    <glyph glyph-name="uni0455" unicode="&#x455;" horiz-adv-x="871" 
d="M701 835c-71 32 -156 57 -234 57c-89 0 -231 -22 -231 -139c0 -231 555 -112 555 -485c0 -209 -208 -291 -387 -291c-109 0 -217 29 -314 77l62 143c78 -38 163 -66 251 -66c83 0 233 32 233 139c0 224 -556 131 -556 484c0 210 205 293 386 293c100 0 200 -26 291 -67z
" />
    <glyph glyph-name="uni0456" unicode="&#x456;" horiz-adv-x="365" 
d="M98 0v1024h156v-1024h-156zM98 1234v200h156v-200h-156z" />
    <glyph glyph-name="uni0457" unicode="&#x457;" horiz-adv-x="359" 
d="M99 0v1024h155v-1024h-155zM-51 1292h188v-182h-188v182zM219 1292h188v-182h-188v182z" />
    <glyph glyph-name="uni0458" unicode="&#x458;" horiz-adv-x="364" 
d="M98 -419v1443h156v-1443h-156zM98 1234v200h156v-200h-156z" />
    <glyph glyph-name="uni0459" unicode="&#x459;" horiz-adv-x="1686" 
d="M1032 728h241c200 0 364 -164 364 -364s-164 -364 -364 -364h-396v869h-488v-623c0 -148 -124 -258 -269 -258c-41 0 -83 9 -120 27v193c60 -117 234 -81 234 30v787c266 0 532 -1 798 -1v-296zM1032 155h241c116 0 208 93 208 209s-92 208 -208 208h-241v-417z" />
    <glyph glyph-name="uni045A" unicode="&#x45a;" horiz-adv-x="1451" 
d="M925 156h177c83 0 153 61 153 146c0 83 -72 146 -153 146h-177v-292zM927 1026v-419h177c175 0 303 -131 303 -305c0 -164 -140 -302 -303 -302h-333v449h-504v-449h-157v1027h157v-421h504v420h156z" />
    <glyph glyph-name="uni045B" unicode="&#x45b;" horiz-adv-x="1074" 
d="M-2 1330h111v104h155v-104h250v-162h-250v-334c60 144 172 213 327 213c277 0 393 -216 393 -468v-579h-155v577c0 183 -87 315 -283 315c-190 0 -282 -136 -282 -315v-577h-155v1168h-111v162z" />
    <glyph glyph-name="uni045C" unicode="&#x45c;" horiz-adv-x="1002" 
d="M110 1024h157v-419h95l377 419h209l-446 -499l500 -525h-215l-426 444h-94v-444h-157v1024zM800 1411l-318 -311l-99 103l318 311z" />
    <glyph glyph-name="uni045D" unicode="&#x45d;" horiz-adv-x="1140" 
d="M889 1024h140v-1024h-156v757l-623 -757h-140v1024h155v-757zM576 1100l-318 311l99 103l318 -311z" />
    <glyph glyph-name="uni045E" unicode="&#x45e;" horiz-adv-x="1046" 
d="M868 1024h168l-599 -1443h-167l195 475l-424 968h170l336 -787zM205 1480h149c0 -122 49 -229 186 -229c134 0 186 110 186 229h151c0 -207 -115 -380 -337 -380s-335 174 -335 380z" />
    <glyph glyph-name="uni045F" unicode="&#x45f;" horiz-adv-x="1107" 
d="M488 -263v263h-378v1024h157v-866h574v866h156v-1024h-348v-263h-161z" />
    <glyph glyph-name="uni0490" unicode="&#x490;" horiz-adv-x="829" 
d="M829 1273h-558v-1273h-161v1434h559v199h160v-360z" />
    <glyph glyph-name="uni0491" unicode="&#x491;" horiz-adv-x="654" 
d="M653 1226v-356h-386v-870h-157v1027h383v199h160z" />
    <glyph glyph-name="Wgrave" unicode="&#x1e80;" horiz-adv-x="2112" 
d="M981 1438h150l415 -1198l375 1194h161l-460 -1434h-152l-414 1228l-415 -1228h-151l-460 1434h161l375 -1194zM1057 1500l-318 311l99 103l318 -311z" />
    <glyph glyph-name="wgrave" unicode="&#x1e81;" horiz-adv-x="1560" 
d="M709 1024h142l273 -771l241 771h165l-329 -1024h-149l-272 773l-272 -773h-149l-329 1024h165l242 -772zM780 1130l-318 311l99 103l318 -311z" />
    <glyph glyph-name="Wacute" unicode="&#x1e82;" horiz-adv-x="2112" 
d="M981 1438h150l415 -1198l375 1194h161l-460 -1434h-152l-414 1228l-415 -1228h-151l-460 1434h161l375 -1194zM1375 1810l-318 -311l-99 103l318 311z" />
    <glyph glyph-name="wacute" unicode="&#x1e83;" horiz-adv-x="1560" 
d="M709 1024h142l273 -771l241 771h165l-329 -1024h-149l-272 773l-272 -773h-149l-329 1024h165l242 -772zM1098 1440l-318 -311l-99 103l318 311z" />
    <glyph glyph-name="Wdieresis" unicode="&#x1e84;" horiz-adv-x="2112" 
d="M981 1438h150l415 -1198l375 1194h161l-460 -1434h-152l-414 1228l-415 -1228h-151l-460 1434h161l375 -1194zM827 1692h188v-182h-188v182zM1097 1692h188v-182h-188v182z" />
    <glyph glyph-name="wdieresis" unicode="&#x1e85;" horiz-adv-x="1560" 
d="M709 1024h142l273 -771l241 771h165l-329 -1024h-149l-272 773l-272 -773h-149l-329 1024h165l242 -772zM550 1322h188v-182h-188v182zM820 1322h188v-182h-188v182z" />
    <glyph glyph-name="Ygrave" unicode="&#x1ef2;" horiz-adv-x="1385" 
d="M1179 1434h188l-593 -853v-581h-161v581l-595 853h190l486 -703zM694 1500l-318 311l99 103l318 -311z" />
    <glyph glyph-name="ygrave" unicode="&#x1ef3;" horiz-adv-x="1046" 
d="M868 1024h168l-599 -1443h-167l195 475l-424 968h170l336 -787zM546 1100l-318 311l99 103l318 -311z" />
    <glyph glyph-name="uni2000" unicode="&#x2000;" horiz-adv-x="717" 
 />
    <glyph glyph-name="uni2001" unicode="&#x2001;" horiz-adv-x="1434" 
 />
    <glyph glyph-name="uni2002" unicode="&#x2002;" horiz-adv-x="717" 
 />
    <glyph glyph-name="uni2003" unicode="&#x2003;" horiz-adv-x="1434" 
 />
    <glyph glyph-name="uni2004" unicode="&#x2004;" horiz-adv-x="474" 
 />
    <glyph glyph-name="uni2005" unicode="&#x2005;" horiz-adv-x="359" 
 />
    <glyph glyph-name="uni2006" unicode="&#x2006;" horiz-adv-x="239" 
 />
    <glyph glyph-name="uni2007" unicode="&#x2007;" horiz-adv-x="900" 
 />
    <glyph glyph-name="uni2008" unicode="&#x2008;" horiz-adv-x="200" 
 />
    <glyph glyph-name="uni2009" unicode="&#x2009;" horiz-adv-x="239" 
 />
    <glyph glyph-name="uni200A" unicode="&#x200a;" horiz-adv-x="120" 
 />
    <glyph glyph-name="uni200B" unicode="&#x200b;" horiz-adv-x="0" 
 />
    <glyph glyph-name="uni2010" unicode="&#x2010;" horiz-adv-x="738" 
d="M110 695h516v-162h-516v162z" />
    <glyph glyph-name="uni2011" unicode="&#x2011;" horiz-adv-x="738" 
d="M110 695h516v-162h-516v162z" />
    <glyph glyph-name="figuredash" unicode="&#x2012;" horiz-adv-x="1042" 
d="M110 635v162h821v-162h-821z" />
    <glyph glyph-name="endash" unicode="&#x2013;" horiz-adv-x="1141" 
d="M110 535v162h921v-162h-921z" />
    <glyph glyph-name="emdash" unicode="&#x2014;" horiz-adv-x="1441" 
d="M110 535v162h1221v-162h-1221z" />
    <glyph glyph-name="uni2015" unicode="&#x2015;" horiz-adv-x="2231" 
d="M110 532v162h2010v-162h-2010z" />
    <glyph glyph-name="uni2016" unicode="&#x2016;" horiz-adv-x="969" 
d="M110 -391v1959h152v-1959h-152zM706 -391v1959h152v-1959h-152z" />
    <glyph glyph-name="underscoredbl" unicode="&#x2017;" horiz-adv-x="1272" 
d="M110 -310v162h1051v-162h-1051z" />
    <glyph glyph-name="quoteleft" unicode="&#x2018;" horiz-adv-x="365" 
d="M255 1600v-553h-174l58 553h116z" />
    <glyph glyph-name="quoteright" unicode="&#x2019;" horiz-adv-x="365" 
d="M110 1047v553h174l-58 -553h-116z" />
    <glyph glyph-name="quotesinglbase" unicode="&#x201a;" horiz-adv-x="380" 
d="M110 -166v553h160v-553h-160z" />
    <glyph glyph-name="quotereversed" unicode="&#x201b;" horiz-adv-x="386" 
d="M110 1515h159v-558h-159v558z" />
    <glyph glyph-name="quotedblleft" unicode="&#x201c;" horiz-adv-x="624" 
d="M515 1600v-553h-174l58 553h116zM269 1600v-553h-174l58 553h116z" />
    <glyph glyph-name="quotedblright" unicode="&#x201d;" horiz-adv-x="624" 
d="M356 1047v553h174l-58 -553h-116zM110 1047v553h174l-58 -553h-116z" />
    <glyph glyph-name="quotedblbase" unicode="&#x201e;" horiz-adv-x="640" 
d="M370 -173v553h160v-553h-160zM110 -173v553h160v-553h-160z" />
    <glyph glyph-name="uni201F" unicode="&#x201f;" horiz-adv-x="640" 
d="M370 1047v553h160v-553h-160zM110 1047v553h160v-553h-160z" />
    <glyph glyph-name="dagger" unicode="&#x2020;" horiz-adv-x="730" 
d="M71 869v155h215v299h155v-299h219v-155h-219v-1169h-155v1169h-215z" />
    <glyph glyph-name="daggerdbl" unicode="&#x2021;" horiz-adv-x="730" 
d="M70 155h216v714h-215v155h215v299h155v-299h219v-155h-219v-714h218v-155h-218v-300h-155v300h-216v155z" />
    <glyph glyph-name="bullet" unicode="&#x2022;" horiz-adv-x="450" 
d="M66 615c0 87 73 158 160 158c86 0 159 -72 159 -158s-75 -158 -160 -158c-89 0 -159 69 -159 158z" />
    <glyph glyph-name="onedotenleader" unicode="&#x2024;" horiz-adv-x="423" 
d="M313 87c0 -134 -203 -134 -203 0s203 134 203 0z" />
    <glyph glyph-name="twodotenleader" unicode="&#x2025;" horiz-adv-x="846" 
d="M313 87c0 -134 -203 -134 -203 0s203 134 203 0zM735 87c0 -134 -203 -134 -203 0s203 134 203 0z" />
    <glyph glyph-name="ellipsis" unicode="&#x2026;" horiz-adv-x="1269" 
d="M313 87c0 -134 -203 -134 -203 0s203 134 203 0zM736 87c0 -134 -203 -134 -203 0s203 134 203 0zM1159 87c0 -134 -203 -134 -203 0s203 134 203 0z" />
    <glyph glyph-name="uni2027" unicode="&#x2027;" horiz-adv-x="418" 
d="M110 792h192v-190h-192v190z" />
    <glyph glyph-name="uni2028" unicode="&#x2028;" horiz-adv-x="30" 
 />
    <glyph glyph-name="uni2029" unicode="&#x2029;" horiz-adv-x="30" 
 />
    <glyph glyph-name="perthousand" unicode="&#x2030;" horiz-adv-x="2019" 
d="M290 0h-190l935 1435h188zM1650 559c160 0 294 -130 294 -291c0 -162 -136 -291 -296 -291c-162 0 -293 128 -293 291s133 291 295 291zM1649 409c-187 0 -188 -282 0 -282c77 0 143 63 143 141s-65 141 -143 141zM361 1453c160 0 294 -130 294 -291
c0 -162 -136 -291 -296 -291c-162 0 -293 128 -293 291s133 291 295 291zM360 1303c-187 0 -188 -282 0 -282c77 0 143 63 143 141s-65 141 -143 141zM961 559c160 0 294 -130 294 -291c0 -162 -136 -291 -296 -291c-162 0 -293 128 -293 291s133 291 295 291zM960 409
c-187 0 -188 -282 0 -282c77 0 143 63 143 141s-65 141 -143 141z" />
    <glyph glyph-name="uni2031" unicode="&#x2031;" horiz-adv-x="1182" 
d="M190 -96h-190l998 1530h188z" />
    <glyph glyph-name="minute" unicode="&#x2032;" horiz-adv-x="386" 
d="M109 1047v553h160v-553h-160z" />
    <glyph glyph-name="second" unicode="&#x2033;" horiz-adv-x="640" 
d="M370 1047v553h160v-553h-160zM110 1047v553h160v-553h-160z" />
    <glyph glyph-name="guilsinglleft" unicode="&#x2039;" horiz-adv-x="591" 
d="M542 1018v-208l-272 -193l272 -186v-207l-542 391z" />
    <glyph glyph-name="guilsinglright" unicode="&#x203a;" horiz-adv-x="591" 
d="M52 1018l542 -403l-542 -391v207l272 186l-272 193v208z" />
    <glyph glyph-name="uni203B" unicode="&#x203b;" horiz-adv-x="1277" 
d="M107 808h192v-190h-192v190zM863 378l-231 231l-231 -231l-108 108l231 231l-231 232l108 107l231 -231l232 231l108 -108l-231 -231l231 -231zM543 1240h192v-190h-192v190zM543 375h192v-190h-192v190zM979 808h192v-190h-192v190z" />
    <glyph glyph-name="exclamdbl" unicode="&#x203c;" horiz-adv-x="761" 
d="M490 332v1102h161v-1102h-161zM672 87c0 -134 -203 -134 -203 0s203 134 203 0zM110 332v1102h161v-1102h-161zM292 87c0 -134 -203 -134 -203 0s203 134 203 0z" />
    <glyph glyph-name="uni203E" unicode="&#x203e;" horiz-adv-x="1272" 
d="M110 1555v162h1051v-162h-1051z" />
    <glyph glyph-name="uni2042" unicode="&#x2042;" horiz-adv-x="1379" 
d="M749 1367l-6 -188l175 64l40 -119l-182 -53l116 -148l-101 -73l-106 157l-105 -157l-102 74l118 150l-182 52l39 119l176 -64l-6 186h126zM373 744l-6 -188l175 64l40 -119l-182 -53l116 -148l-101 -73l-106 157l-105 -157l-102 74l118 150l-182 52l39 119l176 -64
l-6 186h126zM1129 745l-6 -188l175 64l40 -119l-182 -53l116 -148l-101 -73l-106 157l-105 -157l-102 74l118 150l-182 52l39 119l176 -64l-6 186h126z" />
    <glyph glyph-name="uni2043" unicode="&#x2043;" horiz-adv-x="738" 
d="M110 557h516v-162h-516v162z" />
    <glyph glyph-name="fraction" unicode="&#x2044;" horiz-adv-x="1120" 
d="M91 -152h-190l1131 1736h188z" />
    <glyph glyph-name="uni2045" unicode="&#x2045;" horiz-adv-x="540" 
d="M489 481h-215v-715h238v-162h-402v1827h402v-156h-238v-632h215v-162z" />
    <glyph glyph-name="uni2046" unicode="&#x2046;" horiz-adv-x="542" 
d="M63 643h201v632h-238v156h403v-1827h-403v162h238v715h-201v162z" />
    <glyph glyph-name="uni204B" unicode="&#x204b;" horiz-adv-x="1080" 
d="M76 1435h584c213 0 397 -119 393 -349c-4 -224 -167 -338 -377 -348v-738h-156v1268h-166v-1268h-151v1268h-127v167z" />
    <glyph glyph-name="uni204C" unicode="&#x204c;" horiz-adv-x="450" 
d="M66 615c0 87 73 158 160 158c86 0 159 -72 159 -158s-75 -158 -160 -158c-89 0 -159 69 -159 158z" />
    <glyph glyph-name="uni204D" unicode="&#x204d;" horiz-adv-x="450" 
d="M66 615c0 87 73 158 160 158c86 0 159 -72 159 -158s-75 -158 -160 -158c-89 0 -159 69 -159 158z" />
    <glyph glyph-name="uni204E" unicode="&#x204e;" horiz-adv-x="620" 
d="M373 495l-6 -188l175 64l40 -119l-182 -53l116 -148l-101 -73l-106 157l-105 -157l-102 74l118 150l-182 52l39 119l176 -64l-6 186h126z" />
    <glyph glyph-name="uni2051" unicode="&#x2051;" horiz-adv-x="620" 
d="M373 495l-6 -188l175 64l40 -119l-182 -53l116 -148l-101 -73l-106 157l-105 -157l-102 74l118 150l-182 52l39 119l176 -64l-6 186h126zM373 1451l-6 -188l175 64l40 -119l-182 -53l116 -148l-101 -73l-106 157l-105 -157l-102 74l118 150l-182 52l39 119l176 -64
l-6 186h126z" />
    <glyph glyph-name="uni2052" unicode="&#x2052;" horiz-adv-x="854" 
d="M57 -49l571 1284h173l-571 -1284h-173zM309 1092c0 -134 -203 -134 -203 0s203 134 203 0zM759 102c0 -134 -203 -134 -203 0s203 134 203 0z" />
    <glyph glyph-name="uni2053" unicode="&#x2053;" horiz-adv-x="1350" 
d="M1327 792v-208c-123 -83 -228 -110 -375 -110c-96 0 -180 19 -269 50c-94 34 -187 82 -288 82c-143 0 -263 -68 -370 -157v207c103 69 245 111 369 111c94 0 177 -19 264 -50c95 -34 191 -82 294 -82c157 0 257 61 375 157z" />
    <glyph glyph-name="zerosuperior" unicode="&#x2070;" horiz-adv-x="747" 
d="M377 1001c153 0 179 180 179 297s-26 298 -179 298c-150 0 -188 -180 -188 -298c0 -121 34 -297 188 -297zM705 1298c0 -208 -83 -445 -328 -445c-244 0 -336 236 -336 445s92 447 336 447c246 0 328 -239 328 -447z" />
    <glyph glyph-name="foursuperior" unicode="&#x2074;" horiz-adv-x="653" 
d="M15 1188l375 528h124v-491h124v-147h-124v-209h-147v209h-352v110zM368 1435l-151 -211h151v211z" />
    <glyph glyph-name="fivesuperior" unicode="&#x2075;" horiz-adv-x="588" 
d="M188 1566v-163c25 20 58 28 90 28c171 0 293 -118 293 -290c0 -160 -136 -298 -297 -298c-100 0 -186 55 -257 120l96 116c43 -40 96 -87 159 -87c188 0 208 284 8 290c-54 2 -97 -22 -130 -63l-107 60v437h479v-150h-334z" />
    <glyph glyph-name="sixsuperior" unicode="&#x2076;" horiz-adv-x="599" 
d="M300 992c73 0 135 63 135 136c0 75 -60 135 -135 135c-180 0 -179 -271 0 -271zM335 1716h184l-221 -310c157 0 287 -118 287 -278c0 -158 -127 -285 -285 -285c-157 0 -286 128 -286 285c0 87 32 171 81 242z" />
    <glyph glyph-name="sevensuperior" unicode="&#x2077;" horiz-adv-x="596" 
d="M-2 1716h601v-110l-374 -740h-169l354 700h-412v150z" />
    <glyph glyph-name="eightsuperior" unicode="&#x2078;" horiz-adv-x="613" 
d="M306 1007c164 0 164 250 0 250c-162 0 -168 -250 0 -250zM306 1593c-124 0 -121 -185 0 -185c117 0 126 185 0 185zM125 1340c-39 45 -61 104 -61 163c0 135 108 238 242 238c131 0 241 -106 241 -238c0 -61 -20 -117 -61 -163c59 -52 94 -130 94 -209
c0 -155 -119 -273 -274 -273c-151 0 -274 122 -274 273c0 76 41 156 93 209z" />
    <glyph glyph-name="ninesuperior" unicode="&#x2079;" horiz-adv-x="589" 
d="M294 1593c-73 0 -135 -64 -135 -136c0 -75 60 -136 135 -136c179 0 179 272 0 272zM259 869h-184l221 310c-154 -15 -287 129 -287 278c0 158 127 285 285 285c157 0 286 -128 286 -285c0 -88 -32 -168 -81 -240z" />
    <glyph glyph-name="zeroinferior" unicode="&#x2080;" horiz-adv-x="747" 
d="M377 -150c153 0 179 180 179 297s-26 298 -179 298c-150 0 -188 -180 -188 -298c0 -121 34 -297 188 -297zM705 147c0 -208 -83 -445 -328 -445c-244 0 -336 236 -336 445s92 447 336 447c246 0 328 -239 328 -447z" />
    <glyph glyph-name="oneinferior" unicode="&#x2081;" horiz-adv-x="342" 
d="M38 565h266v-847h-147v700h-119v147z" />
    <glyph glyph-name="twoinferior" unicode="&#x2082;" horiz-adv-x="626" 
d="M267 -135h316v-147h-541v126l331 339c31 32 62 71 62 118c0 70 -54 126 -124 127c-75 2 -122 -59 -122 -130v-74h-147v73c0 150 118 278 270 278c153 0 270 -125 270 -276c0 -87 -45 -160 -104 -220z" />
    <glyph glyph-name="threeinferior" unicode="&#x2083;" horiz-adv-x="632" 
d="M67 345c89 363 503 247 503 -9c0 -60 -25 -129 -79 -161c71 -42 108 -119 108 -200c0 -151 -132 -269 -280 -269c-162 0 -247 104 -286 251l145 52c26 -245 274 -162 274 -35c0 81 -72 122 -146 122h-62v148c65 0 179 -4 179 91c0 116 -204 145 -219 -43z" />
    <glyph glyph-name="fourinferior" unicode="&#x2084;" horiz-adv-x="653" 
d="M15 37l375 528h124v-491h124v-147h-124v-209h-147v209h-352v110zM368 284l-151 -211h151v211z" />
    <glyph glyph-name="fiveinferior" unicode="&#x2085;" horiz-adv-x="588" 
d="M188 415v-163c25 20 58 28 90 28c171 0 293 -118 293 -290c0 -160 -136 -298 -297 -298c-100 0 -186 55 -257 120l96 116c43 -40 96 -87 159 -87c188 0 208 284 8 290c-54 2 -97 -22 -130 -63l-107 60v437h479v-150h-334z" />
    <glyph glyph-name="sixinferior" unicode="&#x2086;" horiz-adv-x="599" 
d="M300 -159c73 0 135 63 135 136c0 75 -60 135 -135 135c-180 0 -179 -271 0 -271zM335 565h184l-221 -310c157 0 287 -118 287 -278c0 -158 -127 -285 -285 -285c-157 0 -286 128 -286 285c0 87 32 171 81 242z" />
    <glyph glyph-name="seveninferior" unicode="&#x2087;" horiz-adv-x="596" 
d="M-2 565h601v-110l-373 -737h-169l353 697h-412v150z" />
    <glyph glyph-name="eightinferior" unicode="&#x2088;" horiz-adv-x="613" 
d="M306 -144c164 0 164 250 0 250c-162 0 -168 -250 0 -250zM306 442c-124 0 -121 -185 0 -185c117 0 126 185 0 185zM125 189c-39 45 -61 104 -61 163c0 135 108 238 242 238c131 0 241 -106 241 -238c0 -61 -20 -117 -61 -163c59 -52 94 -130 94 -209
c0 -155 -119 -273 -274 -273c-151 0 -274 122 -274 273c0 76 41 156 93 209z" />
    <glyph glyph-name="nineinferior" unicode="&#x2089;" horiz-adv-x="589" 
d="M294 442c-73 0 -135 -64 -135 -136c0 -75 60 -136 135 -136c179 0 179 272 0 272zM259 -282h-184l221 310c-154 -15 -287 129 -287 278c0 158 127 285 285 285c157 0 286 -128 286 -285c0 -88 -32 -168 -81 -240z" />
    <glyph glyph-name="franc" unicode="&#x20a3;" horiz-adv-x="1038" 
d="M667 274h-358v-274h-158v274h-153v160h153v1000h887v-158h-729v-441h541v-161h-541v-240h358v-160z" />
    <glyph glyph-name="lira" unicode="&#x20a4;" horiz-adv-x="908" 
d="M445 865v-194h294v-159h-294v-355h380v-157h-541v512h-278v159h278v194h-278v159h278c0 274 158 409 425 409h131v-161c-203 0 -396 21 -395 -248h295v-159h-295z" />
    <glyph glyph-name="Euro" unicode="&#x20ac;" horiz-adv-x="1440" 
d="M988 472h-728c93 -221 305 -347 542 -347c174 0 351 102 461 233l122 -104c-141 -168 -360 -289 -583 -289c-424 0 -750 330 -750 753c0 421 328 751 750 751c225 0 405 -93 556 -255l-116 -112c-116 125 -267 207 -440 207c-231 0 -443 -139 -538 -349h724v-160h-770
c-8 -56 -7 -112 -1 -168h771v-160z" />
    <glyph glyph-name="uni2105" unicode="&#x2105;" horiz-adv-x="1979" 
d="M705 891l123 -103c-90 -107 -208 -191 -353 -191c-224 0 -413 190 -413 414s189 414 413 414c143 0 259 -81 350 -185l-123 -105c-57 67 -134 130 -227 130c-142 0 -252 -113 -252 -254c0 -133 119 -253 252 -253c94 0 172 65 230 133zM1516 -4c-228 0 -417 189 -417 417
c0 216 200 419 417 419c228 0 417 -191 417 -419c0 -227 -190 -417 -417 -417zM1261 415c0 -139 117 -253 255 -253s254 115 254 253s-116 254 -254 254c-139 0 -255 -115 -255 -254zM555 -96h-190l994 1525h187z" />
    <glyph glyph-name="uni2116" unicode="&#x2116;" horiz-adv-x="2164" 
d="M1761 1047c160 0 294 -130 294 -291c0 -162 -136 -291 -296 -291c-162 0 -293 128 -293 291s133 291 295 291zM1467 221v149h587v-149h-587zM1760 900c-191 0 -192 -288 0 -288c79 0 145 65 145 144s-66 144 -145 144zM110 1434h144l883 -1142v1142h160v-1434h-145
l-882 1142v-1142h-160v1434z" />
    <glyph glyph-name="uni2117" unicode="&#x2117;" horiz-adv-x="1603" 
d="M756 716h81c59 0 110 27 110 92c0 69 -47 92 -110 92h-81v-184zM594 1058h243c169 0 274 -71 274 -249c0 -171 -99 -249 -264 -249h-91v-205h-162v703zM818 124c329 0 593 261 593 591s-263 593 -593 593c-329 0 -593 -264 -593 -593s264 -591 593 -591zM1571 715
c0 -417 -337 -750 -753 -750s-753 333 -753 750c0 416 337 754 753 754c417 0 753 -337 753 -754z" />
    <glyph glyph-name="trademark" unicode="&#x2122;" horiz-adv-x="1411" 
d="M622 790v497h-198v-497h-154v497h-210v150h680l221 -285l222 285h118v-647h-153v359l-187 -238l-186 237v-358h-153z" />
    <glyph glyph-name="onethird" unicode="&#x2153;" horiz-adv-x="1398" 
d="M38 1434h266v-847h-147v700h-119v147zM806 627c89 363 503 247 503 -9c0 -60 -25 -129 -79 -161c71 -42 108 -119 108 -200c0 -151 -132 -269 -280 -269c-162 0 -247 104 -286 251l145 52c26 -245 274 -162 274 -35c0 81 -72 122 -146 122h-62v148c65 0 179 -4 179 91
c0 116 -204 145 -219 -43zM160 -152h-190l1131 1736h188z" />
    <glyph glyph-name="twothirds" unicode="&#x2154;" horiz-adv-x="1538" 
d="M267 734h316v-147h-541v126l331 339c31 32 62 71 62 118c0 70 -54 126 -124 127c-75 2 -122 -59 -122 -130v-74h-147v73c0 150 118 278 270 278c153 0 270 -125 270 -276c0 -87 -45 -160 -104 -220zM330 -152h-190l1131 1736h188zM954 627c89 363 503 247 503 -9
c0 -60 -25 -129 -79 -161c71 -42 108 -119 108 -200c0 -151 -132 -269 -280 -269c-162 0 -247 104 -286 251l145 52c26 -245 274 -162 274 -35c0 81 -72 122 -146 122h-62v148c65 0 179 -4 179 91c0 116 -204 145 -219 -43z" />
    <glyph glyph-name="oneeighth" unicode="&#x215b;" horiz-adv-x="1400" 
d="M38 1434h266v-847h-147v700h-119v147zM1090 138c164 0 164 250 0 250c-162 0 -168 -250 0 -250zM1090 724c-124 0 -121 -185 0 -185c117 0 126 185 0 185zM909 471c-39 45 -61 104 -61 163c0 135 108 238 242 238c131 0 241 -106 241 -238c0 -61 -20 -117 -61 -163
c59 -52 94 -130 94 -209c0 -155 -119 -273 -274 -273c-151 0 -274 122 -274 273c0 76 41 156 93 209zM160 -152h-190l1131 1736h188z" />
    <glyph glyph-name="threeeighths" unicode="&#x215c;" horiz-adv-x="1617" 
d="M100 1214c89 363 503 247 503 -9c0 -60 -25 -129 -79 -161c71 -42 108 -119 108 -200c0 -151 -132 -269 -280 -269c-162 0 -247 104 -286 251l145 52c26 -245 274 -162 274 -35c0 81 -72 122 -146 122h-62v148c65 0 179 -4 179 91c0 116 -204 145 -219 -43zM1309 138
c164 0 164 250 0 250c-162 0 -168 -250 0 -250zM1309 724c-124 0 -121 -185 0 -185c117 0 126 185 0 185zM1128 471c-39 45 -61 104 -61 163c0 135 108 238 242 238c131 0 241 -106 241 -238c0 -61 -20 -117 -61 -163c59 -52 94 -130 94 -209c0 -155 -119 -273 -274 -273
c-151 0 -274 122 -274 273c0 76 41 156 93 209zM362 -152h-190l1131 1736h188z" />
    <glyph glyph-name="fiveeighths" unicode="&#x215d;" horiz-adv-x="1601" 
d="M222 1284v-163c25 20 58 28 90 28c171 0 293 -118 293 -290c0 -160 -136 -298 -297 -298c-100 0 -186 55 -257 120l96 116c43 -40 96 -87 159 -87c188 0 208 284 8 290c-54 2 -97 -22 -130 -63l-107 60v437h479v-150h-334zM1293 138c164 0 164 250 0 250
c-162 0 -168 -250 0 -250zM1293 724c-124 0 -121 -185 0 -185c117 0 126 185 0 185zM1112 471c-39 45 -61 104 -61 163c0 135 108 238 242 238c131 0 241 -106 241 -238c0 -61 -20 -117 -61 -163c59 -52 94 -130 94 -209c0 -155 -119 -273 -274 -273
c-151 0 -274 122 -274 273c0 76 41 156 93 209zM346 -152h-190l1131 1736h188z" />
    <glyph glyph-name="seveneighths" unicode="&#x215e;" horiz-adv-x="1451" 
d="M-2 1434h601v-110l-374 -740h-169l354 700h-412v150zM1133 138c164 0 164 250 0 250c-162 0 -168 -250 0 -250zM1133 724c-124 0 -121 -185 0 -185c117 0 126 185 0 185zM952 471c-39 45 -61 104 -61 163c0 135 108 238 242 238c131 0 241 -106 241 -238
c0 -61 -20 -117 -61 -163c59 -52 94 -130 94 -209c0 -155 -119 -273 -274 -273c-151 0 -274 122 -274 273c0 76 41 156 93 209zM186 -152h-190l1131 1736h188z" />
    <glyph glyph-name="partialdiff" unicode="&#x2202;" horiz-adv-x="1144" 
d="M200 511c0 -210 160 -379 372 -379c211 0 371 170 371 379c0 208 -160 381 -371 381s-372 -172 -372 -381zM101 1435c589 39 993 -233 993 -854c0 -312 -184 -604 -522 -604c-299 0 -522 238 -522 533c0 290 227 537 522 537c173 0 291 -89 373 -236
c-94 407 -478 500 -844 468v156z" />
    <glyph glyph-name="increment" unicode="&#x2206;" horiz-adv-x="1367" 
d="M25 0l657 1520l655 -1520h-1312zM682 1132l-427 -985h851z" />
    <glyph glyph-name="product" unicode="&#x220f;" horiz-adv-x="1207" 
d="M930 1270h-653v-1689h-167v1853h986v-1853h-166v1689z" />
    <glyph glyph-name="summation" unicode="&#x2211;" horiz-adv-x="1130" 
d="M110 1288v146h910v-164h-688l568 -755l-567 -735h687v-163h-910v145l579 755z" />
    <glyph glyph-name="minus" unicode="&#x2212;" horiz-adv-x="889" 
d="M779 636h-669v160h669v-160z" />
    <glyph glyph-name="uni2215" unicode="&#x2215;" horiz-adv-x="1120" 
d="M91 -152h-190l1131 1736h188z" />
    <glyph glyph-name="uni2219" unicode="&#x2219;" horiz-adv-x="418" 
d="M110 792h192v-190h-192v190z" />
    <glyph glyph-name="radical" unicode="&#x221a;" horiz-adv-x="1014" 
d="M1014 1534l-676 -1621l-366 791h166l194 -423l582 1400h260v-147h-160z" />
    <glyph glyph-name="infinity" unicode="&#x221e;" horiz-adv-x="1454" 
d="M727 471c-67 -78 -164 -124 -267 -124c-193 0 -350 157 -350 350s157 350 350 350c103 0 200 -47 267 -125c66 79 164 125 267 125c193 0 350 -157 350 -350s-157 -350 -350 -350c-103 0 -201 45 -267 124zM810 697c0 -101 83 -184 184 -184s184 83 184 184
s-83 184 -184 184s-184 -83 -184 -184zM276 697c0 -101 83 -184 184 -184s184 83 184 184s-83 184 -184 184s-184 -83 -184 -184z" />
    <glyph glyph-name="intersection" unicode="&#x2229;" horiz-adv-x="1374" 
d="M91 0v874c0 329 266 595 595 595c327 0 596 -268 596 -595v-874h-164v874c0 239 -193 433 -432 433c-242 0 -433 -191 -433 -433v-874h-162z" />
    <glyph glyph-name="integral" unicode="&#x222b;" horiz-adv-x="614" 
d="M3 -200c55 94 110 190 148 292c81 215 76 464 76 691c0 373 30 529 214 851h170c-197 -325 -225 -478 -225 -851c0 -418 3 -608 -213 -983h-170z" />
    <glyph glyph-name="approxequal" unicode="&#x2248;" horiz-adv-x="890" 
d="M110 960c45 46 111 58 173 58c131 0 217 -99 326 -99c85 0 125 30 171 98v-196c-46 -43 -109 -59 -171 -59c-136 0 -211 97 -326 97c-84 0 -127 -29 -173 -97v198zM110 610c45 46 111 58 173 58c131 0 217 -99 326 -99c85 0 125 30 171 98v-196
c-46 -43 -109 -59 -171 -59c-136 0 -211 97 -326 97c-84 0 -127 -29 -173 -97v198z" />
    <glyph glyph-name="notequal" unicode="&#x2260;" horiz-adv-x="889" 
d="M247 290h-170l118 182h-85v160h190l109 168h-299v160h404l120 184h168l-120 -184h97v-160h-201l-109 -168h310v-160h-414z" />
    <glyph glyph-name="lessequal" unicode="&#x2264;" horiz-adv-x="704" 
d="M602 1120v-208l-272 -193l272 -186v-207l-542 391zM602 71h-541v161h541v-161z" />
    <glyph glyph-name="greaterequal" unicode="&#x2265;" horiz-adv-x="702" 
d="M103 1120l542 -403l-542 -391v207l272 186l-272 193v208zM103 71v161h541v-161h-541z" />
    <glyph glyph-name="commaaccent" unicode="&#xf6c3;" horiz-adv-x="326" 
d="M110 1100v400h174l-58 -400h-116z" />
    <glyph glyph-name="fi.003" horiz-adv-x="969" 
d="M872 1280c-119 0 -239 -1 -358 -1c-176 0 -259 -73 -258 -255h616v-1024h-155v869h-460v-869h-157v1024c0 271 145 410 415 410h357v-154z" />
    <glyph glyph-name="fl.003" horiz-adv-x="969" 
d="M872 0h-155v869h-460v-869h-157v1024c0 271 145 410 415 410h357v-1434zM717 1279h-203c-177 0 -258 -73 -258 -255h461v255z" />
    <glyph glyph-name="ff.003" horiz-adv-x="1274" 
d="M1260 1280c-208 0 -387 16 -386 -256h386v-155h-385v-869h-157v869h-457v-869h-157v1024c0 271 145 410 415 410h127v-154c-208 0 -387 16 -386 -256h458c0 271 145 410 415 410h127v-154z" />
    <glyph glyph-name="ffi.003" horiz-adv-x="1593" 
d="M1490 1280c-119 0 -239 -1 -358 -1c-176 0 -259 -73 -258 -255h616v-1024h-155v869h-460v-869h-157v869h-457v-869h-157v1024c0 271 145 410 415 410h127v-154c-208 0 -387 16 -386 -256h458c0 271 145 410 415 410h357v-154z" />
    <glyph glyph-name="ffl.003" horiz-adv-x="1601" 
d="M1490 0h-155v869h-460v-869h-157v869h-462v-869h-157v1024c0 271 145 410 415 410h127v-154c-208 0 -387 16 -386 -256h463c0 271 146 410 415 410h357v-1434zM1335 1279h-203c-177 0 -258 -73 -258 -255h461v255z" />
    <glyph glyph-name="st.003" horiz-adv-x="1422" 
d="M1360 154l7 -157c-34 -4 -70 -8 -104 -8c-242 0 -362 186 -362 411v467h-488c-87 0 -231 -19 -231 -134c0 -225 555 -109 555 -473c0 -206 -213 -283 -387 -283c-109 0 -217 28 -314 75l62 139c78 -37 164 -64 251 -64c80 0 233 30 233 135c0 219 -556 127 -556 472
c0 207 209 289 386 289h489v313h157v-312h300v-157h-300v-467c0 -153 59 -262 228 -252c25 1 49 4 74 6z" />
    <glyph glyph-name="_527" horiz-adv-x="30" 
 />
    <glyph glyph-name="a.003" horiz-adv-x="932" 
d="M681 117c-180 -277 -618 -103 -618 206c0 303 417 480 618 219v67c0 169 -52 283 -234 283c-96 0 -171 -38 -214 -127l-147 63c67 144 205 219 361 219c275 0 390 -175 390 -436c0 -204 -1 -407 -1 -611h-155v117zM221 322c0 -258 473 -266 473 0
c0 126 -119 199 -234 199c-114 0 -239 -73 -239 -199z" />
    <glyph glyph-name="f.003" horiz-adv-x="666" 
d="M638 1280c-208 0 -387 16 -386 -256h386v-155h-385v-869h-157v1024c0 271 145 410 415 410h127v-154z" />
    <glyph glyph-name="t.003" horiz-adv-x="576" 
d="M552 154l7 -157c-34 -4 -69 -8 -104 -8c-242 0 -362 186 -362 411v936h157v-312h300v-157h-300v-467c0 -152 60 -263 228 -252c25 2 49 4 74 6z" />
    <glyph glyph-name="undercommaaccent" horiz-adv-x="326" 
d="M110 -500v400h174l-58 -400h-116z" />
    <glyph glyph-name="zero.numerator" horiz-adv-x="747" 
d="M377 719c153 0 179 180 179 297s-26 298 -179 298c-150 0 -188 -180 -188 -298c0 -121 34 -297 188 -297zM705 1016c0 -208 -83 -445 -328 -445c-244 0 -336 236 -336 445s92 447 336 447c246 0 328 -239 328 -447z" />
    <glyph glyph-name="one.numerator" horiz-adv-x="342" 
d="M38 1434h266v-847h-147v700h-119v147z" />
    <glyph glyph-name="two.numerator" horiz-adv-x="626" 
d="M267 734h316v-147h-541v126l331 339c31 32 62 71 62 118c0 70 -54 126 -124 127c-75 2 -122 -59 -122 -130v-74h-147v73c0 150 118 278 270 278c153 0 270 -125 270 -276c0 -87 -45 -160 -104 -220z" />
    <glyph glyph-name="three.numerator" horiz-adv-x="632" 
d="M67 1214c89 363 503 247 503 -9c0 -60 -25 -129 -79 -161c71 -42 108 -119 108 -200c0 -151 -132 -269 -280 -269c-162 0 -247 104 -286 251l145 52c26 -245 274 -162 274 -35c0 81 -72 122 -146 122h-62v148c65 0 179 -4 179 91c0 116 -204 145 -219 -43z" />
    <glyph glyph-name="four.numerator" horiz-adv-x="653" 
d="M15 906l375 528h124v-491h124v-147h-124v-209h-147v209h-352v110zM368 1153l-151 -211h151v211z" />
    <glyph glyph-name="five.numerator" horiz-adv-x="588" 
d="M188 1284v-163c25 20 58 28 90 28c171 0 293 -118 293 -290c0 -160 -136 -298 -297 -298c-100 0 -186 55 -257 120l96 116c43 -40 96 -87 159 -87c188 0 208 284 8 290c-54 2 -97 -22 -130 -63l-107 60v437h479v-150h-334z" />
    <glyph glyph-name="six.numerator" horiz-adv-x="599" 
d="M300 710c73 0 135 63 135 136c0 75 -60 135 -135 135c-180 0 -179 -271 0 -271zM335 1434h184l-221 -310c157 0 287 -118 287 -278c0 -158 -127 -285 -285 -285c-157 0 -286 128 -286 285c0 87 32 171 81 242z" />
    <glyph glyph-name="seven.numerator" horiz-adv-x="596" 
d="M-2 1434h601v-110l-374 -740h-169l354 700h-412v150z" />
    <glyph glyph-name="eight.numerator" horiz-adv-x="613" 
d="M306 725c164 0 164 250 0 250c-162 0 -168 -250 0 -250zM306 1311c-124 0 -121 -185 0 -185c117 0 126 185 0 185zM125 1058c-39 45 -61 104 -61 163c0 135 108 238 242 238c131 0 241 -106 241 -238c0 -61 -20 -117 -61 -163c59 -52 94 -130 94 -209
c0 -155 -119 -273 -274 -273c-151 0 -274 122 -274 273c0 76 41 156 93 209z" />
    <glyph glyph-name="nine.numerator" horiz-adv-x="589" 
d="M294 1311c-73 0 -135 -64 -135 -136c0 -75 60 -136 135 -136c179 0 179 272 0 272zM259 587h-184l221 310c-154 -15 -287 129 -287 278c0 158 127 285 285 285c157 0 286 -128 286 -285c0 -88 -32 -168 -81 -240z" />
    <glyph glyph-name="zero.denominator" horiz-adv-x="747" 
d="M377 132c153 0 179 180 179 297s-26 298 -179 298c-150 0 -188 -180 -188 -298c0 -121 34 -297 188 -297zM705 429c0 -208 -83 -445 -328 -445c-244 0 -336 236 -336 445s92 447 336 447c246 0 328 -239 328 -447z" />
    <glyph glyph-name="one.denominator" horiz-adv-x="342" 
d="M38 847h266v-847h-147v700h-119v147z" />
    <glyph glyph-name="two.denominator" horiz-adv-x="626" 
d="M267 147h316v-147h-541v126l331 339c31 32 62 71 62 118c0 70 -54 126 -124 127c-75 2 -122 -59 -122 -130v-74h-147v73c0 150 118 278 270 278c153 0 270 -125 270 -276c0 -87 -45 -160 -104 -220z" />
    <glyph glyph-name="three.denominator" horiz-adv-x="632" 
d="M67 627c89 363 503 247 503 -9c0 -60 -25 -129 -79 -161c71 -42 108 -119 108 -200c0 -151 -132 -269 -280 -269c-162 0 -247 104 -286 251l145 52c26 -245 274 -162 274 -35c0 81 -72 122 -146 122h-62v148c65 0 179 -4 179 91c0 116 -204 145 -219 -43z" />
    <glyph glyph-name="four.denominator" horiz-adv-x="653" 
d="M15 319l375 528h124v-491h124v-147h-124v-209h-147v209h-352v110zM368 566l-151 -211h151v211z" />
    <glyph glyph-name="five.denominator" horiz-adv-x="588" 
d="M188 697v-163c25 20 58 28 90 28c171 0 293 -118 293 -290c0 -160 -136 -298 -297 -298c-100 0 -186 55 -257 120l96 116c43 -40 96 -87 159 -87c188 0 208 284 8 290c-54 2 -97 -22 -130 -63l-107 60v437h479v-150h-334z" />
    <glyph glyph-name="six.denominator" horiz-adv-x="599" 
d="M300 123c73 0 135 63 135 136c0 75 -60 135 -135 135c-180 0 -179 -271 0 -271zM335 847h184l-221 -310c157 0 287 -118 287 -278c0 -158 -127 -285 -285 -285c-157 0 -286 128 -286 285c0 87 32 171 81 242z" />
    <glyph glyph-name="seven.denominator" horiz-adv-x="596" 
d="M-2 847h601v-110l-373 -737h-169l353 697h-412v150z" />
    <glyph glyph-name="eight.denominator" horiz-adv-x="613" 
d="M306 138c164 0 164 250 0 250c-162 0 -168 -250 0 -250zM306 724c-124 0 -121 -185 0 -185c117 0 126 185 0 185zM125 471c-39 45 -61 104 -61 163c0 135 108 238 242 238c131 0 241 -106 241 -238c0 -61 -20 -117 -61 -163c59 -52 94 -130 94 -209
c0 -155 -119 -273 -274 -273c-151 0 -274 122 -274 273c0 76 41 156 93 209z" />
    <glyph glyph-name="nine.denominator" horiz-adv-x="589" 
d="M294 724c-73 0 -135 -64 -135 -136c0 -75 60 -136 135 -136c179 0 179 272 0 272zM259 0h-184l221 310c-154 -15 -287 129 -287 278c0 158 127 285 285 285c157 0 286 -128 286 -285c0 -88 -32 -168 -81 -240z" />
    <glyph glyph-name="f.002" horiz-adv-x="586" 
d="M0 868v156h157v197c0 147 78 230 227 230c136 0 215 -99 215 -230h-155c0 104 -132 108 -132 0v-197h274v-156h-274v-868h-155v868h-157z" />
    </font>
</defs>
</svg>
